<svg  xmlns="http://www.w3.org/2000/svg" xmlns:xlink="http://www.w3.org/1999/xlink" x="0" y="0" width="600" height="600">
<rect x="0%" y="0%" height="100%" width="100%" style="fill: #ffffff"/>
<svg x="0" y="0">
  <text fill="dark" font-size="35" transform="translate(250, 30)">cores</text>
</svg>
<svg x="0" y="0"> 
  <text fill="dark" font-size="35" transform="translate(30, 300) rotate(270)">time</text>
</svg>
<svg x = "50" y="550">
  <text fill="blue" font-size="30" transform="translate(0, 35)">t = 80s, lb = 0.975694</text>
</svg>
<svg x="50" y="50" width="500" height="500" >
  <rect x="0%" y="0%" height="100%" width="100%" style="fill: #eeeeee"/>
    <rect x="0"  y="0.12357" height="3.62059" width="250" style="fill: #dab2b3"/>
    <rect x="0"  y="3.87391" height="10.8741" width="250" style="fill: #6c248b"/>
    <rect x="0"  y="14.8716" height="2.99656" width="250" style="fill: #87d6ae"/>
    <rect x="0"  y="17.9979" height="6.50594" width="250" style="fill: #33f9a6"/>
    <rect x="0"  y="24.6274" height="7.40182" width="250" style="fill: #2d7183"/>
    <rect x="0"  y="32.159" height="0.889702" width="250" style="fill: #a5d578"/>
    <rect x="0"  y="33.1723" height="0.160641" width="250" style="fill: #9e4b2d"/>
    <rect x="0"  y="33.4565" height="0.142105" width="250" style="fill: #6b441e"/>
    <rect x="0"  y="33.7283" height="7.74782" width="250" style="fill: #2411dc"/>
    <rect x="0"  y="41.6059" height="15.8602" width="250" style="fill: #709e11"/>
    <rect x="0"  y="57.5958" height="6.94462" width="250" style="fill: #1c7e1e"/>
    <rect x="0"  y="64.6702" height="13.5247" width="250" style="fill: #7acb6f"/>
    <rect x="0"  y="78.3185" height="0.53135" width="250" style="fill: #8cac0b"/>
    <rect x="0"  y="78.9796" height="1.70526" width="250" style="fill: #b2fc4c"/>
    <rect x="0"  y="80.8146" height="0.166819" width="250" style="fill: #8bc2ae"/>
    <rect x="0"  y="81.1111" height="0.228604" width="250" style="fill: #3baaab"/>
    <rect x="0"  y="81.4633" height="0.166819" width="250" style="fill: #9165cc"/>
    <rect x="0"  y="81.7599" height="8.92173" width="250" style="fill: #458e19"/>
    <rect x="0"  y="90.8114" height="9.90411" width="250" style="fill: #9cb89f"/>
    <rect x="0"  y="100.845" height="0.321281" width="250" style="fill: #51b135"/>
    <rect x="0"  y="101.296" height="2.354" width="250" style="fill: #f7091a"/>
    <rect x="0"  y="103.774" height="3.20045" width="250" style="fill: #5abb08"/>
    <rect x="0"  y="107.104" height="25.2391" width="250" style="fill: #74df3e"/>
    <rect x="0"  y="132.473" height="12.1469" width="250" style="fill: #8cb454"/>
    <rect x="0"  y="144.75" height="12.7524" width="250" style="fill: #3a5eb9"/>
    <rect x="0"  y="157.632" height="18.0844" width="250" style="fill: #3b0441"/>
    <rect x="0"  y="175.84" height="3.26224" width="250" style="fill: #e9ca4c"/>
    <rect x="0"  y="179.232" height="2.77414" width="250" style="fill: #2b0fb3"/>
    <rect x="0"  y="182.136" height="0.160641" width="250" style="fill: #d30875"/>
    <rect x="0"  y="182.426" height="5.86956" width="250" style="fill: #cbf29a"/>
    <rect x="0"  y="188.425" height="17.343" width="250" style="fill: #bd5b1a"/>
    <rect x="0"  y="205.892" height="0.364531" width="250" style="fill: #cf3898"/>
    <rect x="0"  y="206.386" height="2.92242" width="250" style="fill: #4b35ae"/>
    <rect x="0"  y="209.432" height="6.99404" width="250" style="fill: #882809"/>
    <rect x="0"  y="216.556" height="3.24988" width="250" style="fill: #dd4cfe"/>
    <rect x="0"  y="219.935" height="1.92151" width="250" style="fill: #7abc5c"/>
    <rect x="0"  y="221.987" height="4.17666" width="250" style="fill: #61baa5"/>
    <rect x="0"  y="226.287" height="10.0956" width="250" style="fill: #2e053b"/>
    <rect x="0"  y="236.512" height="1.27277" width="250" style="fill: #4c3643"/>
    <rect x="0"  y="237.909" height="6.6048" width="250" style="fill: #f204ef"/>
    <rect x="0"  y="244.643" height="9.54576" width="250" style="fill: #259d2e"/>
    <rect x="0"  y="254.313" height="1.13684" width="250" style="fill: #98042a"/>
    <rect x="0"  y="255.573" height="2.09451" width="250" style="fill: #948aac"/>
    <rect x="0"  y="257.797" height="4.10869" width="250" style="fill: #5e884c"/>
    <rect x="0"  y="262.036" height="4.0778" width="250" style="fill: #b3ec7d"/>
    <rect x="0"  y="266.243" height="0.290389" width="250" style="fill: #b92564"/>
    <rect x="0"  y="266.663" height="2.47757" width="250" style="fill: #3fd34f"/>
    <rect x="0"  y="269.271" height="6.43798" width="250" style="fill: #dd467e"/>
    <rect x="0"  y="275.838" height="5.49885" width="250" style="fill: #2cca40"/>
    <rect x="0"  y="281.467" height="0.179176" width="250" style="fill: #6035cb"/>
    <rect x="0"  y="281.77" height="3.37345" width="250" style="fill: #2744cb"/>
    <rect x="0"  y="285.273" height="1.03181" width="250" style="fill: #90a63e"/>
    <rect x="0"  y="286.435" height="7.27208" width="250" style="fill: #51c973"/>
    <rect x="0"  y="293.83" height="10.9853" width="250" style="fill: #790334"/>
    <rect x="0"  y="304.945" height="0.741418" width="250" style="fill: #3947e0"/>
    <rect x="0"  y="305.816" height="5.59771" width="250" style="fill: #208654"/>
    <rect x="0"  y="311.544" height="16.7869" width="250" style="fill: #1e4c48"/>
    <rect x="0"  y="328.454" height="4.81304" width="250" style="fill: #a99630"/>
    <rect x="0"  y="333.397" height="1.14302" width="250" style="fill: #aa9aec"/>
    <rect x="0"  y="334.67" height="30.9357" width="250" style="fill: #e15384"/>
    <rect x="0"  y="365.729" height="5.48649" width="250" style="fill: #3a4b19"/>
    <rect x="0"  y="371.345" height="0.53135" width="250" style="fill: #0274eb"/>
    <rect x="0"  y="372.007" height="0.543707" width="250" style="fill: #c955f8"/>
    <rect x="0"  y="372.674" height="0.994736" width="250" style="fill: #592e30"/>
    <rect x="0"  y="373.798" height="1.83501" width="250" style="fill: #a2205a"/>
    <rect x="0"  y="375.763" height="3.82448" width="250" style="fill: #485846"/>
    <rect x="0"  y="379.717" height="4.26933" width="250" style="fill: #248987"/>
    <rect x="0"  y="384.116" height="1.07506" width="250" style="fill: #550aaf"/>
    <rect x="0"  y="385.315" height="10.5776" width="250" style="fill: #2094ec"/>
    <rect x="0"  y="396.022" height="0.148284" width="250" style="fill: #59e793"/>
    <rect x="0"  y="396.294" height="0.185355" width="250" style="fill: #1dc650"/>
    <rect x="0"  y="396.609" height="3.67002" width="250" style="fill: #c7451c"/>
    <rect x="0"  y="400.403" height="16.9908" width="250" style="fill: #c61c0c"/>
    <rect x="0"  y="417.523" height="1.00709" width="250" style="fill: #b2c46a"/>
    <rect x="0"  y="418.66" height="0.228604" width="250" style="fill: #1b3f2c"/>
    <rect x="0"  y="419.019" height="0.500457" width="250" style="fill: #349faf"/>
    <rect x="0"  y="419.643" height="0.914416" width="250" style="fill: #f763c7"/>
    <rect x="0"  y="420.681" height="0.228604" width="250" style="fill: #f8d14d"/>
    <rect x="0"  y="421.039" height="2.0389" width="250" style="fill: #dff946"/>
    <rect x="0"  y="423.201" height="3.61441" width="250" style="fill: #351744"/>
    <rect x="0"  y="426.946" height="1.04416" width="250" style="fill: #378d62"/>
    <rect x="0"  y="428.12" height="0.920594" width="250" style="fill: #c59285"/>
    <rect x="0"  y="429.17" height="4.50411" width="250" style="fill: #a8d791"/>
    <rect x="0"  y="433.804" height="6.71601" width="250" style="fill: #5614f5"/>
    <rect x="0"  y="440.649" height="14.3032" width="250" style="fill: #a2ac9e"/>
    <rect x="0"  y="455.082" height="0.197711" width="250" style="fill: #0d68ac"/>
    <rect x="0"  y="455.404" height="1.50755" width="250" style="fill: #a6248a"/>
    <rect x="0"  y="457.041" height="9.68168" width="250" style="fill: #9227ab"/>
    <rect x="0"  y="466.846" height="4.85629" width="250" style="fill: #8f1930"/>
    <rect x="0"  y="471.838" height="0.809381" width="250" style="fill: #ee38ac"/>
    <rect x="0"  y="472.771" height="6.64187" width="250" style="fill: #7a9d23"/>
    <rect x="0"  y="479.543" height="12.7771" width="250" style="fill: #9c9b02"/>
    <rect x="0"  y="492.45" height="1.89679" width="250" style="fill: #6a481e"/>
    <rect x="0"  y="494.47" height="5.08489" width="250" style="fill: #49d531"/>
    <rect x="0"  y="499.685" height="0.308924" width="250" style="fill: #61f9a9"/>
</svg>
</svg>
