<svg  xmlns="http://www.w3.org/2000/svg" xmlns:xlink="http://www.w3.org/1999/xlink" x="0" y="0" width="600" height="600">
<rect x="0%" y="0%" height="100%" width="100%" style="fill: #ffffff"/>
<svg x="0" y="0">
  <text fill="dark" font-size="35" transform="translate(250, 30)">cores</text>
</svg>
<svg x="0" y="0"> 
  <text fill="dark" font-size="35" transform="translate(30, 300) rotate(270)">time</text>
</svg>
<svg x = "50" y="550">
  <text fill="blue" font-size="30" transform="translate(0, 35)">t = 8s, lb = 0.205172</text>
</svg>
<svg x="50" y="50" width="500" height="500" >
  <rect x="0%" y="0%" height="100%" width="100%" style="fill: #eeeeee"/>
    <rect x="0"  y="1.28018" height="12.375" width="12.5" style="fill: #dab2b3"/>
    <rect x="12.5"  y="1.21921" height="15.6669" width="12.5" style="fill: #6c248b"/>
    <rect x="25"  y="1.21921" height="52.5482" width="12.5" style="fill: #87d6ae"/>
    <rect x="37.5"  y="1.21921" height="68.0931" width="12.5" style="fill: #33f9a6"/>
    <rect x="50"  y="1.21921" height="23.9576" width="12.5" style="fill: #2d7183"/>
    <rect x="62.5"  y="1.21921" height="119.788" width="12.5" style="fill: #a5d578"/>
    <rect x="75"  y="1.21921" height="10.3633" width="12.5" style="fill: #9e4b2d"/>
    <rect x="87.5"  y="1.21921" height="24.6891" width="12.5" style="fill: #6b441e"/>
    <rect x="100"  y="1.21921" height="22.2507" width="12.5" style="fill: #2411dc"/>
    <rect x="112.5"  y="1.21921" height="159.717" width="12.5" style="fill: #709e11"/>
    <rect x="125"  y="1.21921" height="112.229" width="12.5" style="fill: #1c7e1e"/>
    <rect x="137.5"  y="1.21921" height="127.225" width="12.5" style="fill: #7acb6f"/>
    <rect x="150"  y="1.28018" height="13.2894" width="12.5" style="fill: #8cac0b"/>
    <rect x="162.5"  y="1.21921" height="21.0924" width="12.5" style="fill: #b2fc4c"/>
    <rect x="175"  y="1.21921" height="22.3116" width="12.5" style="fill: #8bc2ae"/>
    <rect x="187.5"  y="1.21921" height="69.3124" width="12.5" style="fill: #3baaab"/>
    <rect x="200"  y="1.21921" height="24.6281" width="12.5" style="fill: #9165cc"/>
    <rect x="212.5"  y="1.21921" height="35.9668" width="12.5" style="fill: #458e19"/>
    <rect x="225"  y="1.21921" height="130.639" width="12.5" style="fill: #9cb89f"/>
    <rect x="237.5"  y="1.21921" height="26.1522" width="12.5" style="fill: #51b135"/>
    <rect x="250"  y="1.21921" height="4.26725" width="12.5" style="fill: #f7091a"/>
    <rect x="262.5"  y="1.21921" height="187.637" width="12.5" style="fill: #5abb08"/>
    <rect x="275"  y="1.28018" height="216.594" width="12.5" style="fill: #74df3e"/>
    <rect x="287.5"  y="1.21921" height="60.2902" width="12.5" style="fill: #8cb454"/>
    <rect x="300"  y="1.21921" height="22.3116" width="12.5" style="fill: #3a5eb9"/>
    <rect x="312.5"  y="1.21921" height="74.1892" width="12.5" style="fill: #3b0441"/>
    <rect x="325"  y="1.21921" height="171.483" width="12.5" style="fill: #e9ca4c"/>
    <rect x="337.5"  y="1.21921" height="81.9922" width="12.5" style="fill: #2b0fb3"/>
    <rect x="350"  y="1.21921" height="17.1909" width="12.5" style="fill: #d30875"/>
    <rect x="362.5"  y="1.21921" height="179.164" width="12.5" style="fill: #cbf29a"/>
    <rect x="375"  y="1.21921" height="12.5579" width="12.5" style="fill: #bd5b1a"/>
    <rect x="387.5"  y="1.21921" height="79.5538" width="12.5" style="fill: #cf3898"/>
    <rect x="400"  y="1.21921" height="361.192" width="12.5" style="fill: #4b35ae"/>
    <rect x="412.5"  y="1.21921" height="32.9798" width="12.5" style="fill: #882809"/>
    <rect x="425"  y="1.21921" height="287.674" width="12.5" style="fill: #dd4cfe"/>
    <rect x="437.5"  y="1.21921" height="119.544" width="12.5" style="fill: #7abc5c"/>
    <rect x="450"  y="1.21921" height="4.08437" width="12.5" style="fill: #61baa5"/>
    <rect x="462.5"  y="1.21921" height="47.6103" width="12.5" style="fill: #2e053b"/>
    <rect x="475"  y="1.21921" height="21.0924" width="12.5" style="fill: #4c3643"/>
    <rect x="450"  y="6.58376" height="493.416" width="12.5" style="fill: #f204ef"/>
    <rect x="250"  y="6.76664" height="15.7888" width="12.5" style="fill: #259d2e"/>
    <rect x="75"  y="12.8627" height="29.6269" width="12.5" style="fill: #98042a"/>
    <rect x="0"  y="14.8744" height="346.745" width="12.5" style="fill: #948aac"/>
    <rect x="375"  y="15.0573" height="14.021" width="12.5" style="fill: #5e884c"/>
    <rect x="150"  y="15.7888" height="27.5543" width="12.5" style="fill: #b3ec7d"/>
</svg>
</svg>
