<svg  xmlns="http://www.w3.org/2000/svg" xmlns:xlink="http://www.w3.org/1999/xlink" x="0" y="0" width="600" height="600">
<rect x="0%" y="0%" height="100%" width="100%" style="fill: #ffffff"/>
<svg x="0" y="0">
  <text fill="dark" font-size="35" transform="translate(250, 30)">cores</text>
</svg>
<svg x="0" y="0"> 
  <text fill="dark" font-size="35" transform="translate(30, 300) rotate(270)">time</text>
</svg>
<svg x = "50" y="550">
  <text fill="blue" font-size="30" transform="translate(0, 35)">t = 8s, lb = 0.204356</text>
</svg>
<svg x="50" y="50" width="500" height="500" >
  <rect x="0%" y="0%" height="100%" width="100%" style="fill: #eeeeee"/>
    <rect x="0"  y="1.20467" height="13.1912" width="12.5" style="fill: #ab2b36"/>
    <rect x="12.5"  y="1.20467" height="18.1906" width="12.5" style="fill: #c248b8"/>
    <rect x="25"  y="1.20467" height="52.1022" width="12.5" style="fill: #7d6ae3"/>
    <rect x="37.5"  y="1.20467" height="66.9799" width="12.5" style="fill: #3f9a62"/>
    <rect x="50"  y="1.20467" height="23.8525" width="12.5" style="fill: #d7183a"/>
    <rect x="62.5"  y="1.20467" height="119.805" width="12.5" style="fill: #5d5789"/>
    <rect x="75"  y="1.20467" height="10.1193" width="12.5" style="fill: #e4b2d6"/>
    <rect x="87.5"  y="1.20467" height="24.4549" width="12.5" style="fill: #b441e2"/>
    <rect x="100"  y="1.20467" height="23.7321" width="12.5" style="fill: #411dc7"/>
    <rect x="112.5"  y="1.20467" height="158.475" width="12.5" style="fill: #09e111"/>
    <rect x="125"  y="1.20467" height="111.673" width="12.5" style="fill: #c7e1e7"/>
    <rect x="137.5"  y="1.20467" height="125.828" width="12.5" style="fill: #acb6f8"/>
    <rect x="150"  y="1.20467" height="12.8298" width="12.5" style="fill: #cac0bb"/>
    <rect x="162.5"  y="1.20467" height="20.7204" width="12.5" style="fill: #2fc4c8"/>
    <rect x="175"  y="1.20467" height="21.8648" width="12.5" style="fill: #bc2ae3"/>
    <rect x="187.5"  y="1.20467" height="69.9313" width="12.5" style="fill: #baaab9"/>
    <rect x="200"  y="1.20467" height="25.8403" width="12.5" style="fill: #165cc4"/>
    <rect x="212.5"  y="1.20467" height="35.2367" width="12.5" style="fill: #58e199"/>
    <rect x="225"  y="1.20467" height="127.575" width="12.5" style="fill: #cb89f5"/>
    <rect x="237.5"  y="1.20467" height="25.5993" width="12.5" style="fill: #1b135f"/>
    <rect x="250"  y="1.20467" height="4.15613" width="12.5" style="fill: #7091a5"/>
    <rect x="262.5"  y="1.20467" height="186.423" width="12.5" style="fill: #abb087"/>
    <rect x="275"  y="1.20467" height="220.094" width="12.5" style="fill: #4df3e8"/>
    <rect x="287.5"  y="1.20467" height="59.2097" width="12.5" style="fill: #cb4543"/>
    <rect x="300"  y="1.20467" height="21.7444" width="12.5" style="fill: #a5eb93"/>
    <rect x="312.5"  y="1.20467" height="73.0635" width="12.5" style="fill: #b0441e"/>
    <rect x="325"  y="1.20467" height="172.389" width="12.5" style="fill: #9ca4c2"/>
    <rect x="337.5"  y="1.20467" height="82.0383" width="12.5" style="fill: #b0fb3d"/>
    <rect x="350"  y="1.20467" height="16.8654" width="12.5" style="fill: #30875c"/>
    <rect x="362.5"  y="1.20467" height="176.906" width="12.5" style="fill: #bf29ab"/>
    <rect x="375"  y="1.20467" height="12.0467" width="12.5" style="fill: #d5b1ac"/>
    <rect x="387.5"  y="1.20467" height="78.1231" width="12.5" style="fill: #f38984"/>
    <rect x="400"  y="1.20467" height="356.343" width="12.5" style="fill: #b35ae8"/>
    <rect x="412.5"  y="1.20467" height="31.8034" width="12.5" style="fill: #82809d"/>
    <rect x="425"  y="1.20467" height="285.146" width="12.5" style="fill: #d4cfe7"/>
    <rect x="437.5"  y="1.20467" height="120.226" width="12.5" style="fill: #abc5c6"/>
    <rect x="450"  y="1.20467" height="3.91519" width="12.5" style="fill: #1baa52"/>
    <rect x="462.5"  y="1.20467" height="46.2595" width="12.5" style="fill: #e053b4"/>
    <rect x="475"  y="1.20467" height="20.5999" width="12.5" style="fill: #c3643f"/>
    <rect x="450"  y="6.38477" height="493.615" width="12.5" style="fill: #204ef2"/>
    <rect x="250"  y="6.56547" height="15.3596" width="12.5" style="fill: #59d2e9"/>
    <rect x="75"  y="12.5888" height="29.8759" width="12.5" style="fill: #8042a9"/>
    <rect x="375"  y="14.5163" height="346.344" width="12.5" style="fill: #48aac5"/>
    <rect x="150"  y="15.2391" height="16.5643" width="12.5" style="fill: #e884cb"/>
    <rect x="0"  y="15.6608" height="27.828" width="12.5" style="fill: #3ec7db"/>
</svg>
</svg>
