<svg  xmlns="http://www.w3.org/2000/svg" xmlns:xlink="http://www.w3.org/1999/xlink" x="0" y="0" width="600" height="600">
<rect x="0%" y="0%" height="100%" width="100%" style="fill: #ffffff"/>
<svg x="0" y="0">
  <text fill="dark" font-size="35" transform="translate(250, 30)">cores</text>
</svg>
<svg x="0" y="0"> 
  <text fill="dark" font-size="35" transform="translate(30, 300) rotate(270)">time</text>
</svg>
<svg x = "50" y="550">
  <text fill="blue" font-size="30" transform="translate(0, 35)">t = 6s, lb = 0.347960</text>
</svg>
<svg x="50" y="50" width="500" height="500" >
  <rect x="0%" y="0%" height="100%" width="100%" style="fill: #eeeeee"/>
    <rect x="0"  y="1.64551" height="25.7013" width="12.5" style="fill: #dab2b3"/>
    <rect x="12.5"  y="1.64551" height="28.6005" width="12.5" style="fill: #6c248b"/>
    <rect x="25"  y="1.64551" height="29.6975" width="12.5" style="fill: #87d6ae"/>
    <rect x="37.5"  y="1.64551" height="366.087" width="12.5" style="fill: #33f9a6"/>
    <rect x="50"  y="1.64551" height="183.749" width="12.5" style="fill: #2d7183"/>
    <rect x="62.5"  y="1.64551" height="4.6231" width="12.5" style="fill: #a5d578"/>
    <rect x="75"  y="1.64551" height="158.282" width="12.5" style="fill: #9e4b2d"/>
    <rect x="87.5"  y="1.64551" height="5.72011" width="12.5" style="fill: #6b441e"/>
    <rect x="100"  y="1.64551" height="47.9549" width="12.5" style="fill: #2411dc"/>
    <rect x="112.5"  y="1.64551" height="18.7275" width="12.5" style="fill: #709e11"/>
    <rect x="125"  y="1.64551" height="28.6005" width="12.5" style="fill: #1c7e1e"/>
    <rect x="137.5"  y="1.64551" height="77.0255" width="12.5" style="fill: #7acb6f"/>
    <rect x="150"  y="1.64551" height="70.8353" width="12.5" style="fill: #8cac0b"/>
    <rect x="162.5"  y="1.64551" height="84.7046" width="12.5" style="fill: #b2fc4c"/>
    <rect x="175"  y="1.64551" height="39.3355" width="12.5" style="fill: #8bc2ae"/>
    <rect x="187.5"  y="1.64551" height="31.4998" width="12.5" style="fill: #3baaab"/>
    <rect x="200"  y="1.64551" height="31.343" width="12.5" style="fill: #9165cc"/>
    <rect x="212.5"  y="1.64551" height="223.241" width="12.5" style="fill: #458e19"/>
    <rect x="225"  y="1.64551" height="38.1602" width="12.5" style="fill: #9cb89f"/>
    <rect x="237.5"  y="1.64551" height="113.697" width="12.5" style="fill: #51b135"/>
    <rect x="250"  y="1.64551" height="121.298" width="12.5" style="fill: #f7091a"/>
    <rect x="262.5"  y="1.64551" height="23.4289" width="12.5" style="fill: #5abb08"/>
    <rect x="275"  y="1.64551" height="65.8988" width="12.5" style="fill: #74df3e"/>
    <rect x="287.5"  y="1.64551" height="27.7386" width="12.5" style="fill: #8cb454"/>
    <rect x="300"  y="1.64551" height="37.5333" width="12.5" style="fill: #3a5eb9"/>
    <rect x="312.5"  y="1.64551" height="498.433" width="12.5" style="fill: #3b0441"/>
    <rect x="325"  y="1.64551" height="13.5559" width="12.5" style="fill: #e9ca4c"/>
    <rect x="337.5"  y="1.64551" height="43.8019" width="12.5" style="fill: #2b0fb3"/>
    <rect x="350"  y="1.64551" height="29.3058" width="12.5" style="fill: #d30875"/>
    <rect x="362.5"  y="1.64551" height="5.48503" width="12.5" style="fill: #cbf29a"/>
    <rect x="375"  y="1.64551" height="72.7159" width="12.5" style="fill: #bd5b1a"/>
    <rect x="387.5"  y="1.64551" height="185.394" width="12.5" style="fill: #cf3898"/>
    <rect x="400"  y="1.64551" height="17.7088" width="12.5" style="fill: #4b35ae"/>
    <rect x="412.5"  y="1.64551" height="23.5856" width="12.5" style="fill: #882809"/>
    <rect x="425"  y="1.64551" height="52.7347" width="12.5" style="fill: #dd4cfe"/>
    <rect x="437.5"  y="1.64551" height="4.77982" width="12.5" style="fill: #7abc5c"/>
    <rect x="450"  y="1.64551" height="81.6486" width="12.5" style="fill: #61baa5"/>
    <rect x="462.5"  y="1.64551" height="25.7797" width="12.5" style="fill: #2e053b"/>
    <rect x="475"  y="1.64551" height="276.054" width="12.5" style="fill: #4c3643"/>
    <rect x="62.5"  y="7.91412" height="267.591" width="12.5" style="fill: #f204ef"/>
    <rect x="437.5"  y="8.07084" height="57.8279" width="12.5" style="fill: #259d2e"/>
    <rect x="362.5"  y="7.91412" height="56.3391" width="12.5" style="fill: #98042a"/>
    <rect x="87.5"  y="8.14919" height="20.9215" width="12.5" style="fill: #948aac"/>
    <rect x="325"  y="16.7685" height="26.955" width="12.5" style="fill: #5e884c"/>
    <rect x="400"  y="20.1379" height="46.0743" width="12.5" style="fill: #b3ec7d"/>
    <rect x="112.5"  y="21.1566" height="31.4214" width="12.5" style="fill: #b92564"/>
    <rect x="262.5"  y="26.6416" height="51.6377" width="12.5" style="fill: #3fd34f"/>
    <rect x="412.5"  y="26.0931" height="136.656" width="12.5" style="fill: #dd467e"/>
    <rect x="0"  y="28.914" height="20.2946" width="12.5" style="fill: #2cca40"/>
    <rect x="462.5"  y="28.2087" height="18.0223" width="12.5" style="fill: #6035cb"/>
    <rect x="87.5"  y="30.7162" height="25.9364" width="12.5" style="fill: #2744cb"/>
    <rect x="287.5"  y="31.0296" height="35.1826" width="12.5" style="fill: #90a63e"/>
    <rect x="12.5"  y="31.8132" height="123.648" width="12.5" style="fill: #51c973"/>
    <rect x="125"  y="31.0296" height="33.0669" width="12.5" style="fill: #790334"/>
    <rect x="350"  y="31.7348" height="156.167" width="12.5" style="fill: #3947e0"/>
    <rect x="25"  y="32.9886" height="15.6715" width="12.5" style="fill: #208654"/>
    <rect x="200"  y="34.5557" height="189.234" width="12.5" style="fill: #1e4c48"/>
    <rect x="187.5"  y="34.7124" height="4.30967" width="12.5" style="fill: #a99630"/>
    <rect x="187.5"  y="40.6676" height="14.3394" width="12.5" style="fill: #aa9aec"/>
    <rect x="300"  y="39.9624" height="77.9658" width="12.5" style="fill: #e15384"/>
    <rect x="225"  y="40.5892" height="50.1489" width="12.5" style="fill: #3a4b19"/>
    <rect x="175"  y="42.6265" height="73.4211" width="12.5" style="fill: #0274eb"/>
    <rect x="325"  y="45.3691" height="47.9549" width="12.5" style="fill: #c955f8"/>
    <rect x="337.5"  y="46.231" height="33.9289" width="12.5" style="fill: #592e30"/>
    <rect x="462.5"  y="47.0146" height="5.32832" width="12.5" style="fill: #a2205a"/>
    <rect x="25"  y="50.2272" height="28.6005" width="12.5" style="fill: #485846"/>
    <rect x="0"  y="50.8541" height="30.7162" width="12.5" style="fill: #248987"/>
    <rect x="100"  y="51.2459" height="72.0107" width="12.5" style="fill: #550aaf"/>
    <rect x="462.5"  y="53.1265" height="54.9287" width="12.5" style="fill: #2094ec"/>
    <rect x="112.5"  y="53.4399" height="101.238" width="12.5" style="fill: #59e793"/>
    <rect x="425"  y="55.1638" height="66.0555" width="12.5" style="fill: #1dc650"/>
    <rect x="187.5"  y="55.869" height="182.495" width="12.5" style="fill: #c7451c"/>
    <rect x="87.5"  y="58.2981" height="19.0409" width="12.5" style="fill: #c61c0c"/>
    <rect x="125"  y="65.742" height="34.399" width="12.5" style="fill: #b2c46a"/>
    <rect x="362.5"  y="65.1152" height="229.901" width="12.5" style="fill: #1b3f2c"/>
    <rect x="437.5"  y="67.5443" height="18.0223" width="12.5" style="fill: #349faf"/>
    <rect x="287.5"  y="66.9958" height="255.759" width="12.5" style="fill: #f763c7"/>
    <rect x="400"  y="67.0741" height="12.6156" width="12.5" style="fill: #f8d14d"/>
    <rect x="275"  y="68.3278" height="374.158" width="12.5" style="fill: #dff946"/>
    <rect x="150"  y="74.048" height="132.346" width="12.5" style="fill: #351744"/>
    <rect x="375"  y="76.0069" height="217.286" width="12.5" style="fill: #378d62"/>
    <rect x="87.5"  y="78.9061" height="30.9513" width="12.5" style="fill: #c59285"/>
    <rect x="262.5"  y="79.9248" height="36.1229" width="12.5" style="fill: #a8d791"/>
    <rect x="137.5"  y="79.4546" height="49.8354" width="12.5" style="fill: #5614f5"/>
    <rect x="25"  y="79.6897" height="4.23131" width="12.5" style="fill: #a2ac9e"/>
</svg>
</svg>
