<svg  xmlns="http://www.w3.org/2000/svg" xmlns:xlink="http://www.w3.org/1999/xlink" x="0" y="0" width="600" height="600">
<rect x="0%" y="0%" height="100%" width="100%" style="fill: #ffffff"/>
<svg x="0" y="0">
  <text fill="dark" font-size="35" transform="translate(250, 30)">cores</text>
</svg>
<svg x="0" y="0"> 
  <text fill="dark" font-size="35" transform="translate(30, 300) rotate(270)">time</text>
</svg>
<svg x = "50" y="550">
  <text fill="blue" font-size="30" transform="translate(0, 35)">t = 0s, lb = 0.644042</text>
</svg>
<svg x="50" y="50" width="500" height="500" >
  <rect x="0%" y="0%" height="100%" width="100%" style="fill: #eeeeee"/>
    <rect x="0"  y="88.2353" height="117.647" width="12.5" style="fill: #ab2b36"/>
    <rect x="237.5"  y="58.8235" height="176.471" width="12.5" style="fill: #c248b8"/>
    <rect x="112.5"  y="88.2353" height="88.2353" width="12.5" style="fill: #7d6ae3"/>
    <rect x="50"  y="88.2353" height="88.2353" width="12.5" style="fill: #3f9a62"/>
    <rect x="25"  y="88.2353" height="58.8235" width="12.5" style="fill: #d7183a"/>
    <rect x="12.5"  y="88.2353" height="58.8235" width="12.5" style="fill: #5d5789"/>
    <rect x="362.5"  y="58.8235" height="176.471" width="12.5" style="fill: #e4b2d6"/>
    <rect x="300"  y="58.8235" height="235.294" width="12.5" style="fill: #b441e2"/>
    <rect x="262.5"  y="58.8235" height="176.471" width="12.5" style="fill: #411dc7"/>
    <rect x="250"  y="58.8235" height="264.706" width="12.5" style="fill: #09e111"/>
    <rect x="175"  y="58.8235" height="176.471" width="12.5" style="fill: #c7e1e7"/>
    <rect x="137.5"  y="88.2353" height="235.294" width="12.5" style="fill: #acb6f8"/>
    <rect x="125"  y="88.2353" height="205.882" width="12.5" style="fill: #cac0bb"/>
    <rect x="75"  y="88.2353" height="117.647" width="12.5" style="fill: #2fc4c8"/>
    <rect x="62.5"  y="88.2353" height="58.8235" width="12.5" style="fill: #bc2ae3"/>
    <rect x="37.5"  y="88.2353" height="205.882" width="12.5" style="fill: #baaab9"/>
    <rect x="425"  y="88.2353" height="176.471" width="12.5" style="fill: #165cc4"/>
    <rect x="387.5"  y="58.8235" height="176.471" width="12.5" style="fill: #58e199"/>
    <rect x="375"  y="58.8235" height="294.118" width="12.5" style="fill: #cb89f5"/>
    <rect x="325"  y="58.8235" height="205.882" width="12.5" style="fill: #1b135f"/>
    <rect x="312.5"  y="58.8235" height="176.471" width="12.5" style="fill: #7091a5"/>
    <rect x="275"  y="58.8235" height="147.059" width="12.5" style="fill: #abb087"/>
    <rect x="200"  y="58.8235" height="117.647" width="12.5" style="fill: #4df3e8"/>
    <rect x="187.5"  y="58.8235" height="117.647" width="12.5" style="fill: #cb4543"/>
    <rect x="150"  y="88.2353" height="117.647" width="12.5" style="fill: #a5eb93"/>
    <rect x="87.5"  y="88.2353" height="205.882" width="12.5" style="fill: #b0441e"/>
    <rect x="450"  y="58.8235" height="147.059" width="12.5" style="fill: #9ca4c2"/>
    <rect x="437.5"  y="58.8235" height="147.059" width="12.5" style="fill: #b0fb3d"/>
    <rect x="400"  y="58.8235" height="235.294" width="12.5" style="fill: #30875c"/>
    <rect x="337.5"  y="58.8235" height="117.647" width="12.5" style="fill: #bf29ab"/>
    <rect x="287.5"  y="58.8235" height="205.882" width="12.5" style="fill: #d5b1ac"/>
    <rect x="212.5"  y="58.8235" height="117.647" width="12.5" style="fill: #f38984"/>
    <rect x="162.5"  y="88.2353" height="235.294" width="12.5" style="fill: #b35ae8"/>
    <rect x="100"  y="88.2353" height="235.294" width="12.5" style="fill: #82809d"/>
    <rect x="462.5"  y="58.8235" height="176.471" width="12.5" style="fill: #d4cfe7"/>
    <rect x="412.5"  y="58.8235" height="205.882" width="12.5" style="fill: #abc5c6"/>
    <rect x="350"  y="58.8235" height="117.647" width="12.5" style="fill: #1baa52"/>
    <rect x="225"  y="58.8235" height="147.059" width="12.5" style="fill: #e053b4"/>
    <rect x="475"  y="58.8235" height="117.647" width="12.5" style="fill: #c3643f"/>
    <rect x="25"  y="176.471" height="176.471" width="12.5" style="fill: #204ef2"/>
    <rect x="12.5"  y="176.471" height="88.2353" width="12.5" style="fill: #59d2e9"/>
    <rect x="62.5"  y="176.471" height="117.647" width="12.5" style="fill: #8042a9"/>
    <rect x="50"  y="205.882" height="147.059" width="12.5" style="fill: #48aac5"/>
    <rect x="112.5"  y="205.882" height="117.647" width="12.5" style="fill: #e884cb"/>
    <rect x="200"  y="205.882" height="29.4118" width="12.5" style="fill: #3ec7db"/>
    <rect x="75"  y="205.882" height="88.2353" width="12.5" style="fill: #925643"/>
    <rect x="187.5"  y="205.882" height="147.059" width="12.5" style="fill: #fd34fd"/>
    <rect x="0"  y="235.294" height="88.2353" width="12.5" style="fill: #d467e2"/>
    <rect x="150"  y="205.882" height="205.882" width="12.5" style="fill: #cca406"/>
    <rect x="212.5"  y="205.882" height="205.882" width="12.5" style="fill: #035cb2"/>
    <rect x="337.5"  y="205.882" height="117.647" width="12.5" style="fill: #744cb9"/>
    <rect x="350"  y="205.882" height="117.647" width="12.5" style="fill: #0a63e5"/>
    <rect x="475"  y="205.882" height="117.647" width="12.5" style="fill: #1c9737"/>
    <rect x="437.5"  y="205.882" height="117.647" width="12.5" style="fill: #903343"/>
    <rect x="275"  y="235.294" height="117.647" width="12.5" style="fill: #947e02"/>
    <rect x="225"  y="235.294" height="117.647" width="12.5" style="fill: #086541"/>
    <rect x="450"  y="205.882" height="117.647" width="12.5" style="fill: #e4c48a"/>
    <rect x="200"  y="235.294" height="117.647" width="12.5" style="fill: #99630a"/>
    <rect x="425"  y="264.706" height="88.2353" width="12.5" style="fill: #a9aece"/>
    <rect x="312.5"  y="235.294" height="88.2353" width="12.5" style="fill: #153843"/>
    <rect x="12.5"  y="264.706" height="117.647" width="12.5" style="fill: #a4b190"/>
    <rect x="462.5"  y="235.294" height="88.2353" width="12.5" style="fill: #274ebc"/>
    <rect x="237.5"  y="264.706" height="88.2353" width="12.5" style="fill: #955f85"/>
    <rect x="262.5"  y="264.706" height="88.2353" width="12.5" style="fill: #92e30a"/>
    <rect x="387.5"  y="264.706" height="147.059" width="12.5" style="fill: #2205a4"/>
    <rect x="362.5"  y="264.706" height="58.8235" width="12.5" style="fill: #858462"/>
    <rect x="175"  y="264.706" height="117.647" width="12.5" style="fill: #489875"/>
    <rect x="37.5"  y="294.118" height="117.647" width="12.5" style="fill: #50aaf2"/>
    <rect x="125"  y="294.118" height="117.647" width="12.5" style="fill: #094ec5"/>
    <rect x="62.5"  y="294.118" height="117.647" width="12.5" style="fill: #9e7931"/>
    <rect x="412.5"  y="264.706" height="117.647" width="12.5" style="fill: #dc650c"/>
    <rect x="325"  y="294.118" height="117.647" width="12.5" style="fill: #7451cc"/>
    <rect x="87.5"  y="323.529" height="117.647" width="12.5" style="fill: #61c0cb"/>
    <rect x="287.5"  y="294.118" height="88.2353" width="12.5" style="fill: #2c46a1"/>
    <rect x="75"  y="323.529" height="88.2353" width="12.5" style="fill: #b3f2c3"/>
    <rect x="100"  y="323.529" height="117.647" width="12.5" style="fill: #49faff"/>
    <rect x="137.5"  y="323.529" height="88.2353" width="12.5" style="fill: #763c7f"/>
    <rect x="300"  y="294.118" height="88.2353" width="12.5" style="fill: #8d14dd"/>
    <rect x="112.5"  y="323.529" height="88.2353" width="12.5" style="fill: #ff9463"/>
    <rect x="400"  y="294.118" height="117.647" width="12.5" style="fill: #517443"/>
    <rect x="162.5"  y="323.529" height="117.647" width="12.5" style="fill: #78d62c"/>
    <rect x="0"  y="352.941" height="88.2353" width="12.5" style="fill: #59285a"/>
    <rect x="25"  y="352.941" height="58.8235" width="12.5" style="fill: #8d7915"/>
    <rect x="337.5"  y="352.941" height="58.8235" width="12.5" style="fill: #614f5a"/>
    <rect x="50"  y="382.353" height="58.8235" width="12.5" style="fill: #2ac9e0"/>
    <rect x="425"  y="382.353" height="88.2353" width="12.5" style="fill: #d68aca"/>
    <rect x="312.5"  y="352.941" height="58.8235" width="12.5" style="fill: #6248a9"/>
    <rect x="350"  y="352.941" height="58.8235" width="12.5" style="fill: #227ab8"/>
    <rect x="437.5"  y="352.941" height="58.8235" width="12.5" style="fill: #f1930e"/>
    <rect x="362.5"  y="352.941" height="88.2353" width="12.5" style="fill: #e38ac7"/>
    <rect x="225"  y="352.941" height="58.8235" width="12.5" style="fill: #a9d239"/>
    <rect x="237.5"  y="352.941" height="88.2353" width="12.5" style="fill: #c9b026"/>
    <rect x="250"  y="352.941" height="88.2353" width="12.5" style="fill: #a481e4"/>
    <rect x="262.5"  y="352.941" height="58.8235" width="12.5" style="fill: #9d5316"/>
    <rect x="187.5"  y="382.353" height="88.2353" width="12.5" style="fill: #1f9a95"/>
    <rect x="475"  y="352.941" height="147.059" width="12.5" style="fill: #13fe52"/>
    <rect x="450"  y="352.941" height="58.8235" width="12.5" style="fill: #71c32e"/>
    <rect x="275"  y="352.941" height="88.2353" width="12.5" style="fill: #9c21d1"/>
    <rect x="462.5"  y="352.941" height="88.2353" width="12.5" style="fill: #56eb9f"/>
    <rect x="200"  y="382.353" height="58.8235" width="12.5" style="fill: #1bea57"/>
</svg>
</svg>
