<svg  xmlns="http://www.w3.org/2000/svg" xmlns:xlink="http://www.w3.org/1999/xlink" x="0" y="0" width="600" height="600">
<rect x="0%" y="0%" height="100%" width="100%" style="fill: #ffffff"/>
<svg x="0" y="0">
  <text fill="dark" font-size="35" transform="translate(250, 30)">cores</text>
</svg>
<svg x="0" y="0"> 
  <text fill="dark" font-size="35" transform="translate(30, 300) rotate(270)">time</text>
</svg>
<svg x = "50" y="550">
  <text fill="blue" font-size="30" transform="translate(0, 35)">t = 0s, lb = 0.165042</text>
</svg>
<svg x="50" y="50" width="500" height="500" >
  <rect x="0%" y="0%" height="100%" width="100%" style="fill: #eeeeee"/>
    <rect x="0"  y="4.69484" height="293.427" width="12.5" style="fill: #dab2b3"/>
    <rect x="237.5"  y="4.69484" height="105.634" width="12.5" style="fill: #6c248b"/>
    <rect x="112.5"  y="4.69484" height="497.653" width="12.5" style="fill: #87d6ae"/>
    <rect x="50"  y="4.69484" height="56.338" width="12.5" style="fill: #33f9a6"/>
    <rect x="25"  y="4.69484" height="61.0329" width="12.5" style="fill: #2d7183"/>
    <rect x="12.5"  y="4.69484" height="18.7793" width="12.5" style="fill: #a5d578"/>
    <rect x="362.5"  y="2.34742" height="323.944" width="12.5" style="fill: #9e4b2d"/>
    <rect x="300"  y="4.69484" height="9.38967" width="12.5" style="fill: #6b441e"/>
    <rect x="262.5"  y="4.69484" height="30.5164" width="12.5" style="fill: #2411dc"/>
    <rect x="250"  y="4.69484" height="11.7371" width="12.5" style="fill: #709e11"/>
    <rect x="175"  y="4.69484" height="7.04225" width="12.5" style="fill: #1c7e1e"/>
    <rect x="137.5"  y="4.69484" height="44.6009" width="12.5" style="fill: #7acb6f"/>
    <rect x="125"  y="4.69484" height="53.9906" width="12.5" style="fill: #8cac0b"/>
    <rect x="75"  y="4.69484" height="49.2958" width="12.5" style="fill: #b2fc4c"/>
    <rect x="62.5"  y="4.69484" height="21.1268" width="12.5" style="fill: #8bc2ae"/>
    <rect x="37.5"  y="4.69484" height="9.38967" width="12.5" style="fill: #3baaab"/>
    <rect x="425"  y="2.34742" height="201.878" width="12.5" style="fill: #9165cc"/>
    <rect x="387.5"  y="2.34742" height="232.394" width="12.5" style="fill: #458e19"/>
    <rect x="375"  y="2.34742" height="25.8216" width="12.5" style="fill: #9cb89f"/>
    <rect x="325"  y="2.34742" height="30.5164" width="12.5" style="fill: #51b135"/>
    <rect x="312.5"  y="4.69484" height="112.676" width="12.5" style="fill: #f7091a"/>
    <rect x="275"  y="4.69484" height="14.0845" width="12.5" style="fill: #5abb08"/>
    <rect x="200"  y="4.69484" height="16.4319" width="12.5" style="fill: #74df3e"/>
    <rect x="187.5"  y="4.69484" height="9.38967" width="12.5" style="fill: #8cb454"/>
    <rect x="150"  y="4.69484" height="82.1596" width="12.5" style="fill: #3a5eb9"/>
    <rect x="87.5"  y="4.69484" height="150.235" width="12.5" style="fill: #3b0441"/>
    <rect x="450"  y="2.34742" height="30.5164" width="12.5" style="fill: #e9ca4c"/>
    <rect x="437.5"  y="2.34742" height="14.0845" width="12.5" style="fill: #2b0fb3"/>
    <rect x="400"  y="2.34742" height="197.183" width="12.5" style="fill: #d30875"/>
    <rect x="337.5"  y="2.34742" height="37.5587" width="12.5" style="fill: #cbf29a"/>
    <rect x="287.5"  y="4.69484" height="23.4742" width="12.5" style="fill: #bd5b1a"/>
    <rect x="212.5"  y="4.69484" height="61.0329" width="12.5" style="fill: #cf3898"/>
    <rect x="162.5"  y="4.69484" height="7.04225" width="12.5" style="fill: #4b35ae"/>
    <rect x="100"  y="4.69484" height="140.845" width="12.5" style="fill: #882809"/>
    <rect x="462.5"  y="2.34742" height="9.38967" width="12.5" style="fill: #dd4cfe"/>
    <rect x="412.5"  y="4.69484" height="14.0845" width="12.5" style="fill: #7abc5c"/>
    <rect x="350"  y="2.34742" height="28.169" width="12.5" style="fill: #61baa5"/>
    <rect x="225"  y="4.69484" height="9.38967" width="12.5" style="fill: #2e053b"/>
    <rect x="475"  y="2.34742" height="14.0845" width="12.5" style="fill: #4c3643"/>
    <rect x="162.5"  y="14.0845" height="21.1268" width="12.5" style="fill: #f204ef"/>
    <rect x="175"  y="14.0845" height="39.9061" width="12.5" style="fill: #259d2e"/>
    <rect x="300"  y="14.0845" height="14.0845" width="12.5" style="fill: #98042a"/>
    <rect x="37.5"  y="14.0845" height="7.04225" width="12.5" style="fill: #948aac"/>
    <rect x="187.5"  y="14.0845" height="25.8216" width="12.5" style="fill: #5e884c"/>
    <rect x="462.5"  y="14.0845" height="53.9906" width="12.5" style="fill: #b3ec7d"/>
</svg>
</svg>
