<svg  xmlns="http://www.w3.org/2000/svg" xmlns:xlink="http://www.w3.org/1999/xlink" x="0" y="0" width="600" height="600">
<rect x="0%" y="0%" height="100%" width="100%" style="fill: #ffffff"/>
<svg x="0" y="0">
  <text fill="dark" font-size="35" transform="translate(250, 30)">cores</text>
</svg>
<svg x="0" y="0"> 
  <text fill="dark" font-size="35" transform="translate(30, 300) rotate(270)">time</text>
</svg>
<svg x = "50" y="550">
  <text fill="blue" font-size="30" transform="translate(0, 35)">t = 42s, lb = 0.122241</text>
</svg>
<svg x="50" y="50" width="500" height="500" >
  <rect x="0%" y="0%" height="100%" width="100%" style="fill: #eeeeee"/>
    <rect x="0"  y="0.232677" height="10.645" width="12.5" style="fill: #dab2b3"/>
    <rect x="12.5"  y="0.232677" height="355.065" width="12.5" style="fill: #6c248b"/>
    <rect x="25"  y="0.244311" height="109.684" width="12.5" style="fill: #87d6ae"/>
    <rect x="37.5"  y="0.232677" height="3.51343" width="12.5" style="fill: #33f9a6"/>
    <rect x="50"  y="0.232677" height="100.761" width="12.5" style="fill: #2d7183"/>
    <rect x="62.5"  y="0.232677" height="10.168" width="12.5" style="fill: #a5d578"/>
    <rect x="75"  y="0.232677" height="11.3546" width="12.5" style="fill: #9e4b2d"/>
    <rect x="87.5"  y="0.232677" height="25.8155" width="12.5" style="fill: #6b441e"/>
    <rect x="100"  y="0.244311" height="3.61813" width="12.5" style="fill: #2411dc"/>
    <rect x="112.5"  y="0.232677" height="499.767" width="12.5" style="fill: #709e11"/>
    <rect x="125"  y="0.244311" height="213.539" width="12.5" style="fill: #1c7e1e"/>
    <rect x="137.5"  y="0.232677" height="5.2236" width="12.5" style="fill: #7acb6f"/>
    <rect x="150"  y="0.232677" height="8.77193" width="12.5" style="fill: #8cac0b"/>
    <rect x="162.5"  y="0.232677" height="76.8998" width="12.5" style="fill: #b2fc4c"/>
    <rect x="175"  y="0.232677" height="2.53618" width="12.5" style="fill: #8bc2ae"/>
    <rect x="187.5"  y="0.232677" height="8.94644" width="12.5" style="fill: #3baaab"/>
    <rect x="200"  y="0.232677" height="11.2848" width="12.5" style="fill: #9165cc"/>
    <rect x="212.5"  y="0.244311" height="14.6121" width="12.5" style="fill: #458e19"/>
    <rect x="225"  y="0.232677" height="1.97776" width="12.5" style="fill: #9cb89f"/>
    <rect x="237.5"  y="0.244311" height="2.40821" width="12.5" style="fill: #51b135"/>
    <rect x="250"  y="0.232677" height="19.9521" width="12.5" style="fill: #f7091a"/>
    <rect x="262.5"  y="0.232677" height="58.5067" width="12.5" style="fill: #5abb08"/>
    <rect x="275"  y="0.232677" height="62.1713" width="12.5" style="fill: #74df3e"/>
    <rect x="287.5"  y="0.232677" height="1.79161" width="12.5" style="fill: #8cb454"/>
    <rect x="300"  y="0.232677" height="1.97776" width="12.5" style="fill: #3a5eb9"/>
    <rect x="312.5"  y="0.232677" height="4.93276" width="12.5" style="fill: #3b0441"/>
    <rect x="325"  y="0.232677" height="4.68845" width="12.5" style="fill: #e9ca4c"/>
    <rect x="337.5"  y="0.232677" height="4.06022" width="12.5" style="fill: #2b0fb3"/>
    <rect x="350"  y="0.232677" height="22.3835" width="12.5" style="fill: #d30875"/>
    <rect x="362.5"  y="0.232677" height="227.791" width="12.5" style="fill: #cbf29a"/>
    <rect x="375"  y="0.232677" height="20.906" width="12.5" style="fill: #bd5b1a"/>
    <rect x="387.5"  y="0.232677" height="3.50179" width="12.5" style="fill: #cf3898"/>
    <rect x="400"  y="0.232677" height="4.44413" width="12.5" style="fill: #4b35ae"/>
    <rect x="412.5"  y="0.232677" height="22.4301" width="12.5" style="fill: #882809"/>
    <rect x="425"  y="0.232677" height="54.842" width="12.5" style="fill: #dd4cfe"/>
    <rect x="437.5"  y="0.232677" height="8.06226" width="12.5" style="fill: #7abc5c"/>
    <rect x="450"  y="0.232677" height="134.441" width="12.5" style="fill: #61baa5"/>
    <rect x="462.5"  y="0.232677" height="59.3909" width="12.5" style="fill: #2e053b"/>
    <rect x="475"  y="0.232677" height="60.6706" width="12.5" style="fill: #4c3643"/>
    <rect x="287.5"  y="2.2686" height="3.0597" width="12.5" style="fill: #f204ef"/>
    <rect x="225"  y="2.33841" height="19.2308" width="12.5" style="fill: #259d2e"/>
    <rect x="300"  y="2.33841" height="12.8903" width="12.5" style="fill: #98042a"/>
    <rect x="237.5"  y="2.8852" height="23.5237" width="12.5" style="fill: #948aac"/>
    <rect x="175"  y="3.01317" height="31.3533" width="12.5" style="fill: #5e884c"/>
    <rect x="387.5"  y="3.96715" height="7.11992" width="12.5" style="fill: #b3ec7d"/>
    <rect x="37.5"  y="3.87408" height="19.5798" width="12.5" style="fill: #b92564"/>
    <rect x="100"  y="3.97878" height="13.4022" width="12.5" style="fill: #3fd34f"/>
</svg>
</svg>
