<svg  xmlns="http://www.w3.org/2000/svg" xmlns:xlink="http://www.w3.org/1999/xlink" x="0" y="0" width="600" height="600">
<rect x="0%" y="0%" height="100%" width="100%" style="fill: #ffffff"/>
<svg x="0" y="0">
  <text fill="dark" font-size="35" transform="translate(250, 30)">cores</text>
</svg>
<svg x="0" y="0"> 
  <text fill="dark" font-size="35" transform="translate(30, 300) rotate(270)">time</text>
</svg>
<svg x = "50" y="550">
  <text fill="blue" font-size="30" transform="translate(0, 35)">t = 34s, lb = 0.186124</text>
</svg>
<svg x="50" y="50" width="500" height="500" >
  <rect x="0%" y="0%" height="100%" width="100%" style="fill: #eeeeee"/>
    <rect x="0"  y="0.0430651" height="499.971" width="12.5" style="fill: #ab2b36"/>
    <rect x="237.5"  y="0.0430651" height="330.697" width="12.5" style="fill: #c248b8"/>
    <rect x="112.5"  y="0.0430651" height="225.259" width="12.5" style="fill: #7d6ae3"/>
    <rect x="50"  y="0.0430651" height="203.238" width="12.5" style="fill: #3f9a62"/>
    <rect x="25"  y="0.0430651" height="186.099" width="12.5" style="fill: #d7183a"/>
    <rect x="12.5"  y="0.0430651" height="173.466" width="12.5" style="fill: #5d5789"/>
    <rect x="362.5"  y="0.0287101" height="154.891" width="12.5" style="fill: #e4b2d6"/>
    <rect x="300"  y="0.0430651" height="140.206" width="12.5" style="fill: #b441e2"/>
    <rect x="262.5"  y="0.0430651" height="151.388" width="12.5" style="fill: #411dc7"/>
    <rect x="250"  y="0.0430651" height="117.553" width="12.5" style="fill: #09e111"/>
    <rect x="175"  y="0.0430651" height="99.0497" width="12.5" style="fill: #c7e1e7"/>
    <rect x="137.5"  y="0.0430651" height="94.1116" width="12.5" style="fill: #acb6f8"/>
    <rect x="125"  y="0.0430651" height="88.7715" width="12.5" style="fill: #cac0bb"/>
    <rect x="75"  y="0.0430651" height="67.3825" width="12.5" style="fill: #2fc4c8"/>
    <rect x="62.5"  y="0.0430651" height="64.5402" width="12.5" style="fill: #bc2ae3"/>
    <rect x="37.5"  y="0.0430651" height="57.535" width="12.5" style="fill: #baaab9"/>
    <rect x="425"  y="0.0430651" height="61.8702" width="12.5" style="fill: #165cc4"/>
    <rect x="387.5"  y="0.0287101" height="48.8502" width="12.5" style="fill: #58e199"/>
    <rect x="375"  y="0.0287101" height="38.4715" width="12.5" style="fill: #cb89f5"/>
    <rect x="325"  y="0.0430651" height="35.8302" width="12.5" style="fill: #1b135f"/>
    <rect x="312.5"  y="0.0430651" height="33.4329" width="12.5" style="fill: #7091a5"/>
    <rect x="275"  y="0.0430651" height="33.7056" width="12.5" style="fill: #abb087"/>
    <rect x="200"  y="0.0430651" height="33.8061" width="12.5" style="fill: #4df3e8"/>
    <rect x="187.5"  y="0.0430651" height="32.1696" width="12.5" style="fill: #cb4543"/>
    <rect x="150"  y="0.0430651" height="33.1171" width="12.5" style="fill: #a5eb93"/>
    <rect x="87.5"  y="0.0430651" height="27.7626" width="12.5" style="fill: #b0441e"/>
    <rect x="450"  y="0.0287101" height="26.6429" width="12.5" style="fill: #9ca4c2"/>
    <rect x="437.5"  y="0.0287101" height="61.5687" width="12.5" style="fill: #b0fb3d"/>
    <rect x="400"  y="0.0287101" height="22.0206" width="12.5" style="fill: #30875c"/>
    <rect x="337.5"  y="0.0287101" height="16.9533" width="12.5" style="fill: #bf29ab"/>
    <rect x="287.5"  y="0.0430651" height="19.1209" width="12.5" style="fill: #d5b1ac"/>
    <rect x="212.5"  y="0.0430651" height="40.2659" width="12.5" style="fill: #f38984"/>
    <rect x="162.5"  y="0.0430651" height="15.9054" width="12.5" style="fill: #b35ae8"/>
    <rect x="100"  y="0.0430651" height="17.3839" width="12.5" style="fill: #82809d"/>
    <rect x="462.5"  y="0.0287101" height="11.7998" width="12.5" style="fill: #d4cfe7"/>
    <rect x="412.5"  y="0.0287101" height="30.002" width="12.5" style="fill: #abc5c6"/>
    <rect x="350"  y="0.0287101" height="27.777" width="12.5" style="fill: #1baa52"/>
    <rect x="225"  y="0.0430651" height="24.0734" width="12.5" style="fill: #e053b4"/>
    <rect x="475"  y="0.0287101" height="10.3643" width="12.5" style="fill: #c3643f"/>
    <rect x="475"  y="10.4074" height="12.0152" width="12.5" style="fill: #204ef2"/>
    <rect x="462.5"  y="11.8429" height="10.4792" width="12.5" style="fill: #59d2e9"/>
    <rect x="162.5"  y="15.9484" height="20.5277" width="12.5" style="fill: #8042a9"/>
    <rect x="337.5"  y="16.9964" height="19.1353" width="12.5" style="fill: #48aac5"/>
    <rect x="100"  y="17.4414" height="9.87626" width="12.5" style="fill: #e884cb"/>
    <rect x="287.5"  y="19.164" height="8.38334" width="12.5" style="fill: #3ec7db"/>
    <rect x="400"  y="22.0493" height="15.9341" width="12.5" style="fill: #925643"/>
    <rect x="462.5"  y="22.3221" height="18.0443" width="12.5" style="fill: #fd34fd"/>
    <rect x="475"  y="22.4369" height="13.8526" width="12.5" style="fill: #d467e2"/>
    <rect x="225"  y="24.1164" height="12.7473" width="12.5" style="fill: #cca406"/>
    <rect x="450"  y="26.686" height="12.575" width="12.5" style="fill: #035cb2"/>
    <rect x="100"  y="27.3176" height="11.5271" width="12.5" style="fill: #744cb9"/>
    <rect x="287.5"  y="27.5473" height="5.64153" width="12.5" style="fill: #0a63e5"/>
    <rect x="87.5"  y="27.8057" height="7.82349" width="12.5" style="fill: #1c9737"/>
    <rect x="350"  y="27.82" height="9.40254" width="12.5" style="fill: #903343"/>
    <rect x="412.5"  y="30.0451" height="8.25414" width="12.5" style="fill: #947e02"/>
    <rect x="187.5"  y="32.2127" height="8.22543" width="12.5" style="fill: #086541"/>
    <rect x="150"  y="33.1745" height="6.78993" width="12.5" style="fill: #e4c48a"/>
    <rect x="287.5"  y="33.2032" height="3.30166" width="12.5" style="fill: #99630a"/>
    <rect x="312.5"  y="33.4759" height="4.92377" width="12.5" style="fill: #a9aece"/>
    <rect x="275"  y="33.7487" height="4.29215" width="12.5" style="fill: #153843"/>
    <rect x="200"  y="33.8492" height="4.30651" width="12.5" style="fill: #a4b190"/>
    <rect x="87.5"  y="35.6435" height="4.65103" width="12.5" style="fill: #274ebc"/>
    <rect x="325"  y="35.8732" height="4.29215" width="12.5" style="fill: #955f85"/>
    <rect x="337.5"  y="36.146" height="3.73231" width="12.5" style="fill: #92e30a"/>
    <rect x="475"  y="36.2895" height="4.63667" width="12.5" style="fill: #2205a4"/>
    <rect x="162.5"  y="36.4905" height="3.66053" width="12.5" style="fill: #858462"/>
    <rect x="287.5"  y="36.5192" height="2.98585" width="12.5" style="fill: #489875"/>
    <rect x="225"  y="36.8781" height="2.22503" width="12.5" style="fill: #50aaf2"/>
    <rect x="350"  y="37.2226" height="2.45471" width="12.5" style="fill: #094ec5"/>
    <rect x="400"  y="37.9978" height="3.2873" width="12.5" style="fill: #9e7931"/>
    <rect x="275"  y="38.0552" height="2.05277" width="12.5" style="fill: #dc650c"/>
    <rect x="200"  y="38.1557" height="1.83744" width="12.5" style="fill: #7451cc"/>
    <rect x="412.5"  y="38.2992" height="1.32066" width="12.5" style="fill: #61c0cb"/>
    <rect x="312.5"  y="38.4141" height="1.29195" width="12.5" style="fill: #2c46a1"/>
    <rect x="375"  y="38.5145" height="1.46421" width="12.5" style="fill: #b3f2c3"/>
    <rect x="100"  y="38.8591" height="1.4355" width="12.5" style="fill: #49faff"/>
    <rect x="225"  y="39.1175" height="1.17711" width="12.5" style="fill: #763c7f"/>
    <rect x="450"  y="39.261" height="0.890012" width="12.5" style="fill: #8d14dd"/>
    <rect x="287.5"  y="39.5194" height="0.602911" width="12.5" style="fill: #ff9463"/>
    <rect x="412.5"  y="39.6342" height="0.301456" width="12.5" style="fill: #517443"/>
</svg>
</svg>
