<svg  xmlns="http://www.w3.org/2000/svg" xmlns:xlink="http://www.w3.org/1999/xlink" x="0" y="0" width="600" height="600">
<rect x="0%" y="0%" height="100%" width="100%" style="fill: #ffffff"/>
<svg x="0" y="0">
  <text fill="dark" font-size="35" transform="translate(250, 30)">cores</text>
</svg>
<svg x="0" y="0"> 
  <text fill="dark" font-size="35" transform="translate(30, 300) rotate(270)">time</text>
</svg>
<svg x = "50" y="550">
  <text fill="blue" font-size="30" transform="translate(0, 35)">t = 3s, lb = 0.648997</text>
</svg>
<svg x="50" y="50" width="500" height="500" >
  <rect x="0%" y="0%" height="100%" width="100%" style="fill: #eeeeee"/>
    <rect x="0"  y="3.15695" height="120.565" width="12.5" style="fill: #dab2b3"/>
    <rect x="12.5"  y="3.15695" height="129.435" width="12.5" style="fill: #6c248b"/>
    <rect x="25"  y="3.15695" height="93.5057" width="12.5" style="fill: #87d6ae"/>
    <rect x="37.5"  y="3.15695" height="48.8575" width="12.5" style="fill: #33f9a6"/>
    <rect x="50"  y="3.15695" height="109.441" width="12.5" style="fill: #2d7183"/>
    <rect x="62.5"  y="3.15695" height="127.631" width="12.5" style="fill: #a5d578"/>
    <rect x="75"  y="3.15695" height="177.09" width="12.5" style="fill: #9e4b2d"/>
    <rect x="87.5"  y="3.15695" height="150.481" width="12.5" style="fill: #6b441e"/>
    <rect x="100"  y="3.15695" height="106.885" width="12.5" style="fill: #2411dc"/>
    <rect x="112.5"  y="3.15695" height="150.932" width="12.5" style="fill: #709e11"/>
    <rect x="125"  y="3.15695" height="124.925" width="12.5" style="fill: #1c7e1e"/>
    <rect x="137.5"  y="3.15695" height="113.65" width="12.5" style="fill: #7acb6f"/>
    <rect x="150"  y="3.15695" height="109.14" width="12.5" style="fill: #8cac0b"/>
    <rect x="162.5"  y="3.15695" height="258.719" width="12.5" style="fill: #b2fc4c"/>
    <rect x="175"  y="3.15695" height="139.206" width="12.5" style="fill: #8bc2ae"/>
    <rect x="187.5"  y="3.15695" height="111.996" width="12.5" style="fill: #3baaab"/>
    <rect x="200"  y="3.15695" height="291.942" width="12.5" style="fill: #9165cc"/>
    <rect x="212.5"  y="3.15695" height="165.514" width="12.5" style="fill: #458e19"/>
    <rect x="225"  y="3.15695" height="155.592" width="12.5" style="fill: #9cb89f"/>
    <rect x="237.5"  y="3.15695" height="129.435" width="12.5" style="fill: #51b135"/>
    <rect x="250"  y="3.15695" height="117.408" width="12.5" style="fill: #f7091a"/>
    <rect x="262.5"  y="3.15695" height="121.918" width="12.5" style="fill: #5abb08"/>
    <rect x="275"  y="3.15695" height="109.892" width="12.5" style="fill: #74df3e"/>
    <rect x="287.5"  y="3.15695" height="84.4859" width="12.5" style="fill: #8cb454"/>
    <rect x="300"  y="3.15695" height="84.1852" width="12.5" style="fill: #3a5eb9"/>
    <rect x="312.5"  y="3.15695" height="107.637" width="12.5" style="fill: #3b0441"/>
    <rect x="325"  y="3.15695" height="184.456" width="12.5" style="fill: #e9ca4c"/>
    <rect x="337.5"  y="3.15695" height="115.604" width="12.5" style="fill: #2b0fb3"/>
    <rect x="350"  y="3.15695" height="111.545" width="12.5" style="fill: #d30875"/>
    <rect x="362.5"  y="3.15695" height="112.297" width="12.5" style="fill: #cbf29a"/>
    <rect x="375"  y="3.15695" height="94.8587" width="12.5" style="fill: #bd5b1a"/>
    <rect x="387.5"  y="3.15695" height="102.225" width="12.5" style="fill: #cf3898"/>
    <rect x="400"  y="3.15695" height="82.0806" width="12.5" style="fill: #4b35ae"/>
    <rect x="412.5"  y="3.15695" height="91.4011" width="12.5" style="fill: #882809"/>
    <rect x="425"  y="3.15695" height="394.167" width="12.5" style="fill: #dd4cfe"/>
    <rect x="437.5"  y="3.15695" height="112.297" width="12.5" style="fill: #7abc5c"/>
    <rect x="450"  y="3.15695" height="79.9759" width="12.5" style="fill: #61baa5"/>
    <rect x="462.5"  y="3.15695" height="102.075" width="12.5" style="fill: #2e053b"/>
    <rect x="475"  y="3.15695" height="122.219" width="12.5" style="fill: #4c3643"/>
    <rect x="37.5"  y="55.021" height="121.768" width="12.5" style="fill: #f204ef"/>
    <rect x="450"  y="86.1395" height="97.5646" width="12.5" style="fill: #259d2e"/>
    <rect x="400"  y="88.2441" height="107.637" width="12.5" style="fill: #98042a"/>
    <rect x="300"  y="90.4991" height="122.67" width="12.5" style="fill: #948aac"/>
    <rect x="287.5"  y="90.6494" height="105.532" width="12.5" style="fill: #5e884c"/>
    <rect x="412.5"  y="97.715" height="99.0679" width="12.5" style="fill: #b3ec7d"/>
    <rect x="25"  y="98.166" height="93.8064" width="12.5" style="fill: #b92564"/>
    <rect x="375"  y="101.022" height="97.5646" width="12.5" style="fill: #3fd34f"/>
    <rect x="387.5"  y="108.388" height="101.173" width="12.5" style="fill: #dd467e"/>
    <rect x="462.5"  y="108.388" height="120.415" width="12.5" style="fill: #2cca40"/>
    <rect x="100"  y="113.049" height="111.996" width="12.5" style="fill: #6035cb"/>
    <rect x="312.5"  y="112.297" height="108.99" width="12.5" style="fill: #2744cb"/>
    <rect x="150"  y="115.454" height="183.253" width="12.5" style="fill: #90a63e"/>
    <rect x="50"  y="115.604" height="125.376" width="12.5" style="fill: #51c973"/>
    <rect x="275"  y="116.206" height="105.081" width="12.5" style="fill: #790334"/>
    <rect x="350"  y="117.859" height="113.199" width="12.5" style="fill: #3947e0"/>
    <rect x="187.5"  y="116.657" height="126.127" width="12.5" style="fill: #208654"/>
    <rect x="362.5"  y="116.957" height="160.553" width="12.5" style="fill: #1e4c48"/>
    <rect x="437.5"  y="116.957" height="87.6428" width="12.5" style="fill: #a99630"/>
    <rect x="137.5"  y="119.814" height="94.7084" width="12.5" style="fill: #aa9aec"/>
    <rect x="337.5"  y="120.415" height="189.567" width="12.5" style="fill: #e15384"/>
    <rect x="250"  y="123.722" height="94.2574" width="12.5" style="fill: #3a4b19"/>
    <rect x="0"  y="126.879" height="128.533" width="12.5" style="fill: #0274eb"/>
    <rect x="262.5"  y="126.578" height="135.598" width="12.5" style="fill: #c955f8"/>
    <rect x="475"  y="128.382" height="83.7342" width="12.5" style="fill: #592e30"/>
    <rect x="125"  y="131.088" height="32.0204" width="12.5" style="fill: #a2205a"/>
    <rect x="62.5"  y="132.441" height="253.909" width="12.5" style="fill: #485846"/>
    <rect x="12.5"  y="135.598" height="85.5382" width="12.5" style="fill: #248987"/>
    <rect x="237.5"  y="134.245" height="134.396" width="12.5" style="fill: #550aaf"/>
    <rect x="175"  y="145.37" height="103.578" width="12.5" style="fill: #2094ec"/>
    <rect x="87.5"  y="156.645" height="103.277" width="12.5" style="fill: #59e793"/>
    <rect x="112.5"  y="157.096" height="116.957" width="12.5" style="fill: #1dc650"/>
    <rect x="225"  y="161.906" height="145.37" width="12.5" style="fill: #c7451c"/>
    <rect x="125"  y="166.266" height="88.5448" width="12.5" style="fill: #c61c0c"/>
    <rect x="212.5"  y="171.678" height="195.28" width="12.5" style="fill: #b2c46a"/>
    <rect x="37.5"  y="179.946" height="99.5189" width="12.5" style="fill: #1b3f2c"/>
    <rect x="75"  y="183.253" height="216.326" width="12.5" style="fill: #349faf"/>
    <rect x="450"  y="186.861" height="108.238" width="12.5" style="fill: #f763c7"/>
    <rect x="325"  y="190.619" height="156.945" width="12.5" style="fill: #f8d14d"/>
    <rect x="25"  y="194.979" height="104.33" width="12.5" style="fill: #dff946"/>
    <rect x="400"  y="199.038" height="121.016" width="12.5" style="fill: #351744"/>
    <rect x="287.5"  y="199.188" height="90.9501" width="12.5" style="fill: #378d62"/>
    <rect x="412.5"  y="198.286" height="263.83" width="12.5" style="fill: #c59285"/>
    <rect x="375"  y="201.744" height="127.781" width="12.5" style="fill: #a8d791"/>
    <rect x="437.5"  y="207.607" height="158.599" width="12.5" style="fill: #5614f5"/>
    <rect x="387.5"  y="212.718" height="109.14" width="12.5" style="fill: #a2ac9e"/>
    <rect x="475"  y="215.274" height="116.055" width="12.5" style="fill: #0d68ac"/>
    <rect x="300"  y="216.326" height="120.565" width="12.5" style="fill: #a6248a"/>
    <rect x="137.5"  y="217.679" height="198.737" width="12.5" style="fill: #9227ab"/>
    <rect x="250"  y="220.986" height="141.01" width="12.5" style="fill: #8f1930"/>
    <rect x="12.5"  y="224.293" height="85.0872" width="12.5" style="fill: #ee38ac"/>
    <rect x="275"  y="224.444" height="275.556" width="12.5" style="fill: #7a9d23"/>
    <rect x="312.5"  y="222.94" height="166.566" width="12.5" style="fill: #9c9b02"/>
    <rect x="100"  y="228.052" height="98.7673" width="12.5" style="fill: #6a481e"/>
    <rect x="462.5"  y="231.81" height="109.14" width="12.5" style="fill: #49d531"/>
    <rect x="350"  y="234.065" height="125.676" width="12.5" style="fill: #61f9a9"/>
    <rect x="50"  y="244.137" height="133.343" width="12.5" style="fill: #513fe5"/>
    <rect x="187.5"  y="244.438" height="51.7138" width="12.5" style="fill: #271c32"/>
    <rect x="175"  y="252.105" height="116.657" width="12.5" style="fill: #e9c21d"/>
    <rect x="125"  y="257.968" height="39.537" width="12.5" style="fill: #156eb9"/>
</svg>
</svg>
