<svg  xmlns="http://www.w3.org/2000/svg" xmlns:xlink="http://www.w3.org/1999/xlink" x="0" y="0" width="600" height="600">
<rect x="0%" y="0%" height="100%" width="100%" style="fill: #ffffff"/>
<svg x="0" y="0">
  <text fill="dark" font-size="35" transform="translate(250, 30)">cores</text>
</svg>
<svg x="0" y="0"> 
  <text fill="dark" font-size="35" transform="translate(30, 300) rotate(270)">time</text>
</svg>
<svg x = "50" y="550">
  <text fill="blue" font-size="30" transform="translate(0, 35)">t = 0s, lb = 0.566952</text>
</svg>
<svg x="50" y="50" width="500" height="500" >
  <rect x="0%" y="0%" height="100%" width="100%" style="fill: #eeeeee"/>
    <rect x="0"  y="55.5556" height="296.296" width="12.5" style="fill: #dab2b3"/>
    <rect x="237.5"  y="37.037" height="111.111" width="12.5" style="fill: #6c248b"/>
    <rect x="112.5"  y="37.037" height="222.222" width="12.5" style="fill: #87d6ae"/>
    <rect x="50"  y="37.037" height="129.63" width="12.5" style="fill: #33f9a6"/>
    <rect x="25"  y="55.5556" height="129.63" width="12.5" style="fill: #2d7183"/>
    <rect x="12.5"  y="55.5556" height="166.667" width="12.5" style="fill: #a5d578"/>
    <rect x="362.5"  y="37.037" height="222.222" width="12.5" style="fill: #9e4b2d"/>
    <rect x="300"  y="37.037" height="148.148" width="12.5" style="fill: #6b441e"/>
    <rect x="262.5"  y="37.037" height="92.5926" width="12.5" style="fill: #2411dc"/>
    <rect x="250"  y="37.037" height="74.0741" width="12.5" style="fill: #709e11"/>
    <rect x="175"  y="37.037" height="129.63" width="12.5" style="fill: #1c7e1e"/>
    <rect x="137.5"  y="37.037" height="166.667" width="12.5" style="fill: #7acb6f"/>
    <rect x="125"  y="37.037" height="74.0741" width="12.5" style="fill: #8cac0b"/>
    <rect x="75"  y="37.037" height="55.5556" width="12.5" style="fill: #b2fc4c"/>
    <rect x="62.5"  y="37.037" height="55.5556" width="12.5" style="fill: #8bc2ae"/>
    <rect x="37.5"  y="55.5556" height="185.185" width="12.5" style="fill: #3baaab"/>
    <rect x="425"  y="55.5556" height="148.148" width="12.5" style="fill: #9165cc"/>
    <rect x="387.5"  y="37.037" height="74.0741" width="12.5" style="fill: #458e19"/>
    <rect x="375"  y="37.037" height="74.0741" width="12.5" style="fill: #9cb89f"/>
    <rect x="325"  y="37.037" height="462.963" width="12.5" style="fill: #51b135"/>
    <rect x="312.5"  y="37.037" height="55.5556" width="12.5" style="fill: #f7091a"/>
    <rect x="275"  y="37.037" height="222.222" width="12.5" style="fill: #5abb08"/>
    <rect x="200"  y="37.037" height="203.704" width="12.5" style="fill: #74df3e"/>
    <rect x="187.5"  y="37.037" height="166.667" width="12.5" style="fill: #8cb454"/>
    <rect x="150"  y="37.037" height="74.0741" width="12.5" style="fill: #3a5eb9"/>
    <rect x="87.5"  y="37.037" height="92.5926" width="12.5" style="fill: #3b0441"/>
    <rect x="450"  y="37.037" height="203.704" width="12.5" style="fill: #e9ca4c"/>
    <rect x="437.5"  y="37.037" height="166.667" width="12.5" style="fill: #2b0fb3"/>
    <rect x="400"  y="37.037" height="277.778" width="12.5" style="fill: #d30875"/>
    <rect x="337.5"  y="37.037" height="314.815" width="12.5" style="fill: #cbf29a"/>
    <rect x="287.5"  y="37.037" height="111.111" width="12.5" style="fill: #bd5b1a"/>
    <rect x="212.5"  y="37.037" height="74.0741" width="12.5" style="fill: #cf3898"/>
    <rect x="162.5"  y="37.037" height="203.704" width="12.5" style="fill: #4b35ae"/>
    <rect x="100"  y="37.037" height="370.37" width="12.5" style="fill: #882809"/>
    <rect x="462.5"  y="37.037" height="240.741" width="12.5" style="fill: #dd4cfe"/>
    <rect x="412.5"  y="37.037" height="92.5926" width="12.5" style="fill: #7abc5c"/>
    <rect x="350"  y="37.037" height="92.5926" width="12.5" style="fill: #61baa5"/>
    <rect x="225"  y="37.037" height="74.0741" width="12.5" style="fill: #2e053b"/>
    <rect x="475"  y="37.037" height="166.667" width="12.5" style="fill: #4c3643"/>
    <rect x="312.5"  y="111.111" height="55.5556" width="12.5" style="fill: #f204ef"/>
    <rect x="62.5"  y="111.111" height="55.5556" width="12.5" style="fill: #259d2e"/>
    <rect x="75"  y="111.111" height="92.5926" width="12.5" style="fill: #98042a"/>
    <rect x="150"  y="111.111" height="74.0741" width="12.5" style="fill: #948aac"/>
    <rect x="250"  y="111.111" height="129.63" width="12.5" style="fill: #5e884c"/>
    <rect x="212.5"  y="129.63" height="18.5185" width="12.5" style="fill: #b3ec7d"/>
    <rect x="375"  y="111.111" height="37.037" width="12.5" style="fill: #b92564"/>
    <rect x="387.5"  y="111.111" height="185.185" width="12.5" style="fill: #3fd34f"/>
    <rect x="225"  y="129.63" height="148.148" width="12.5" style="fill: #dd467e"/>
    <rect x="125"  y="129.63" height="111.111" width="12.5" style="fill: #2cca40"/>
    <rect x="412.5"  y="129.63" height="18.5185" width="12.5" style="fill: #6035cb"/>
    <rect x="262.5"  y="148.148" height="185.185" width="12.5" style="fill: #2744cb"/>
    <rect x="350"  y="129.63" height="37.037" width="12.5" style="fill: #90a63e"/>
    <rect x="87.5"  y="148.148" height="74.0741" width="12.5" style="fill: #51c973"/>
    <rect x="287.5"  y="148.148" height="129.63" width="12.5" style="fill: #790334"/>
    <rect x="212.5"  y="166.667" height="55.5556" width="12.5" style="fill: #3947e0"/>
    <rect x="375"  y="148.148" height="55.5556" width="12.5" style="fill: #208654"/>
    <rect x="312.5"  y="166.667" height="129.63" width="12.5" style="fill: #1e4c48"/>
    <rect x="237.5"  y="166.667" height="129.63" width="12.5" style="fill: #a99630"/>
    <rect x="412.5"  y="166.667" height="129.63" width="12.5" style="fill: #aa9aec"/>
    <rect x="175"  y="166.667" height="111.111" width="12.5" style="fill: #e15384"/>
    <rect x="25"  y="185.185" height="55.5556" width="12.5" style="fill: #3a4b19"/>
    <rect x="62.5"  y="185.185" height="74.0741" width="12.5" style="fill: #0274eb"/>
    <rect x="50"  y="185.185" height="55.5556" width="12.5" style="fill: #c955f8"/>
    <rect x="300"  y="185.185" height="37.037" width="12.5" style="fill: #592e30"/>
    <rect x="350"  y="185.185" height="259.259" width="12.5" style="fill: #a2205a"/>
    <rect x="75"  y="203.704" height="111.111" width="12.5" style="fill: #485846"/>
    <rect x="150"  y="203.704" height="148.148" width="12.5" style="fill: #248987"/>
    <rect x="425"  y="222.222" height="18.5185" width="12.5" style="fill: #550aaf"/>
    <rect x="137.5"  y="222.222" height="166.667" width="12.5" style="fill: #2094ec"/>
    <rect x="475"  y="203.704" height="92.5926" width="12.5" style="fill: #59e793"/>
    <rect x="12.5"  y="222.222" height="37.037" width="12.5" style="fill: #1dc650"/>
    <rect x="437.5"  y="203.704" height="55.5556" width="12.5" style="fill: #c7451c"/>
    <rect x="187.5"  y="222.222" height="37.037" width="12.5" style="fill: #c61c0c"/>
    <rect x="212.5"  y="222.222" height="18.5185" width="12.5" style="fill: #b2c46a"/>
    <rect x="300"  y="222.222" height="148.148" width="12.5" style="fill: #1b3f2c"/>
    <rect x="37.5"  y="240.741" height="92.5926" width="12.5" style="fill: #349faf"/>
    <rect x="375"  y="222.222" height="55.5556" width="12.5" style="fill: #f763c7"/>
    <rect x="25"  y="240.741" height="55.5556" width="12.5" style="fill: #f8d14d"/>
    <rect x="87.5"  y="240.741" height="111.111" width="12.5" style="fill: #dff946"/>
    <rect x="425"  y="259.259" height="55.5556" width="12.5" style="fill: #351744"/>
    <rect x="162.5"  y="240.741" height="37.037" width="12.5" style="fill: #378d62"/>
    <rect x="450"  y="240.741" height="92.5926" width="12.5" style="fill: #c59285"/>
    <rect x="125"  y="259.259" height="18.5185" width="12.5" style="fill: #a8d791"/>
    <rect x="250"  y="259.259" height="37.037" width="12.5" style="fill: #5614f5"/>
    <rect x="50"  y="259.259" height="185.185" width="12.5" style="fill: #a2ac9e"/>
    <rect x="212.5"  y="259.259" height="92.5926" width="12.5" style="fill: #0d68ac"/>
    <rect x="200"  y="259.259" height="240.741" width="12.5" style="fill: #a6248a"/>
    <rect x="187.5"  y="259.259" height="148.148" width="12.5" style="fill: #9227ab"/>
    <rect x="62.5"  y="259.259" height="92.5926" width="12.5" style="fill: #8f1930"/>
    <rect x="362.5"  y="259.259" height="37.037" width="12.5" style="fill: #ee38ac"/>
    <rect x="12.5"  y="277.778" height="37.037" width="12.5" style="fill: #7a9d23"/>
    <rect x="275"  y="277.778" height="74.0741" width="12.5" style="fill: #9c9b02"/>
    <rect x="112.5"  y="277.778" height="55.5556" width="12.5" style="fill: #6a481e"/>
    <rect x="437.5"  y="277.778" height="37.037" width="12.5" style="fill: #49d531"/>
</svg>
</svg>
