<svg  xmlns="http://www.w3.org/2000/svg" xmlns:xlink="http://www.w3.org/1999/xlink" x="0" y="0" width="600" height="600">
<rect x="0%" y="0%" height="100%" width="100%" style="fill: #ffffff"/>
<svg x="0" y="0">
  <text fill="dark" font-size="35" transform="translate(250, 30)">cores</text>
</svg>
<svg x="0" y="0"> 
  <text fill="dark" font-size="35" transform="translate(30, 300) rotate(270)">time</text>
</svg>
<svg x = "50" y="550">
  <text fill="blue" font-size="30" transform="translate(0, 35)">t = 43s, lb = 0.955550</text>
</svg>
<svg x="50" y="50" width="500" height="500" >
  <rect x="0%" y="0%" height="100%" width="100%" style="fill: #eeeeee"/>
    <rect x="0"  y="0.229595" height="1.21685" width="250" style="fill: #dab2b3"/>
    <rect x="0"  y="1.68752" height="1.79084" width="250" style="fill: #6c248b"/>
    <rect x="0"  y="3.70796" height="24.5322" width="250" style="fill: #87d6ae"/>
    <rect x="0"  y="28.4812" height="1.14797" width="250" style="fill: #33f9a6"/>
    <rect x="0"  y="29.8818" height="2.11227" width="250" style="fill: #2d7183"/>
    <rect x="0"  y="32.2236" height="4.35082" width="250" style="fill: #a5d578"/>
    <rect x="0"  y="36.8155" height="8.62128" width="250" style="fill: #9e4b2d"/>
    <rect x="0"  y="45.6664" height="3.55872" width="250" style="fill: #6b441e"/>
    <rect x="0"  y="49.4662" height="14.3612" width="250" style="fill: #2411dc"/>
    <rect x="0"  y="64.0684" height="5.96946" width="250" style="fill: #709e11"/>
    <rect x="0"  y="70.279" height="3.77683" width="250" style="fill: #1c7e1e"/>
    <rect x="0"  y="74.2854" height="4.38526" width="250" style="fill: #7acb6f"/>
    <rect x="0"  y="78.9117" height="12.467" width="250" style="fill: #8cac0b"/>
    <rect x="0"  y="91.6198" height="0.89542" width="250" style="fill: #b2fc4c"/>
    <rect x="0"  y="92.7563" height="0.493629" width="250" style="fill: #8bc2ae"/>
    <rect x="0"  y="93.4795" height="8.79348" width="250" style="fill: #3baaab"/>
    <rect x="0"  y="102.514" height="0.964298" width="250" style="fill: #9165cc"/>
    <rect x="0"  y="103.719" height="4.14419" width="250" style="fill: #458e19"/>
    <rect x="0"  y="108.105" height="4.06383" width="250" style="fill: #9cb89f"/>
    <rect x="0"  y="112.41" height="0.723224" width="250" style="fill: #51b135"/>
    <rect x="0"  y="113.374" height="4.38526" width="250" style="fill: #f7091a"/>
    <rect x="0"  y="117.989" height="3.31764" width="250" style="fill: #5abb08"/>
    <rect x="0"  y="121.547" height="6.49753" width="250" style="fill: #74df3e"/>
    <rect x="0"  y="128.286" height="3.67352" width="250" style="fill: #8cb454"/>
    <rect x="0"  y="132.189" height="4.83297" width="250" style="fill: #3a5eb9"/>
    <rect x="0"  y="137.263" height="17.4262" width="250" style="fill: #3b0441"/>
    <rect x="0"  y="154.931" height="0.355872" width="250" style="fill: #e9ca4c"/>
    <rect x="0"  y="155.516" height="2.15819" width="250" style="fill: #2b0fb3"/>
    <rect x="0"  y="157.915" height="0.619906" width="250" style="fill: #d30875"/>
    <rect x="0"  y="158.776" height="6.31386" width="250" style="fill: #cbf29a"/>
    <rect x="0"  y="165.331" height="1.19389" width="250" style="fill: #bd5b1a"/>
    <rect x="0"  y="166.755" height="2.02043" width="250" style="fill: #cf3898"/>
    <rect x="0"  y="169.016" height="3.86867" width="250" style="fill: #4b35ae"/>
    <rect x="0"  y="173.126" height="0.516588" width="250" style="fill: #882809"/>
    <rect x="0"  y="173.872" height="0.734703" width="250" style="fill: #dd4cfe"/>
    <rect x="0"  y="174.848" height="1.5842" width="250" style="fill: #7abc5c"/>
    <rect x="0"  y="176.673" height="0.367352" width="250" style="fill: #61baa5"/>
    <rect x="0"  y="177.282" height="1.36609" width="250" style="fill: #2e053b"/>
    <rect x="0"  y="178.877" height="3.16841" width="250" style="fill: #4c3643"/>
    <rect x="0"  y="182.287" height="5.13144" width="250" style="fill: #f204ef"/>
    <rect x="0"  y="187.659" height="0.344392" width="250" style="fill: #259d2e"/>
    <rect x="0"  y="188.233" height="15.3255" width="250" style="fill: #98042a"/>
    <rect x="0"  y="203.8" height="1.17093" width="250" style="fill: #948aac"/>
    <rect x="0"  y="205.212" height="3.28321" width="250" style="fill: #5e884c"/>
    <rect x="0"  y="208.736" height="0.619906" width="250" style="fill: #b3ec7d"/>
    <rect x="0"  y="209.586" height="2.38779" width="250" style="fill: #b92564"/>
    <rect x="0"  y="212.214" height="4.58042" width="250" style="fill: #3fd34f"/>
    <rect x="0"  y="217.024" height="9.11491" width="250" style="fill: #dd467e"/>
    <rect x="0"  y="226.38" height="5.83171" width="250" style="fill: #2cca40"/>
    <rect x="0"  y="232.453" height="22.7643" width="250" style="fill: #6035cb"/>
    <rect x="0"  y="255.447" height="8.69016" width="250" style="fill: #2744cb"/>
    <rect x="0"  y="264.378" height="2.44518" width="250" style="fill: #90a63e"/>
    <rect x="0"  y="267.065" height="10.5843" width="250" style="fill: #51c973"/>
    <rect x="0"  y="277.89" height="2.39927" width="250" style="fill: #790334"/>
    <rect x="0"  y="280.519" height="1.15945" width="250" style="fill: #3947e0"/>
    <rect x="0"  y="281.919" height="0.505108" width="250" style="fill: #208654"/>
    <rect x="0"  y="282.654" height="1.06762" width="250" style="fill: #1e4c48"/>
    <rect x="0"  y="283.963" height="10.7565" width="250" style="fill: #a99630"/>
    <rect x="0"  y="294.96" height="8.32281" width="250" style="fill: #aa9aec"/>
    <rect x="0"  y="303.524" height="6.01538" width="250" style="fill: #e15384"/>
    <rect x="0"  y="309.769" height="0.596946" width="250" style="fill: #3a4b19"/>
    <rect x="0"  y="310.607" height="17.8051" width="250" style="fill: #0274eb"/>
    <rect x="0"  y="328.642" height="2.50258" width="250" style="fill: #c955f8"/>
    <rect x="0"  y="331.386" height="3.94903" width="250" style="fill: #592e30"/>
    <rect x="0"  y="335.564" height="17.7592" width="250" style="fill: #a2205a"/>
    <rect x="0"  y="353.564" height="2.20411" width="250" style="fill: #485846"/>
    <rect x="0"  y="356.01" height="1.40053" width="250" style="fill: #248987"/>
    <rect x="0"  y="357.651" height="28.906" width="250" style="fill: #550aaf"/>
    <rect x="0"  y="386.798" height="0.551027" width="250" style="fill: #2094ec"/>
    <rect x="0"  y="387.59" height="0.298473" width="250" style="fill: #59e793"/>
    <rect x="0"  y="388.118" height="1.38905" width="250" style="fill: #1dc650"/>
    <rect x="0"  y="389.749" height="1.19389" width="250" style="fill: #c7451c"/>
    <rect x="0"  y="391.184" height="9.14935" width="250" style="fill: #c61c0c"/>
    <rect x="0"  y="400.563" height="7.71438" width="250" style="fill: #b2c46a"/>
    <rect x="0"  y="408.518" height="1.09058" width="250" style="fill: #1b3f2c"/>
    <rect x="0"  y="409.838" height="22.4429" width="250" style="fill: #349faf"/>
    <rect x="0"  y="432.522" height="0.573987" width="250" style="fill: #f763c7"/>
    <rect x="0"  y="433.326" height="2.67478" width="250" style="fill: #f8d14d"/>
    <rect x="0"  y="436.242" height="3.99495" width="250" style="fill: #dff946"/>
    <rect x="0"  y="440.478" height="6.75009" width="250" style="fill: #351744"/>
    <rect x="0"  y="447.469" height="6.56641" width="250" style="fill: #378d62"/>
    <rect x="0"  y="454.276" height="1.27425" width="250" style="fill: #c59285"/>
    <rect x="0"  y="455.792" height="0.298473" width="250" style="fill: #a8d791"/>
    <rect x="0"  y="456.32" height="1.28573" width="250" style="fill: #5614f5"/>
    <rect x="0"  y="457.846" height="6.76157" width="250" style="fill: #a2ac9e"/>
    <rect x="0"  y="464.838" height="1.65308" width="250" style="fill: #0d68ac"/>
    <rect x="0"  y="466.732" height="3.83423" width="250" style="fill: #a6248a"/>
    <rect x="0"  y="470.796" height="1.12501" width="250" style="fill: #9227ab"/>
    <rect x="0"  y="472.162" height="0.941339" width="250" style="fill: #8f1930"/>
    <rect x="0"  y="473.333" height="1.42349" width="250" style="fill: #ee38ac"/>
    <rect x="0"  y="474.997" height="9.49374" width="250" style="fill: #7a9d23"/>
    <rect x="0"  y="484.617" height="12.5359" width="250" style="fill: #9c9b02"/>
    <rect x="0"  y="497.394" height="0.849501" width="250" style="fill: #6a481e"/>
    <rect x="0"  y="498.473" height="1.51533" width="250" style="fill: #49d531"/>
</svg>
</svg>
