<svg  xmlns="http://www.w3.org/2000/svg" xmlns:xlink="http://www.w3.org/1999/xlink" x="0" y="0" width="600" height="600">
<rect x="0%" y="0%" height="100%" width="100%" style="fill: #ffffff"/>
<svg x="0" y="0">
  <text fill="dark" font-size="35" transform="translate(250, 30)">cores</text>
</svg>
<svg x="0" y="0"> 
  <text fill="dark" font-size="35" transform="translate(30, 300) rotate(270)">time</text>
</svg>
<svg x = "50" y="550">
  <text fill="blue" font-size="30" transform="translate(0, 35)">t = 7148s, lb = 0.454414</text>
</svg>
<svg x="50" y="50" width="500" height="500" >
  <rect x="0%" y="0%" height="100%" width="100%" style="fill: #eeeeee"/>
    <rect x="0"  y="0.00055954" height="334.929" width="12.5" style="fill: #dab2b3"/>
    <rect x="237.5"  y="0.00055954" height="323.942" width="12.5" style="fill: #6c248b"/>
    <rect x="112.5"  y="0.00055954" height="399.517" width="12.5" style="fill: #87d6ae"/>
    <rect x="50"  y="0.00055954" height="308.968" width="12.5" style="fill: #33f9a6"/>
    <rect x="25"  y="0.00055954" height="322.483" width="12.5" style="fill: #2d7183"/>
    <rect x="12.5"  y="0.00055954" height="499.999" width="12.5" style="fill: #a5d578"/>
    <rect x="362.5"  y="0.000489598" height="416.194" width="12.5" style="fill: #9e4b2d"/>
    <rect x="300"  y="0.000489598" height="318.446" width="12.5" style="fill: #6b441e"/>
    <rect x="262.5"  y="0.000489598" height="350.56" width="12.5" style="fill: #2411dc"/>
    <rect x="250"  y="0.000489598" height="356.111" width="12.5" style="fill: #709e11"/>
    <rect x="175"  y="0.00055954" height="122.394" width="12.5" style="fill: #1c7e1e"/>
    <rect x="137.5"  y="0.00055954" height="101.241" width="12.5" style="fill: #7acb6f"/>
    <rect x="125"  y="0.00055954" height="116.449" width="12.5" style="fill: #8cac0b"/>
    <rect x="75"  y="0.00055954" height="120.324" width="12.5" style="fill: #b2fc4c"/>
    <rect x="62.5"  y="0.00055954" height="121.707" width="12.5" style="fill: #8bc2ae"/>
    <rect x="37.5"  y="0.00055954" height="123.694" width="12.5" style="fill: #3baaab"/>
    <rect x="425"  y="0.000489598" height="147.753" width="12.5" style="fill: #9165cc"/>
    <rect x="387.5"  y="0.000489598" height="127.049" width="12.5" style="fill: #458e19"/>
    <rect x="375"  y="0.000489598" height="135.13" width="12.5" style="fill: #9cb89f"/>
    <rect x="325"  y="0.00055954" height="110.886" width="12.5" style="fill: #51b135"/>
    <rect x="312.5"  y="0.000489598" height="107.184" width="12.5" style="fill: #f7091a"/>
    <rect x="275"  y="0.000489598" height="115.755" width="12.5" style="fill: #5abb08"/>
    <rect x="200"  y="0.00055954" height="107.025" width="12.5" style="fill: #74df3e"/>
    <rect x="187.5"  y="0.00055954" height="93.2048" width="12.5" style="fill: #8cb454"/>
    <rect x="150"  y="0.00055954" height="106.556" width="12.5" style="fill: #3a5eb9"/>
    <rect x="87.5"  y="0.00055954" height="91.4165" width="12.5" style="fill: #3b0441"/>
    <rect x="450"  y="0.000489598" height="155.059" width="12.5" style="fill: #e9ca4c"/>
    <rect x="437.5"  y="0.000489598" height="108.261" width="12.5" style="fill: #2b0fb3"/>
    <rect x="400"  y="0.000489598" height="118.869" width="12.5" style="fill: #d30875"/>
    <rect x="337.5"  y="0.000489598" height="106.561" width="12.5" style="fill: #cbf29a"/>
    <rect x="287.5"  y="0.000489598" height="70.4807" width="12.5" style="fill: #bd5b1a"/>
    <rect x="212.5"  y="0.000489598" height="67.0021" width="12.5" style="fill: #cf3898"/>
    <rect x="162.5"  y="0.00055954" height="72.0225" width="12.5" style="fill: #4b35ae"/>
    <rect x="100"  y="0.00055954" height="79.0671" width="12.5" style="fill: #882809"/>
    <rect x="462.5"  y="0.000489598" height="66.1206" width="12.5" style="fill: #dd4cfe"/>
    <rect x="412.5"  y="0.000489598" height="62.8898" width="12.5" style="fill: #7abc5c"/>
    <rect x="350"  y="0.000489598" height="63.8853" width="12.5" style="fill: #61baa5"/>
    <rect x="225"  y="0.00055954" height="76.3506" width="12.5" style="fill: #2e053b"/>
    <rect x="475"  y="0.000489598" height="73.8278" width="12.5" style="fill: #4c3643"/>
    <rect x="412.5"  y="62.8903" height="69.0019" width="12.5" style="fill: #f204ef"/>
    <rect x="350"  y="63.8858" height="55.6822" width="12.5" style="fill: #259d2e"/>
    <rect x="462.5"  y="66.1211" height="61.2124" width="12.5" style="fill: #98042a"/>
    <rect x="212.5"  y="67.0028" height="52.1685" width="12.5" style="fill: #948aac"/>
    <rect x="287.5"  y="70.4813" height="55.3064" width="12.5" style="fill: #5e884c"/>
    <rect x="162.5"  y="72.023" height="52.9361" width="12.5" style="fill: #b3ec7d"/>
    <rect x="475"  y="73.8284" height="51.5949" width="12.5" style="fill: #b92564"/>
    <rect x="225"  y="76.3512" height="50.1787" width="12.5" style="fill: #3fd34f"/>
    <rect x="100"  y="79.0678" height="52.1716" width="12.5" style="fill: #dd467e"/>
    <rect x="87.5"  y="91.4172" height="42.1419" width="12.5" style="fill: #2cca40"/>
    <rect x="187.5"  y="93.2053" height="45.6331" width="12.5" style="fill: #6035cb"/>
    <rect x="137.5"  y="101.242" height="40.848" width="12.5" style="fill: #2744cb"/>
    <rect x="150"  y="106.556" height="39.7571" width="12.5" style="fill: #90a63e"/>
    <rect x="337.5"  y="106.561" height="38.0465" width="12.5" style="fill: #51c973"/>
    <rect x="200"  y="107.026" height="39.7264" width="12.5" style="fill: #790334"/>
    <rect x="312.5"  y="107.184" height="41.5424" width="12.5" style="fill: #3947e0"/>
    <rect x="437.5"  y="108.262" height="37.9694" width="12.5" style="fill: #208654"/>
    <rect x="325"  y="110.887" height="38.7167" width="12.5" style="fill: #1e4c48"/>
    <rect x="275"  y="115.756" height="40.6556" width="12.5" style="fill: #a99630"/>
    <rect x="125"  y="116.449" height="40.8736" width="12.5" style="fill: #aa9aec"/>
    <rect x="400"  y="118.87" height="39.7982" width="12.5" style="fill: #e15384"/>
    <rect x="212.5"  y="119.171" height="25.2382" width="12.5" style="fill: #3a4b19"/>
    <rect x="350"  y="119.568" height="25.8319" width="12.5" style="fill: #0274eb"/>
    <rect x="75"  y="120.324" height="25.1669" width="12.5" style="fill: #c955f8"/>
    <rect x="62.5"  y="121.707" height="24.8808" width="12.5" style="fill: #592e30"/>
    <rect x="175"  y="122.394" height="25.276" width="12.5" style="fill: #a2205a"/>
    <rect x="37.5"  y="123.695" height="25.4543" width="12.5" style="fill: #485846"/>
    <rect x="162.5"  y="124.959" height="24.538" width="12.5" style="fill: #248987"/>
    <rect x="475"  y="125.424" height="24.9556" width="12.5" style="fill: #550aaf"/>
    <rect x="287.5"  y="125.788" height="24.724" width="12.5" style="fill: #2094ec"/>
    <rect x="225"  y="126.53" height="25.5911" width="12.5" style="fill: #59e793"/>
    <rect x="387.5"  y="127.049" height="14.9076" width="12.5" style="fill: #1dc650"/>
    <rect x="462.5"  y="127.334" height="19.7523" width="12.5" style="fill: #c7451c"/>
    <rect x="100"  y="131.239" height="17.959" width="12.5" style="fill: #c61c0c"/>
    <rect x="412.5"  y="131.892" height="15.2192" width="12.5" style="fill: #b2c46a"/>
    <rect x="87.5"  y="133.559" height="16.2459" width="12.5" style="fill: #1b3f2c"/>
    <rect x="375"  y="135.13" height="17.6808" width="12.5" style="fill: #349faf"/>
    <rect x="187.5"  y="138.838" height="17.4379" width="12.5" style="fill: #f763c7"/>
    <rect x="387.5"  y="141.957" height="15.2857" width="12.5" style="fill: #f8d14d"/>
    <rect x="137.5"  y="142.09" height="19.0484" width="12.5" style="fill: #dff946"/>
    <rect x="212.5"  y="144.41" height="16.8814" width="12.5" style="fill: #351744"/>
    <rect x="337.5"  y="144.608" height="13.7412" width="12.5" style="fill: #378d62"/>
    <rect x="350"  y="145.4" height="12.1433" width="12.5" style="fill: #c59285"/>
    <rect x="75"  y="145.491" height="12.7072" width="12.5" style="fill: #a8d791"/>
    <rect x="437.5"  y="146.231" height="12.8569" width="12.5" style="fill: #5614f5"/>
    <rect x="150"  y="146.313" height="12.8282" width="12.5" style="fill: #a2ac9e"/>
    <rect x="62.5"  y="146.588" height="13.0537" width="12.5" style="fill: #0d68ac"/>
    <rect x="200"  y="146.753" height="12.6575" width="12.5" style="fill: #a6248a"/>
    <rect x="462.5"  y="147.086" height="12.4468" width="12.5" style="fill: #9227ab"/>
    <rect x="412.5"  y="147.112" height="13.3064" width="12.5" style="fill: #8f1930"/>
    <rect x="175"  y="147.67" height="12.5037" width="12.5" style="fill: #ee38ac"/>
    <rect x="425"  y="147.753" height="12.0911" width="12.5" style="fill: #7a9d23"/>
    <rect x="312.5"  y="148.727" height="9.9731" width="12.5" style="fill: #9c9b02"/>
    <rect x="37.5"  y="149.149" height="12.0239" width="12.5" style="fill: #6a481e"/>
    <rect x="100"  y="149.199" height="11.7628" width="12.5" style="fill: #49d531"/>
    <rect x="162.5"  y="149.497" height="10.1941" width="12.5" style="fill: #61f9a9"/>
    <rect x="325"  y="149.604" height="11.8586" width="12.5" style="fill: #513fe5"/>
    <rect x="87.5"  y="149.805" height="11.7874" width="12.5" style="fill: #271c32"/>
    <rect x="475"  y="150.379" height="10.8766" width="12.5" style="fill: #e9c21d"/>
    <rect x="287.5"  y="150.512" height="10.2142" width="12.5" style="fill: #156eb9"/>
    <rect x="225"  y="152.121" height="11.1281" width="12.5" style="fill: #f1bea5"/>
    <rect x="375"  y="152.811" height="9.22738" width="12.5" style="fill: #7f6ae4"/>
    <rect x="450"  y="155.059" height="8.41171" width="12.5" style="fill: #f1b1de"/>
    <rect x="187.5"  y="156.276" height="9.9233" width="12.5" style="fill: #3b7fd9"/>
    <rect x="275"  y="156.412" height="8.92928" width="12.5" style="fill: #cee2d9"/>
    <rect x="387.5"  y="157.243" height="8.64832" width="12.5" style="fill: #cca7b4"/>
    <rect x="125"  y="157.323" height="9.03371" width="12.5" style="fill: #c242d2"/>
    <rect x="350"  y="157.543" height="8.13795" width="12.5" style="fill: #6c31d0"/>
    <rect x="75"  y="158.198" height="9.10449" width="12.5" style="fill: #00b7f9"/>
    <rect x="337.5"  y="158.349" height="9.8621" width="12.5" style="fill: #0b7fe4"/>
    <rect x="400"  y="158.668" height="8.86871" width="12.5" style="fill: #8a131c"/>
    <rect x="312.5"  y="158.7" height="6.15389" width="12.5" style="fill: #7debfb"/>
    <rect x="437.5"  y="159.088" height="6.11046" width="12.5" style="fill: #e58165"/>
    <rect x="150"  y="159.142" height="7.11238" width="12.5" style="fill: #266de5"/>
    <rect x="200"  y="159.41" height="6.78009" width="12.5" style="fill: #6e1edf"/>
    <rect x="462.5"  y="159.533" height="6.67266" width="12.5" style="fill: #26939a"/>
    <rect x="62.5"  y="159.642" height="6.0431" width="12.5" style="fill: #f07ec6"/>
    <rect x="162.5"  y="159.691" height="5.53392" width="12.5" style="fill: #9ab1b1"/>
    <rect x="425"  y="159.845" height="6.82394" width="12.5" style="fill: #7d8db6"/>
    <rect x="175"  y="160.174" height="6.40072" width="12.5" style="fill: #2143f2"/>
    <rect x="412.5"  y="160.418" height="5.66968" width="12.5" style="fill: #228b51"/>
    <rect x="287.5"  y="160.726" height="4.86681" width="12.5" style="fill: #551c3d"/>
    <rect x="100"  y="160.961" height="4.93878" width="12.5" style="fill: #2c7de3"/>
    <rect x="137.5"  y="161.138" height="4.87108" width="12.5" style="fill: #f5072b"/>
    <rect x="37.5"  y="161.173" height="4.86079" width="12.5" style="fill: #d4d18c"/>
    <rect x="475"  y="161.256" height="5.09468" width="12.5" style="fill: #3aeb64"/>
    <rect x="212.5"  y="161.291" height="4.87345" width="12.5" style="fill: #cb9e8c"/>
    <rect x="325"  y="161.462" height="4.84597" width="12.5" style="fill: #ba8386"/>
    <rect x="87.5"  y="161.593" height="4.84925" width="12.5" style="fill: #67b6ed"/>
    <rect x="375"  y="162.039" height="4.77952" width="12.5" style="fill: #2b2fca"/>
    <rect x="225"  y="163.249" height="4.89654" width="12.5" style="fill: #b04aba"/>
    <rect x="450"  y="163.471" height="4.79218" width="12.5" style="fill: #e8676e"/>
    <rect x="312.5"  y="164.854" height="4.91752" width="12.5" style="fill: #318b40"/>
    <rect x="437.5"  y="165.199" height="4.9015" width="12.5" style="fill: #2a7d15"/>
    <rect x="162.5"  y="165.225" height="4.784" width="12.5" style="fill: #b30d2d"/>
    <rect x="275"  y="165.341" height="4.99704" width="12.5" style="fill: #7ddb78"/>
    <rect x="287.5"  y="165.593" height="4.79561" width="12.5" style="fill: #650cc6"/>
    <rect x="350"  y="165.682" height="5.03852" width="12.5" style="fill: #af82bc"/>
    <rect x="62.5"  y="165.685" height="4.48415" width="12.5" style="fill: #3d7aa8"/>
    <rect x="387.5"  y="165.891" height="5.00767" width="12.5" style="fill: #05b02d"/>
    <rect x="100"  y="165.9" height="4.7514" width="12.5" style="fill: #d9aa52"/>
    <rect x="137.5"  y="166.009" height="4.49821" width="12.5" style="fill: #3b7374"/>
    <rect x="37.5"  y="166.034" height="4.57718" width="12.5" style="fill: #a1323e"/>
    <rect x="412.5"  y="166.088" height="4.45932" width="12.5" style="fill: #e6b516"/>
    <rect x="212.5"  y="166.164" height="4.51143" width="12.5" style="fill: #d1b81e"/>
    <rect x="200"  y="166.19" height="4.39351" width="12.5" style="fill: #5f709c"/>
    <rect x="187.5"  y="166.2" height="4.22614" width="12.5" style="fill: #2c790e"/>
    <rect x="462.5"  y="166.206" height="4.3179" width="12.5" style="fill: #daf1c3"/>
    <rect x="150"  y="166.254" height="4.46219" width="12.5" style="fill: #fa9b0a"/>
    <rect x="325"  y="166.308" height="4.61984" width="12.5" style="fill: #1dbc6d"/>
    <rect x="475"  y="166.351" height="4.44086" width="12.5" style="fill: #abc2b5"/>
    <rect x="125"  y="166.357" height="68.271" width="12.5" style="fill: #ed2672"/>
    <rect x="87.5"  y="166.442" height="2.91101" width="12.5" style="fill: #44c458"/>
    <rect x="175"  y="166.575" height="2.73209" width="12.5" style="fill: #752002"/>
    <rect x="425"  y="166.669" height="3.10894" width="12.5" style="fill: #b106d6"/>
    <rect x="375"  y="166.818" height="2.84169" width="12.5" style="fill: #381fad"/>
    <rect x="75"  y="167.303" height="3.06943" width="12.5" style="fill: #58a7e1"/>
    <rect x="400"  y="167.537" height="2.80288" width="12.5" style="fill: #93657b"/>
    <rect x="225"  y="168.146" height="3.02557" width="12.5" style="fill: #de0fe0"/>
    <rect x="337.5"  y="168.211" height="2.92905" width="12.5" style="fill: #29120f"/>
    <rect x="450"  y="168.263" height="2.87883" width="12.5" style="fill: #837931"/>
    <rect x="175"  y="169.307" height="2.93297" width="12.5" style="fill: #6891f8"/>
    <rect x="87.5"  y="169.353" height="2.43736" width="12.5" style="fill: #28b8d2"/>
    <rect x="375"  y="169.66" height="2.5087" width="12.5" style="fill: #4a049e"/>
    <rect x="312.5"  y="169.771" height="2.53339" width="12.5" style="fill: #5b86d8"/>
    <rect x="425"  y="169.778" height="2.41952" width="12.5" style="fill: #55bcfe"/>
    <rect x="162.5"  y="170.009" height="2.48855" width="12.5" style="fill: #d56765"/>
    <rect x="437.5"  y="170.1" height="2.51059" width="12.5" style="fill: #f9da1a"/>
    <rect x="62.5"  y="170.169" height="2.59284" width="12.5" style="fill: #c54cae"/>
    <rect x="275"  y="170.338" height="2.5094" width="12.5" style="fill: #af9257"/>
    <rect x="400"  y="170.339" height="2.58577" width="12.5" style="fill: #abc67b"/>
    <rect x="75"  y="170.372" height="2.49072" width="12.5" style="fill: #451bc7"/>
    <rect x="287.5"  y="170.389" height="2.2646" width="12.5" style="fill: #0b0e52"/>
    <rect x="187.5"  y="170.426" height="2.41414" width="12.5" style="fill: #817dd1"/>
    <rect x="137.5"  y="170.507" height="2.48156" width="12.5" style="fill: #b704a6"/>
    <rect x="462.5"  y="170.523" height="2.33104" width="12.5" style="fill: #b418a8"/>
    <rect x="412.5"  y="170.547" height="2.55563" width="12.5" style="fill: #3fd4a9"/>
    <rect x="200"  y="170.584" height="2.51171" width="12.5" style="fill: #ca4c89"/>
    <rect x="37.5"  y="170.611" height="2.46561" width="12.5" style="fill: #e1a6e7"/>
    <rect x="100"  y="170.652" height="2.33657" width="12.5" style="fill: #79f8d9"/>
    <rect x="212.5"  y="170.676" height="2.34552" width="12.5" style="fill: #e9df18"/>
    <rect x="150"  y="170.716" height="2.37364" width="12.5" style="fill: #747591"/>
    <rect x="350"  y="170.72" height="1.87712" width="12.5" style="fill: #e5b314"/>
    <rect x="475"  y="170.792" height="1.95489" width="12.5" style="fill: #c05763"/>
    <rect x="387.5"  y="170.899" height="1.80815" width="12.5" style="fill: #edcd59"/>
    <rect x="325"  y="170.928" height="1.85194" width="12.5" style="fill: #632423"/>
    <rect x="337.5"  y="171.14" height="1.83977" width="12.5" style="fill: #ca83f1"/>
    <rect x="450"  y="171.142" height="1.87677" width="12.5" style="fill: #4d6f07"/>
    <rect x="225"  y="171.172" height="1.79347" width="12.5" style="fill: #3d784d"/>
    <rect x="87.5"  y="171.79" height="1.82011" width="12.5" style="fill: #b2b700"/>
    <rect x="375"  y="172.169" height="1.90335" width="12.5" style="fill: #1643a6"/>
    <rect x="425"  y="172.197" height="1.79962" width="12.5" style="fill: #760f9f"/>
    <rect x="175"  y="172.24" height="12.2355" width="12.5" style="fill: #0dd6dd"/>
    <rect x="312.5"  y="172.305" height="1.47782" width="12.5" style="fill: #d0a59e"/>
    <rect x="162.5"  y="172.498" height="1.4397" width="12.5" style="fill: #241dc1"/>
    <rect x="350"  y="172.597" height="1.46271" width="12.5" style="fill: #ed7202"/>
    <rect x="437.5"  y="172.611" height="1.48551" width="12.5" style="fill: #878962"/>
    <rect x="287.5"  y="172.653" height="1.40249" width="12.5" style="fill: #86f5cc"/>
    <rect x="387.5"  y="172.707" height="1.42928" width="12.5" style="fill: #3addf6"/>
    <rect x="475"  y="172.746" height="1.52496" width="12.5" style="fill: #c1adf6"/>
    <rect x="62.5"  y="172.762" height="1.41214" width="12.5" style="fill: #ed35f4"/>
    <rect x="325"  y="172.78" height="1.47089" width="12.5" style="fill: #77b002"/>
    <rect x="187.5"  y="172.84" height="1.46047" width="12.5" style="fill: #2981e5"/>
    <rect x="275"  y="172.848" height="8.70288" width="12.5" style="fill: #e1fbfe"/>
    <rect x="462.5"  y="172.855" height="1.08376" width="12.5" style="fill: #1bfb8e"/>
    <rect x="75"  y="172.863" height="1.14811" width="12.5" style="fill: #26b5ba"/>
    <rect x="400"  y="172.925" height="1.05452" width="12.5" style="fill: #932532"/>
    <rect x="225"  y="172.965" height="1.0155" width="12.5" style="fill: #75bf6a"/>
    <rect x="337.5"  y="172.98" height="1.07362" width="12.5" style="fill: #44b3fa"/>
    <rect x="100"  y="172.988" height="1.05117" width="12.5" style="fill: #1051cd"/>
    <rect x="137.5"  y="172.989" height="1.02725" width="12.5" style="fill: #fe3b3f"/>
    <rect x="450"  y="173.019" height="1.04067" width="12.5" style="fill: #5d2725"/>
    <rect x="212.5"  y="173.022" height="1.11006" width="12.5" style="fill: #a9a580"/>
    <rect x="37.5"  y="173.077" height="1.00214" width="12.5" style="fill: #fd5b04"/>
    <rect x="150"  y="173.09" height="0.993603" width="12.5" style="fill: #525b31"/>
    <rect x="200"  y="173.096" height="1.05606" width="12.5" style="fill: #82fcd2"/>
    <rect x="412.5"  y="173.103" height="0.999968" width="12.5" style="fill: #b3fda1"/>
    <rect x="87.5"  y="173.61" height="0.952407" width="12.5" style="fill: #24aca3"/>
    <rect x="312.5"  y="173.782" height="1.05138" width="12.5" style="fill: #c90140"/>
    <rect x="162.5"  y="173.938" height="0.97318" width="12.5" style="fill: #6a2b55"/>
    <rect x="462.5"  y="173.938" height="0.939048" width="12.5" style="fill: #cd8b95"/>
    <rect x="400"  y="173.98" height="1.04984" width="12.5" style="fill: #d48d13"/>
    <rect x="225"  y="173.981" height="0.998429" width="12.5" style="fill: #e379f1"/>
    <rect x="425"  y="173.997" height="0.953876" width="12.5" style="fill: #ccbcdf"/>
    <rect x="75"  y="174.011" height="0.88813" width="12.5" style="fill: #c39fee"/>
    <rect x="137.5"  y="174.016" height="0.915757" width="12.5" style="fill: #4acc55"/>
    <rect x="100"  y="174.039" height="0.867497" width="12.5" style="fill: #23aa0b"/>
    <rect x="337.5"  y="174.054" height="0.86386" width="12.5" style="fill: #def57e"/>
    <rect x="287.5"  y="174.056" height="0.868546" width="12.5" style="fill: #63a1f8"/>
    <rect x="450"  y="174.06" height="0.894355" width="12.5" style="fill: #1cbaba"/>
    <rect x="350"  y="174.06" height="0.842388" width="12.5" style="fill: #9f45ca"/>
    <rect x="375"  y="174.072" height="0.911211" width="12.5" style="fill: #aed48d"/>
    <rect x="37.5"  y="174.079" height="0.957583" width="12.5" style="fill: #06bfb3"/>
    <rect x="150"  y="174.084" height="0.892816" width="12.5" style="fill: #d16836"/>
    <rect x="437.5"  y="174.097" height="8.09032" width="12.5" style="fill: #042bed"/>
    <rect x="412.5"  y="174.103" height="0.803639" width="12.5" style="fill: #57cac8"/>
    <rect x="212.5"  y="174.132" height="0.760135" width="12.5" style="fill: #4761bf"/>
    <rect x="387.5"  y="174.136" height="0.787623" width="12.5" style="fill: #eb59a0"/>
    <rect x="200"  y="174.152" height="0.813781" width="12.5" style="fill: #c81304"/>
    <rect x="62.5"  y="174.174" height="0.841898" width="12.5" style="fill: #908bb7"/>
    <rect x="325"  y="174.251" height="0.748315" width="12.5" style="fill: #81e4bb"/>
    <rect x="475"  y="174.271" height="0.796505" width="12.5" style="fill: #df230d"/>
    <rect x="187.5"  y="174.301" height="0.79098" width="12.5" style="fill: #2e9773"/>
    <rect x="87.5"  y="174.563" height="0.840569" width="12.5" style="fill: #74b97b"/>
    <rect x="312.5"  y="174.834" height="0.731319" width="12.5" style="fill: #d0b6b7"/>
    <rect x="462.5"  y="174.877" height="0.702083" width="12.5" style="fill: #d38b73"/>
    <rect x="212.5"  y="174.892" height="0.743069" width="12.5" style="fill: #642882"/>
    <rect x="75"  y="174.899" height="0.77881" width="12.5" style="fill: #6a0f27"/>
    <rect x="350"  y="174.903" height="0.73048" width="12.5" style="fill: #29be22"/>
    <rect x="412.5"  y="174.906" height="0.747196" width="12.5" style="fill: #90256d"/>
    <rect x="100"  y="174.907" height="0.727892" width="12.5" style="fill: #c304e8"/>
    <rect x="162.5"  y="174.911" height="0.744748" width="12.5" style="fill: #75c9d4"/>
    <rect x="337.5"  y="174.918" height="0.713903" width="12.5" style="fill: #b3fb21"/>
    <rect x="387.5"  y="174.924" height="0.732368" width="12.5" style="fill: #25ae3d"/>
    <rect x="287.5"  y="174.924" height="0.74237" width="12.5" style="fill: #0cd313"/>
    <rect x="137.5"  y="174.932" height="0.723415" width="12.5" style="fill: #0d6114"/>
    <rect x="425"  y="174.951" height="0.683548" width="12.5" style="fill: #989517"/>
    <rect x="450"  y="174.954" height="0.683478" width="12.5" style="fill: #aca97d"/>
    <rect x="200"  y="174.966" height="0.750483" width="12.5" style="fill: #aa2485"/>
    <rect x="150"  y="174.977" height="0.737124" width="12.5" style="fill: #181eb3"/>
    <rect x="225"  y="174.979" height="0.71768" width="12.5" style="fill: #1c07d2"/>
    <rect x="375"  y="174.983" height="0.743699" width="12.5" style="fill: #c6a5bc"/>
    <rect x="325"  y="175" height="0.715722" width="12.5" style="fill: #c587e0"/>
    <rect x="62.5"  y="175.016" height="0.745447" width="12.5" style="fill: #48a6d2"/>
    <rect x="400"  y="175.03" height="0.694949" width="12.5" style="fill: #beacd6"/>
    <rect x="37.5"  y="175.037" height="0.73027" width="12.5" style="fill: #fe206f"/>
    <rect x="475"  y="175.068" height="0.698516" width="12.5" style="fill: #225c70"/>
    <rect x="187.5"  y="175.092" height="0.719569" width="12.5" style="fill: #8461b4"/>
    <rect x="87.5"  y="175.403" height="0.719988" width="12.5" style="fill: #1fdb5a"/>
    <rect x="312.5"  y="175.565" height="0.71747" width="12.5" style="fill: #d087c5"/>
    <rect x="462.5"  y="175.58" height="0.715792" width="12.5" style="fill: #dc4fca"/>
    <rect x="337.5"  y="175.632" height="0.700404" width="12.5" style="fill: #eec3a3"/>
    <rect x="350"  y="175.633" height="0.692081" width="12.5" style="fill: #437a42"/>
    <rect x="425"  y="175.634" height="0.694739" width="12.5" style="fill: #e51b06"/>
    <rect x="212.5"  y="175.635" height="0.651235" width="12.5" style="fill: #5d6e43"/>
    <rect x="100"  y="175.635" height="7.11462" width="12.5" style="fill: #32f71b"/>
    <rect x="450"  y="175.638" height="5.45356" width="12.5" style="fill: #109d33"/>
    <rect x="412.5"  y="175.654" height="3.46824" width="12.5" style="fill: #17681a"/>
    <rect x="137.5"  y="175.655" height="0.467776" width="12.5" style="fill: #b0fcbf"/>
    <rect x="162.5"  y="175.656" height="0.467566" width="12.5" style="fill: #31c9f1"/>
    <rect x="387.5"  y="175.656" height="0.458753" width="12.5" style="fill: #c23ba4"/>
    <rect x="287.5"  y="175.667" height="0.453158" width="12.5" style="fill: #6b4f98"/>
    <rect x="75"  y="175.678" height="0.448961" width="12.5" style="fill: #3af921"/>
    <rect x="225"  y="175.697" height="0.446093" width="12.5" style="fill: #4d13ac"/>
    <rect x="150"  y="175.714" height="0.470014" width="12.5" style="fill: #3ddf6c"/>
    <rect x="325"  y="175.715" height="0.479036" width="12.5" style="fill: #03f3e9"/>
    <rect x="200"  y="175.716" height="0.464348" width="12.5" style="fill: #854c4d"/>
    <rect x="400"  y="175.725" height="0.447632" width="12.5" style="fill: #47741a"/>
    <rect x="375"  y="175.727" height="0.399791" width="12.5" style="fill: #557681"/>
    <rect x="62.5"  y="175.762" height="0.397903" width="12.5" style="fill: #2be0b5"/>
    <rect x="475"  y="175.766" height="0.440778" width="12.5" style="fill: #cb8bf6"/>
    <rect x="37.5"  y="175.767" height="0.454696" width="12.5" style="fill: #47b930"/>
    <rect x="187.5"  y="175.811" height="0.406576" width="12.5" style="fill: #687ec8"/>
    <rect x="387.5"  y="176.115" height="0.428258" width="12.5" style="fill: #81df76"/>
    <rect x="287.5"  y="176.12" height="0.420564" width="12.5" style="fill: #191f9c"/>
    <rect x="162.5"  y="176.123" height="0.414339" width="12.5" style="fill: #468c17"/>
    <rect x="137.5"  y="176.123" height="0.406226" width="12.5" style="fill: #36eef1"/>
    <rect x="87.5"  y="176.124" height="0.423922" width="12.5" style="fill: #e59635"/>
    <rect x="375"  y="176.127" height="0.391748" width="12.5" style="fill: #eb6cbd"/>
    <rect x="75"  y="176.127" height="0.378179" width="12.5" style="fill: #2c73b0"/>
    <rect x="225"  y="176.143" height="0.379088" width="12.5" style="fill: #0068c8"/>
    <rect x="62.5"  y="176.16" height="0.367688" width="12.5" style="fill: #ffeded"/>
    <rect x="400"  y="176.172" height="0.386572" width="12.5" style="fill: #ec2826"/>
    <rect x="200"  y="176.181" height="0.382586" width="12.5" style="fill: #d114dc"/>
    <rect x="150"  y="176.184" height="0.365799" width="12.5" style="fill: #1f8824"/>
    <rect x="325"  y="176.194" height="0.367618" width="12.5" style="fill: #924fa0"/>
    <rect x="475"  y="176.207" height="0.373283" width="12.5" style="fill: #79056e"/>
    <rect x="187.5"  y="176.218" height="0.337053" width="12.5" style="fill: #25a5dd"/>
    <rect x="37.5"  y="176.222" height="0.348733" width="12.5" style="fill: #baeceb"/>
    <rect x="312.5"  y="176.283" height="0.323344" width="12.5" style="fill: #90a18c"/>
    <rect x="212.5"  y="176.286" height="0.325932" width="12.5" style="fill: #51f919"/>
    <rect x="462.5"  y="176.295" height="0.326981" width="12.5" style="fill: #a83ae9"/>
    <rect x="350"  y="176.325" height="0.336843" width="12.5" style="fill: #80e25b"/>
    <rect x="425"  y="176.329" height="0.337333" width="12.5" style="fill: #f06dd4"/>
    <rect x="337.5"  y="176.332" height="0.329359" width="12.5" style="fill: #86427d"/>
    <rect x="75"  y="176.505" height="0.324603" width="12.5" style="fill: #fdee6f"/>
    <rect x="375"  y="176.519" height="0.346076" width="12.5" style="fill: #708aa6"/>
    <rect x="225"  y="176.522" height="0.3281" width="12.5" style="fill: #42625c"/>
    <rect x="62.5"  y="176.527" height="0.282148" width="12.5" style="fill: #e4c429"/>
    <rect x="137.5"  y="176.529" height="0.289002" width="12.5" style="fill: #8afdd7"/>
    <rect x="162.5"  y="176.538" height="0.275713" width="12.5" style="fill: #ac48aa"/>
    <rect x="287.5"  y="176.541" height="0.265082" width="12.5" style="fill: #81b0c5"/>
    <rect x="387.5"  y="176.544" height="0.263264" width="12.5" style="fill: #608c2d"/>
    <rect x="87.5"  y="176.547" height="0.278791" width="12.5" style="fill: #801543"/>
    <rect x="150"  y="176.55" height="0.281519" width="12.5" style="fill: #edeeab"/>
    <rect x="187.5"  y="176.555" height="0.295717" width="12.5" style="fill: #5479c1"/>
    <rect x="400"  y="176.559" height="0.2804" width="12.5" style="fill: #342e4e"/>
    <rect x="325"  y="176.562" height="0.285435" width="12.5" style="fill: #4aec71"/>
    <rect x="200"  y="176.563" height="3.55909" width="12.5" style="fill: #9f1a46"/>
    <rect x="37.5"  y="176.571" height="1.73415" width="12.5" style="fill: #e33c1d"/>
    <rect x="475"  y="176.581" height="1.29387" width="12.5" style="fill: #761efd"/>
    <rect x="312.5"  y="176.606" height="1.14055" width="12.5" style="fill: #f22116"/>
    <rect x="212.5"  y="176.612" height="0.749364" width="12.5" style="fill: #051e18"/>
    <rect x="462.5"  y="176.622" height="0.692781" width="12.5" style="fill: #fa714c"/>
    <rect x="337.5"  y="176.662" height="0.68082" width="12.5" style="fill: #72fae0"/>
    <rect x="350"  y="176.662" height="0.621579" width="12.5" style="fill: #756835"/>
    <rect x="425"  y="176.667" height="0.430077" width="12.5" style="fill: #527748"/>
    <rect x="287.5"  y="176.806" height="0.437001" width="12.5" style="fill: #e4df2e"/>
    <rect x="387.5"  y="176.807" height="0.301802" width="12.5" style="fill: #728e3d"/>
    <rect x="62.5"  y="176.809" height="0.215703" width="12.5" style="fill: #aaf94e"/>
    <rect x="162.5"  y="176.813" height="0.217591" width="12.5" style="fill: #9b3f37"/>
    <rect x="137.5"  y="176.818" height="0.142263" width="12.5" style="fill: #489c0d"/>
    <rect x="87.5"  y="176.826" height="0.136248" width="12.5" style="fill: #4e12d4"/>
    <rect x="75"  y="176.83" height="0.132191" width="12.5" style="fill: #046929"/>
    <rect x="150"  y="176.831" height="0.0950519" width="12.5" style="fill: #6d3567"/>
    <rect x="400"  y="176.84" height="0.100997" width="12.5" style="fill: #3027f5"/>
    <rect x="325"  y="176.848" height="0.100228" width="12.5" style="fill: #e4d70d"/>
    <rect x="225"  y="176.85" height="0.105124" width="12.5" style="fill: #54b668"/>
    <rect x="187.5"  y="176.851" height="0.0338522" width="12.5" style="fill: #a7c00f"/>
    <rect x="375"  y="176.865" height="0.0363002" width="12.5" style="fill: #96ccb2"/>
    <rect x="187.5"  y="176.885" height="0.0370695" width="12.5" style="fill: #3f2562"/>
    <rect x="375"  y="176.901" height="0.0404268" width="12.5" style="fill: #a468b6"/>
    <rect x="187.5"  y="176.922" height="0.0395875" width="12.5" style="fill: #50a171"/>
    <rect x="150"  y="176.926" height="0.0370695" width="12.5" style="fill: #918628"/>
    <rect x="400"  y="176.94" height="0.0353909" width="12.5" style="fill: #5be189"/>
    <rect x="375"  y="176.942" height="0.0342019" width="12.5" style="fill: #3b861e"/>
    <rect x="325"  y="176.948" height="0.0392377" width="12.5" style="fill: #8b2e3e"/>
    <rect x="225"  y="176.955" height="0.037699" width="12.5" style="fill: #49eea5"/>
    <rect x="137.5"  y="176.961" height="0.0309146" width="12.5" style="fill: #f37799"/>
    <rect x="187.5"  y="176.961" height="0.0309845" width="12.5" style="fill: #fe4dfc"/>
    <rect x="75"  y="176.962" height="0.0296556" width="12.5" style="fill: #738f99"/>
    <rect x="87.5"  y="176.963" height="0.0347614" width="12.5" style="fill: #e140f8"/>
    <rect x="150"  y="176.963" height="0.0302851" width="12.5" style="fill: #e31d1b"/>
    <rect x="375"  y="176.976" height="0.0309845" width="12.5" style="fill: #21e988"/>
    <rect x="400"  y="176.976" height="0.0321036" width="12.5" style="fill: #286756"/>
    <rect x="325"  y="176.987" height="0.031614" width="12.5" style="fill: #3c9bc2"/>
    <rect x="137.5"  y="176.992" height="0.0360204" width="12.5" style="fill: #4a39a2"/>
    <rect x="75"  y="176.992" height="0.0311244" width="12.5" style="fill: #195266"/>
    <rect x="187.5"  y="176.992" height="0.0324533" width="12.5" style="fill: #d87b20"/>
    <rect x="225"  y="176.993" height="0.0308446" width="12.5" style="fill: #348abd"/>
    <rect x="150"  y="176.994" height="0.0330828" width="12.5" style="fill: #0fa9a6"/>
    <rect x="87.5"  y="176.997" height="0.034062" width="12.5" style="fill: #bf0e8a"/>
    <rect x="375"  y="177.007" height="0.0322435" width="12.5" style="fill: #0935b9"/>
    <rect x="400"  y="177.008" height="0.0351811" width="12.5" style="fill: #b82334"/>
    <rect x="325"  y="177.019" height="0.032873" width="12.5" style="fill: #378b14"/>
    <rect x="75"  y="177.023" height="0.0330129" width="12.5" style="fill: #8132ad"/>
    <rect x="225"  y="177.024" height="0.0344117" width="12.5" style="fill: #85c834"/>
    <rect x="187.5"  y="177.025" height="0.034062" width="12.5" style="fill: #33d688"/>
    <rect x="62.5"  y="177.025" height="0.0293059" width="12.5" style="fill: #030264"/>
    <rect x="150"  y="177.027" height="0.0334325" width="12.5" style="fill: #69be4c"/>
    <rect x="137.5"  y="177.028" height="0.031614" width="12.5" style="fill: #2dd5f7"/>
    <rect x="162.5"  y="177.031" height="0.0323134" width="12.5" style="fill: #38cf0f"/>
    <rect x="87.5"  y="177.031" height="0.0332227" width="12.5" style="fill: #4321aa"/>
    <rect x="375"  y="177.039" height="0.0309146" width="12.5" style="fill: #aadac4"/>
    <rect x="400"  y="177.043" height="0.0335724" width="12.5" style="fill: #e2d902"/>
    <rect x="325"  y="177.052" height="0.0324533" width="12.5" style="fill: #53f28e"/>
    <rect x="62.5"  y="177.055" height="0.0319637" width="12.5" style="fill: #9b65b7"/>
    <rect x="75"  y="177.056" height="0.032873" width="12.5" style="fill: #4fa604"/>
    <rect x="225"  y="177.058" height="0.0342019" width="12.5" style="fill: #0aee5a"/>
    <rect x="187.5"  y="177.059" height="0.030425" width="12.5" style="fill: #23cfdd"/>
    <rect x="137.5"  y="177.059" height="0.0350412" width="12.5" style="fill: #120058"/>
    <rect x="150"  y="177.06" height="0.0324533" width="12.5" style="fill: #fe454f"/>
    <rect x="162.5"  y="177.063" height="0.0335025" width="12.5" style="fill: #c8e7fe"/>
    <rect x="87.5"  y="177.065" height="0.0344117" width="12.5" style="fill: #bf9ade"/>
    <rect x="375"  y="177.07" height="0.0321036" width="12.5" style="fill: #4f11fe"/>
    <rect x="400"  y="177.077" height="0.0331528" width="12.5" style="fill: #e01e16"/>
    <rect x="325"  y="177.084" height="0.0342718" width="12.5" style="fill: #604a58"/>
    <rect x="62.5"  y="177.087" height="0.0335025" width="12.5" style="fill: #921790"/>
    <rect x="75"  y="177.089" height="0.0335025" width="12.5" style="fill: #64ffed"/>
    <rect x="187.5"  y="177.089" height="0.0325233" width="12.5" style="fill: #d3ce4b"/>
    <rect x="225"  y="177.093" height="0.0297955" width="12.5" style="fill: #d2ce0d"/>
    <rect x="150"  y="177.093" height="0.0323134" width="12.5" style="fill: #46d812"/>
    <rect x="137.5"  y="177.095" height="0.0332227" width="12.5" style="fill: #1a422d"/>
    <rect x="425"  y="177.097" height="0.0330129" width="12.5" style="fill: #282170"/>
    <rect x="162.5"  y="177.097" height="0.0346915" width="12.5" style="fill: #e43b27"/>
    <rect x="87.5"  y="177.099" height="0.0324533" width="12.5" style="fill: #6f92d9"/>
    <rect x="375"  y="177.102" height="0.0312643" width="12.5" style="fill: #f10ca1"/>
    <rect x="387.5"  y="177.109" height="0.0309146" width="12.5" style="fill: #fbb3dd"/>
    <rect x="400"  y="177.11" height="0.0616893" width="12.5" style="fill: #1f530c"/>
    <rect x="325"  y="177.119" height="0.0548349" width="12.5" style="fill: #3f07a3"/>
    <rect x="62.5"  y="177.12" height="0.0260186" width="12.5" style="fill: #e02830"/>
    <rect x="187.5"  y="177.122" height="0.0235007" width="12.5" style="fill: #1211fb"/>
    <rect x="75"  y="177.123" height="0.0260886" width="12.5" style="fill: #2e6e13"/>
    <rect x="225"  y="177.123" height="0.0272776" width="12.5" style="fill: #b22153"/>
    <rect x="150"  y="177.125" height="0.0251793" width="12.5" style="fill: #d92e0c"/>
    <rect x="137.5"  y="177.128" height="0.0254591" width="12.5" style="fill: #1ec36f"/>
    <rect x="425"  y="177.13" height="0.0269978" width="12.5" style="fill: #382591"/>
    <rect x="162.5"  y="177.132" height="0.0276972" width="12.5" style="fill: #0cf7a0"/>
    <rect x="87.5"  y="177.132" height="0.0260886" width="12.5" style="fill: #a53d68"/>
    <rect x="375"  y="177.134" height="0.0254591" width="12.5" style="fill: #041221"/>
    <rect x="387.5"  y="177.14" height="0.0472112" width="12.5" style="fill: #e30a66"/>
    <rect x="187.5"  y="177.145" height="0.0537858" width="12.5" style="fill: #aaecf8"/>
    <rect x="62.5"  y="177.146" height="0.0387482" width="12.5" style="fill: #df4c6e"/>
    <rect x="75"  y="177.149" height="0.010981" width="12.5" style="fill: #c13fea"/>
    <rect x="225"  y="177.15" height="0.0113307" width="12.5" style="fill: #8ee900"/>
    <rect x="150"  y="177.15" height="0.0111209" width="12.5" style="fill: #be3b89"/>
    <rect x="137.5"  y="177.153" height="0.0113307" width="12.5" style="fill: #1230e2"/>
    <rect x="425"  y="177.157" height="0.0103515" width="12.5" style="fill: #8b2c78"/>
    <rect x="87.5"  y="177.158" height="0.00986189" width="12.5" style="fill: #a49d37"/>
    <rect x="375"  y="177.159" height="0.0118203" width="12.5" style="fill: #7b5555"/>
    <rect x="162.5"  y="177.159" height="0.0107012" width="12.5" style="fill: #5038bc"/>
    <rect x="75"  y="177.16" height="0.0101417" width="12.5" style="fill: #2ce5cd"/>
    <rect x="225"  y="177.161" height="0.0116804" width="12.5" style="fill: #848a00"/>
    <rect x="150"  y="177.162" height="0.00615494" width="12.5" style="fill: #2a4c87"/>
    <rect x="137.5"  y="177.165" height="0.00629483" width="12.5" style="fill: #3f3958"/>
    <rect x="425"  y="177.167" height="0.00615494" width="12.5" style="fill: #ea8233"/>
    <rect x="150"  y="177.168" height="0.00573529" width="12.5" style="fill: #e5fcac"/>
    <rect x="87.5"  y="177.168" height="0.0055954" width="12.5" style="fill: #9202c1"/>
    <rect x="75"  y="177.17" height="0.00573529" width="12.5" style="fill: #2fb6b3"/>
    <rect x="162.5"  y="177.17" height="0.00622488" width="12.5" style="fill: #de3078"/>
    <rect x="375"  y="177.171" height="0.00566534" width="12.5" style="fill: #862085"/>
    <rect x="137.5"  y="177.171" height="0.00594511" width="12.5" style="fill: #36a325"/>
    <rect x="400"  y="177.172" height="0.00566534" width="12.5" style="fill: #fc7fe4"/>
    <rect x="225"  y="177.173" height="0.00776362" width="12.5" style="fill: #003c6e"/>
    <rect x="87.5"  y="177.173" height="0.00762373" width="12.5" style="fill: #f3c244"/>
    <rect x="325"  y="177.173" height="0.00769368" width="12.5" style="fill: #acadd2"/>
    <rect x="425"  y="177.173" height="0.00776362" width="12.5" style="fill: #208d3a"/>
    <rect x="150"  y="177.173" height="0.00825322" width="12.5" style="fill: #226924"/>
    <rect x="75"  y="177.176" height="0.00776362" width="12.5" style="fill: #d240ea"/>
    <rect x="162.5"  y="177.176" height="0.00769368" width="12.5" style="fill: #eeeb02"/>
    <rect x="375"  y="177.177" height="0.00769368" width="12.5" style="fill: #fbe98b"/>
    <rect x="137.5"  y="177.177" height="0.00755379" width="12.5" style="fill: #bac37f"/>
    <rect x="400"  y="177.177" height="0.00818327" width="12.5" style="fill: #d92434"/>
    <rect x="225"  y="177.181" height="0.00636477" width="12.5" style="fill: #806d15"/>
    <rect x="87.5"  y="177.181" height="0.00412661" width="12.5" style="fill: #7f35a3"/>
    <rect x="325"  y="177.181" height="0.00650465" width="12.5" style="fill: #79e626"/>
    <rect x="425"  y="177.181" height="0.00685437" width="12.5" style="fill: #1d1d08"/>
    <rect x="150"  y="177.182" height="0.00664454" width="12.5" style="fill: #de2f25"/>
    <rect x="75"  y="177.183" height="0.00405667" width="12.5" style="fill: #3a5976"/>
    <rect x="162.5"  y="177.184" height="0.00391678" width="12.5" style="fill: #ef6140"/>
    <rect x="375"  y="177.184" height="0.0065746" width="12.5" style="fill: #5ca32c"/>
    <rect x="137.5"  y="177.185" height="0.00664454" width="12.5" style="fill: #a3ab1a"/>
    <rect x="62.5"  y="177.185" height="0.00678442" width="12.5" style="fill: #3e85da"/>
    <rect x="87.5"  y="177.185" height="0.00384684" width="12.5" style="fill: #a0509c"/>
    <rect x="400"  y="177.186" height="0.00405667" width="12.5" style="fill: #68bc90"/>
    <rect x="387.5"  y="177.187" height="0.00713414" width="12.5" style="fill: #dec72e"/>
    <rect x="225"  y="177.187" height="0.00664454" width="12.5" style="fill: #3c1d72"/>
    <rect x="75"  y="177.188" height="0.0037769" width="12.5" style="fill: #8a000d"/>
    <rect x="325"  y="177.188" height="0.00433644" width="12.5" style="fill: #bad0a7"/>
    <rect x="162.5"  y="177.188" height="0.0037769" width="12.5" style="fill: #c1f8d8"/>
    <rect x="425"  y="177.188" height="0.00405667" width="12.5" style="fill: #8a7419"/>
    <rect x="150"  y="177.188" height="0.00433644" width="12.5" style="fill: #25532c"/>
    <rect x="87.5"  y="177.189" height="0.00699425" width="12.5" style="fill: #6a66b6"/>
    <rect x="400"  y="177.19" height="0.00461621" width="12.5" style="fill: #46116b"/>
    <rect x="375"  y="177.191" height="0.00412661" width="12.5" style="fill: #82c7aa"/>
    <rect x="137.5"  y="177.191" height="0.00342718" width="12.5" style="fill: #024766"/>
    <rect x="75"  y="177.191" height="0.00461621" width="12.5" style="fill: #08b5cd"/>
    <rect x="162.5"  y="177.192" height="0.00342718" width="12.5" style="fill: #128783"/>
    <rect x="62.5"  y="177.192" height="0.00384684" width="12.5" style="fill: #ec9fef"/>
    <rect x="325"  y="177.192" height="0.00398672" width="12.5" style="fill: #a617ec"/>
    <rect x="425"  y="177.192" height="0.00202833" width="12.5" style="fill: #1ee555"/>
    <rect x="150"  y="177.193" height="0.0023081" width="12.5" style="fill: #b5d6a9"/>
    <rect x="225"  y="177.194" height="0.00209828" width="12.5" style="fill: #4bbc24"/>
    <rect x="387.5"  y="177.194" height="0.00202833" width="12.5" style="fill: #f008fe"/>
    <rect x="425"  y="177.194" height="0.00216822" width="12.5" style="fill: #7a5813"/>
    <rect x="400"  y="177.194" height="0.0023081" width="12.5" style="fill: #421376"/>
    <rect x="137.5"  y="177.195" height="0.00209828" width="12.5" style="fill: #83b595"/>
    <rect x="150"  y="177.195" height="0.00216822" width="12.5" style="fill: #fd0a92"/>
    <rect x="375"  y="177.195" height="0.00216822" width="12.5" style="fill: #e83f02"/>
    <rect x="162.5"  y="177.195" height="0.00223816" width="12.5" style="fill: #d7c20d"/>
    <rect x="62.5"  y="177.196" height="0.00125897" width="12.5" style="fill: #54f677"/>
    <rect x="325"  y="177.196" height="0.00083931" width="12.5" style="fill: #cfa753"/>
    <rect x="75"  y="177.196" height="0.000909253" width="12.5" style="fill: #c41cea"/>
    <rect x="87.5"  y="177.196" height="0.000419655" width="12.5" style="fill: #fd32c3"/>
    <rect x="225"  y="177.196" height="0.000699425" width="12.5" style="fill: #49b1cb"/>
    <rect x="387.5"  y="177.196" height="0.00027977" width="12.5" style="fill: #e1fe87"/>
</svg>
</svg>
