<svg  xmlns="http://www.w3.org/2000/svg" xmlns:xlink="http://www.w3.org/1999/xlink" x="0" y="0" width="600" height="600">
<rect x="0%" y="0%" height="100%" width="100%" style="fill: #ffffff"/>
<svg x="0" y="0">
  <text fill="dark" font-size="35" transform="translate(250, 30)">cores</text>
</svg>
<svg x="0" y="0"> 
  <text fill="dark" font-size="35" transform="translate(30, 300) rotate(270)">time</text>
</svg>
<svg x = "50" y="550">
  <text fill="blue" font-size="30" transform="translate(0, 35)">t = 0s, lb = 0.564103</text>
</svg>
<svg x="50" y="50" width="500" height="500" >
  <rect x="0%" y="0%" height="100%" width="100%" style="fill: #eeeeee"/>
    <rect x="0"  y="48.3871" height="129.032" width="12.5" style="fill: #ab2b36"/>
    <rect x="237.5"  y="48.3871" height="80.6452" width="12.5" style="fill: #c248b8"/>
    <rect x="112.5"  y="48.3871" height="241.935" width="12.5" style="fill: #7d6ae3"/>
    <rect x="50"  y="48.3871" height="129.032" width="12.5" style="fill: #3f9a62"/>
    <rect x="25"  y="48.3871" height="193.548" width="12.5" style="fill: #d7183a"/>
    <rect x="12.5"  y="48.3871" height="129.032" width="12.5" style="fill: #5d5789"/>
    <rect x="362.5"  y="32.2581" height="225.806" width="12.5" style="fill: #e4b2d6"/>
    <rect x="300"  y="32.2581" height="129.032" width="12.5" style="fill: #b441e2"/>
    <rect x="262.5"  y="32.2581" height="48.3871" width="12.5" style="fill: #411dc7"/>
    <rect x="250"  y="48.3871" height="64.5161" width="12.5" style="fill: #09e111"/>
    <rect x="175"  y="48.3871" height="161.29" width="12.5" style="fill: #c7e1e7"/>
    <rect x="137.5"  y="48.3871" height="209.677" width="12.5" style="fill: #acb6f8"/>
    <rect x="125"  y="48.3871" height="274.194" width="12.5" style="fill: #cac0bb"/>
    <rect x="75"  y="48.3871" height="161.29" width="12.5" style="fill: #2fc4c8"/>
    <rect x="62.5"  y="48.3871" height="129.032" width="12.5" style="fill: #bc2ae3"/>
    <rect x="37.5"  y="48.3871" height="80.6452" width="12.5" style="fill: #baaab9"/>
    <rect x="425"  y="32.2581" height="161.29" width="12.5" style="fill: #165cc4"/>
    <rect x="387.5"  y="32.2581" height="209.677" width="12.5" style="fill: #58e199"/>
    <rect x="375"  y="32.2581" height="177.419" width="12.5" style="fill: #cb89f5"/>
    <rect x="325"  y="32.2581" height="145.161" width="12.5" style="fill: #1b135f"/>
    <rect x="312.5"  y="32.2581" height="96.7742" width="12.5" style="fill: #7091a5"/>
    <rect x="275"  y="48.3871" height="80.6452" width="12.5" style="fill: #abb087"/>
    <rect x="200"  y="48.3871" height="225.806" width="12.5" style="fill: #4df3e8"/>
    <rect x="187.5"  y="48.3871" height="145.161" width="12.5" style="fill: #cb4543"/>
    <rect x="150"  y="48.3871" height="193.548" width="12.5" style="fill: #a5eb93"/>
    <rect x="87.5"  y="48.3871" height="64.5161" width="12.5" style="fill: #b0441e"/>
    <rect x="450"  y="32.2581" height="145.161" width="12.5" style="fill: #9ca4c2"/>
    <rect x="437.5"  y="32.2581" height="193.548" width="12.5" style="fill: #b0fb3d"/>
    <rect x="400"  y="48.3871" height="177.419" width="12.5" style="fill: #30875c"/>
    <rect x="337.5"  y="32.2581" height="64.5161" width="12.5" style="fill: #bf29ab"/>
    <rect x="287.5"  y="32.2581" height="258.065" width="12.5" style="fill: #d5b1ac"/>
    <rect x="212.5"  y="48.3871" height="145.161" width="12.5" style="fill: #f38984"/>
    <rect x="162.5"  y="48.3871" height="48.3871" width="12.5" style="fill: #b35ae8"/>
    <rect x="100"  y="48.3871" height="225.806" width="12.5" style="fill: #82809d"/>
    <rect x="462.5"  y="32.2581" height="193.548" width="12.5" style="fill: #d4cfe7"/>
    <rect x="412.5"  y="32.2581" height="145.161" width="12.5" style="fill: #abc5c6"/>
    <rect x="350"  y="32.2581" height="64.5161" width="12.5" style="fill: #1baa52"/>
    <rect x="225"  y="48.3871" height="64.5161" width="12.5" style="fill: #e053b4"/>
    <rect x="475"  y="32.2581" height="64.5161" width="12.5" style="fill: #c3643f"/>
    <rect x="262.5"  y="96.7742" height="129.032" width="12.5" style="fill: #204ef2"/>
    <rect x="162.5"  y="112.903" height="16.129" width="12.5" style="fill: #59d2e9"/>
    <rect x="87.5"  y="112.903" height="161.29" width="12.5" style="fill: #8042a9"/>
    <rect x="225"  y="112.903" height="64.5161" width="12.5" style="fill: #48aac5"/>
    <rect x="250"  y="112.903" height="112.903" width="12.5" style="fill: #e884cb"/>
    <rect x="475"  y="112.903" height="161.29" width="12.5" style="fill: #3ec7db"/>
    <rect x="350"  y="112.903" height="193.548" width="12.5" style="fill: #925643"/>
    <rect x="337.5"  y="112.903" height="80.6452" width="12.5" style="fill: #fd34fd"/>
    <rect x="275"  y="129.032" height="64.5161" width="12.5" style="fill: #d467e2"/>
    <rect x="162.5"  y="129.032" height="161.29" width="12.5" style="fill: #cca406"/>
    <rect x="37.5"  y="145.161" height="16.129" width="12.5" style="fill: #035cb2"/>
    <rect x="237.5"  y="145.161" height="129.032" width="12.5" style="fill: #744cb9"/>
    <rect x="312.5"  y="145.161" height="96.7742" width="12.5" style="fill: #0a63e5"/>
    <rect x="37.5"  y="161.29" height="48.3871" width="12.5" style="fill: #1c9737"/>
    <rect x="0"  y="177.419" height="96.7742" width="12.5" style="fill: #903343"/>
    <rect x="50"  y="177.419" height="64.5161" width="12.5" style="fill: #947e02"/>
    <rect x="62.5"  y="193.548" height="48.3871" width="12.5" style="fill: #086541"/>
    <rect x="300"  y="177.419" height="48.3871" width="12.5" style="fill: #e4c48a"/>
    <rect x="12.5"  y="193.548" height="112.903" width="12.5" style="fill: #99630a"/>
    <rect x="225"  y="193.548" height="96.7742" width="12.5" style="fill: #a9aece"/>
    <rect x="212.5"  y="193.548" height="64.5161" width="12.5" style="fill: #153843"/>
    <rect x="275"  y="193.548" height="96.7742" width="12.5" style="fill: #a4b190"/>
    <rect x="187.5"  y="209.677" height="129.032" width="12.5" style="fill: #274ebc"/>
    <rect x="450"  y="193.548" height="112.903" width="12.5" style="fill: #955f85"/>
    <rect x="412.5"  y="193.548" height="96.7742" width="12.5" style="fill: #92e30a"/>
    <rect x="325"  y="193.548" height="161.29" width="12.5" style="fill: #2205a4"/>
    <rect x="75"  y="209.677" height="80.6452" width="12.5" style="fill: #858462"/>
    <rect x="425"  y="193.548" height="16.129" width="12.5" style="fill: #489875"/>
    <rect x="337.5"  y="209.677" height="64.5161" width="12.5" style="fill: #50aaf2"/>
    <rect x="37.5"  y="225.806" height="32.2581" width="12.5" style="fill: #094ec5"/>
    <rect x="175"  y="225.806" height="96.7742" width="12.5" style="fill: #9e7931"/>
    <rect x="375"  y="209.677" height="96.7742" width="12.5" style="fill: #dc650c"/>
    <rect x="400"  y="241.935" height="112.903" width="12.5" style="fill: #7451cc"/>
    <rect x="62.5"  y="241.935" height="96.7742" width="12.5" style="fill: #61c0cb"/>
    <rect x="425"  y="225.806" height="161.29" width="12.5" style="fill: #2c46a1"/>
    <rect x="300"  y="241.935" height="16.129" width="12.5" style="fill: #b3f2c3"/>
    <rect x="250"  y="241.935" height="48.3871" width="12.5" style="fill: #49faff"/>
    <rect x="437.5"  y="241.935" height="258.065" width="12.5" style="fill: #763c7f"/>
    <rect x="262.5"  y="241.935" height="145.161" width="12.5" style="fill: #8d14dd"/>
    <rect x="25"  y="258.065" height="64.5161" width="12.5" style="fill: #ff9463"/>
    <rect x="50"  y="258.065" height="161.29" width="12.5" style="fill: #517443"/>
    <rect x="312.5"  y="241.935" height="32.2581" width="12.5" style="fill: #78d62c"/>
    <rect x="462.5"  y="241.935" height="32.2581" width="12.5" style="fill: #59285a"/>
    <rect x="150"  y="258.065" height="80.6452" width="12.5" style="fill: #8d7915"/>
    <rect x="37.5"  y="258.065" height="145.161" width="12.5" style="fill: #614f5a"/>
    <rect x="137.5"  y="258.065" height="177.419" width="12.5" style="fill: #2ac9e0"/>
    <rect x="212.5"  y="258.065" height="32.2581" width="12.5" style="fill: #d68aca"/>
    <rect x="387.5"  y="258.065" height="32.2581" width="12.5" style="fill: #6248a9"/>
    <rect x="300"  y="258.065" height="112.903" width="12.5" style="fill: #227ab8"/>
    <rect x="87.5"  y="274.194" height="64.5161" width="12.5" style="fill: #f1930e"/>
    <rect x="0"  y="290.323" height="129.032" width="12.5" style="fill: #e38ac7"/>
    <rect x="200"  y="274.194" height="112.903" width="12.5" style="fill: #a9d239"/>
    <rect x="362.5"  y="274.194" height="129.032" width="12.5" style="fill: #c9b026"/>
    <rect x="237.5"  y="274.194" height="32.2581" width="12.5" style="fill: #a481e4"/>
    <rect x="337.5"  y="274.194" height="48.3871" width="12.5" style="fill: #9d5316"/>
    <rect x="100"  y="290.323" height="145.161" width="12.5" style="fill: #1f9a95"/>
</svg>
</svg>
