<svg  xmlns="http://www.w3.org/2000/svg" xmlns:xlink="http://www.w3.org/1999/xlink" x="0" y="0" width="600" height="600">
<rect x="0%" y="0%" height="100%" width="100%" style="fill: #ffffff"/>
<svg x="0" y="0">
  <text fill="dark" font-size="35" transform="translate(250, 30)">cores</text>
</svg>
<svg x="0" y="0"> 
  <text fill="dark" font-size="35" transform="translate(30, 300) rotate(270)">time</text>
</svg>
<svg x = "50" y="550">
  <text fill="blue" font-size="30" transform="translate(0, 35)">t = 92s, lb = 0.960396</text>
</svg>
<svg x="50" y="50" width="500" height="500" >
  <rect x="0%" y="0%" height="100%" width="100%" style="fill: #eeeeee"/>
    <rect x="0"  y="0.043183" height="353.626" width="12.5" style="fill: #ab2b36"/>
    <rect x="237.5"  y="0.043183" height="369.528" width="12.5" style="fill: #c248b8"/>
    <rect x="112.5"  y="0.043183" height="329.81" width="12.5" style="fill: #7d6ae3"/>
    <rect x="50"  y="0.043183" height="364.637" width="12.5" style="fill: #3f9a62"/>
    <rect x="25"  y="0.043183" height="303.539" width="12.5" style="fill: #d7183a"/>
    <rect x="12.5"  y="0.043183" height="351.699" width="12.5" style="fill: #5d5789"/>
    <rect x="362.5"  y="0.0377851" height="370.014" width="12.5" style="fill: #e4b2d6"/>
    <rect x="300"  y="0.0377851" height="326.323" width="12.5" style="fill: #b441e2"/>
    <rect x="262.5"  y="0.0377851" height="354.338" width="12.5" style="fill: #411dc7"/>
    <rect x="250"  y="0.0377851" height="305.595" width="12.5" style="fill: #09e111"/>
    <rect x="175"  y="0.043183" height="221.405" width="12.5" style="fill: #c7e1e7"/>
    <rect x="137.5"  y="0.043183" height="219.445" width="12.5" style="fill: #acb6f8"/>
    <rect x="125"  y="0.043183" height="228.222" width="12.5" style="fill: #cac0bb"/>
    <rect x="75"  y="0.043183" height="199.97" width="12.5" style="fill: #2fc4c8"/>
    <rect x="62.5"  y="0.043183" height="204.272" width="12.5" style="fill: #bc2ae3"/>
    <rect x="37.5"  y="0.043183" height="195.959" width="12.5" style="fill: #baaab9"/>
    <rect x="425"  y="0.0377851" height="232.686" width="12.5" style="fill: #165cc4"/>
    <rect x="387.5"  y="0.0377851" height="200.483" width="12.5" style="fill: #58e199"/>
    <rect x="375"  y="0.0377851" height="229.912" width="12.5" style="fill: #cb89f5"/>
    <rect x="325"  y="0.0377851" height="217.389" width="12.5" style="fill: #1b135f"/>
    <rect x="312.5"  y="0.0377851" height="188.127" width="12.5" style="fill: #7091a5"/>
    <rect x="275"  y="0.0377851" height="174.789" width="12.5" style="fill: #abb087"/>
    <rect x="200"  y="0.043183" height="183.765" width="12.5" style="fill: #4df3e8"/>
    <rect x="187.5"  y="0.043183" height="220.455" width="12.5" style="fill: #cb4543"/>
    <rect x="150"  y="0.043183" height="191.052" width="12.5" style="fill: #a5eb93"/>
    <rect x="87.5"  y="0.043183" height="190.777" width="12.5" style="fill: #b0441e"/>
    <rect x="450"  y="0.0377851" height="167.901" width="12.5" style="fill: #9ca4c2"/>
    <rect x="437.5"  y="0.0377851" height="186.453" width="12.5" style="fill: #b0fb3d"/>
    <rect x="400"  y="0.0377851" height="185.023" width="12.5" style="fill: #30875c"/>
    <rect x="337.5"  y="0.0377851" height="219.542" width="12.5" style="fill: #bf29ab"/>
    <rect x="287.5"  y="0.0377851" height="148.452" width="12.5" style="fill: #d5b1ac"/>
    <rect x="212.5"  y="0.043183" height="159.734" width="12.5" style="fill: #f38984"/>
    <rect x="162.5"  y="0.043183" height="143.648" width="12.5" style="fill: #b35ae8"/>
    <rect x="100"  y="0.043183" height="144.82" width="12.5" style="fill: #82809d"/>
    <rect x="462.5"  y="0.0377851" height="147.162" width="12.5" style="fill: #d4cfe7"/>
    <rect x="412.5"  y="0.043183" height="148.895" width="12.5" style="fill: #abc5c6"/>
    <rect x="350"  y="0.0377851" height="157.337" width="12.5" style="fill: #1baa52"/>
    <rect x="225"  y="0.043183" height="162.865" width="12.5" style="fill: #e053b4"/>
    <rect x="475"  y="0.0377851" height="156.814" width="12.5" style="fill: #c3643f"/>
    <rect x="162.5"  y="143.692" height="147.303" width="12.5" style="fill: #204ef2"/>
    <rect x="100"  y="144.868" height="133.328" width="12.5" style="fill: #59d2e9"/>
    <rect x="462.5"  y="147.2" height="125.29" width="12.5" style="fill: #8042a9"/>
    <rect x="287.5"  y="148.496" height="132.48" width="12.5" style="fill: #48aac5"/>
    <rect x="412.5"  y="148.944" height="133.835" width="12.5" style="fill: #e884cb"/>
    <rect x="475"  y="156.857" height="129.668" width="12.5" style="fill: #3ec7db"/>
    <rect x="350"  y="157.375" height="121.981" width="12.5" style="fill: #925643"/>
    <rect x="212.5"  y="159.777" height="125.7" width="12.5" style="fill: #fd34fd"/>
    <rect x="225"  y="162.913" height="128.831" width="12.5" style="fill: #d467e2"/>
    <rect x="450"  y="167.944" height="135.8" width="12.5" style="fill: #cca406"/>
    <rect x="275"  y="174.832" height="133.365" width="12.5" style="fill: #035cb2"/>
    <rect x="200"  y="183.809" height="93.2591" width="12.5" style="fill: #744cb9"/>
    <rect x="400"  y="185.066" height="90.938" width="12.5" style="fill: #0a63e5"/>
    <rect x="437.5"  y="186.491" height="94.3495" width="12.5" style="fill: #1c9737"/>
    <rect x="312.5"  y="188.17" height="91.019" width="12.5" style="fill: #903343"/>
    <rect x="87.5"  y="190.826" height="92.7193" width="12.5" style="fill: #947e02"/>
    <rect x="150"  y="191.096" height="92.973" width="12.5" style="fill: #086541"/>
    <rect x="37.5"  y="196.008" height="98.9431" width="12.5" style="fill: #e4c48a"/>
    <rect x="75"  y="200.018" height="104.659" width="12.5" style="fill: #99630a"/>
    <rect x="387.5"  y="200.526" height="90.8679" width="12.5" style="fill: #a9aece"/>
    <rect x="62.5"  y="204.315" height="90.6466" width="12.5" style="fill: #153843"/>
    <rect x="325"  y="217.437" height="97.2644" width="12.5" style="fill: #a4b190"/>
    <rect x="137.5"  y="219.494" height="96.9135" width="12.5" style="fill: #274ebc"/>
    <rect x="337.5"  y="219.586" height="90.4198" width="12.5" style="fill: #955f85"/>
    <rect x="187.5"  y="220.503" height="97.7879" width="12.5" style="fill: #92e30a"/>
    <rect x="175"  y="221.453" height="103.423" width="12.5" style="fill: #2205a4"/>
    <rect x="125"  y="228.271" height="99.1104" width="12.5" style="fill: #858462"/>
    <rect x="375"  y="229.955" height="95.8663" width="12.5" style="fill: #489875"/>
    <rect x="425"  y="232.729" height="90.8247" width="12.5" style="fill: #50aaf2"/>
    <rect x="462.5"  y="272.496" height="94.9595" width="12.5" style="fill: #094ec5"/>
    <rect x="400"  y="276.01" height="108.379" width="12.5" style="fill: #9e7931"/>
    <rect x="200"  y="277.073" height="81.8966" width="12.5" style="fill: #dc650c"/>
    <rect x="100"  y="278.201" height="63.6734" width="12.5" style="fill: #7451cc"/>
    <rect x="312.5"  y="279.194" height="70.5826" width="12.5" style="fill: #61c0cb"/>
    <rect x="350"  y="279.362" height="73.1035" width="12.5" style="fill: #2c46a1"/>
    <rect x="437.5"  y="280.841" height="69.4167" width="12.5" style="fill: #b3f2c3"/>
    <rect x="287.5"  y="280.976" height="81.7455" width="12.5" style="fill: #49faff"/>
    <rect x="412.5"  y="282.779" height="70.4855" width="12.5" style="fill: #763c7f"/>
    <rect x="87.5"  y="283.545" height="75.0467" width="12.5" style="fill: #8d14dd"/>
    <rect x="150"  y="284.074" height="84.6603" width="12.5" style="fill: #ff9463"/>
    <rect x="212.5"  y="285.483" height="82.4094" width="12.5" style="fill: #517443"/>
    <rect x="475"  y="286.53" height="80.0991" width="12.5" style="fill: #78d62c"/>
    <rect x="162.5"  y="291" height="85.4646" width="12.5" style="fill: #59285a"/>
    <rect x="387.5"  y="291.399" height="85.9126" width="12.5" style="fill: #8d7915"/>
    <rect x="225"  y="291.744" height="80.952" width="12.5" style="fill: #614f5a"/>
    <rect x="37.5"  y="294.951" height="80.6605" width="12.5" style="fill: #2ac9e0"/>
    <rect x="62.5"  y="294.962" height="74.4259" width="12.5" style="fill: #d68aca"/>
    <rect x="25"  y="303.587" height="83.0733" width="12.5" style="fill: #6248a9"/>
    <rect x="450"  y="303.744" height="78.5445" width="12.5" style="fill: #227ab8"/>
    <rect x="75"  y="304.678" height="78.226" width="12.5" style="fill: #f1930e"/>
    <rect x="250"  y="305.639" height="70.3667" width="12.5" style="fill: #e38ac7"/>
    <rect x="275"  y="308.197" height="58.486" width="12.5" style="fill: #a9d239"/>
    <rect x="337.5"  y="310.011" height="56.5536" width="12.5" style="fill: #c9b026"/>
    <rect x="325"  y="314.702" height="51.269" width="12.5" style="fill: #a481e4"/>
    <rect x="137.5"  y="316.407" height="51.6955" width="12.5" style="fill: #9d5316"/>
    <rect x="187.5"  y="318.291" height="54.6481" width="12.5" style="fill: #1f9a95"/>
    <rect x="425"  y="323.56" height="49.7684" width="12.5" style="fill: #13fe52"/>
    <rect x="175"  y="324.882" height="53.2932" width="12.5" style="fill: #71c32e"/>
    <rect x="375"  y="325.827" height="50.1139" width="12.5" style="fill: #9c21d1"/>
    <rect x="300"  y="326.366" height="50.767" width="12.5" style="fill: #56eb9f"/>
    <rect x="125"  y="327.387" height="47.6255" width="12.5" style="fill: #1bea57"/>
    <rect x="112.5"  y="329.859" height="48.948" width="12.5" style="fill: #f6ae4f"/>
    <rect x="100"  y="341.875" height="42.4219" width="12.5" style="fill: #1b1de3"/>
    <rect x="312.5"  y="349.777" height="47.6902" width="12.5" style="fill: #b7fd9c"/>
    <rect x="437.5"  y="350.263" height="49.4014" width="12.5" style="fill: #ee2d9c"/>
    <rect x="12.5"  y="351.747" height="43.5933" width="12.5" style="fill: #ca7b4c"/>
    <rect x="350"  y="352.465" height="52.0463" width="12.5" style="fill: #242d26"/>
    <rect x="412.5"  y="353.269" height="51.6415" width="12.5" style="fill: #c31d00"/>
    <rect x="0"  y="353.669" height="44.1007" width="12.5" style="fill: #0b7f90"/>
    <rect x="262.5"  y="354.381" height="49.342" width="12.5" style="fill: #b7fe48"/>
    <rect x="87.5"  y="358.597" height="59.5656" width="12.5" style="fill: #a131c7"/>
    <rect x="200"  y="358.97" height="47.755" width="12.5" style="fill: #debfbe"/>
    <rect x="287.5"  y="362.727" height="45.3854" width="12.5" style="fill: #581652"/>
    <rect x="50"  y="364.691" height="47.7064" width="12.5" style="fill: #66de56"/>
    <rect x="325"  y="365.976" height="50.7131" width="12.5" style="fill: #e1edf2"/>
    <rect x="337.5"  y="366.57" height="47.3934" width="12.5" style="fill: #6939af"/>
    <rect x="475"  y="366.629" height="47.4204" width="12.5" style="fill: #07ec69"/>
    <rect x="275"  y="366.689" height="53.2824" width="12.5" style="fill: #ab1b17"/>
    <rect x="462.5"  y="367.455" height="50.7131" width="12.5" style="fill: #d8db62"/>
    <rect x="212.5"  y="367.892" height="49.1045" width="12.5" style="fill: #143f22"/>
    <rect x="137.5"  y="368.103" height="47.226" width="12.5" style="fill: #28b515"/>
    <rect x="150"  y="368.74" height="48.311" width="12.5" style="fill: #51c3d2"/>
    <rect x="62.5"  y="369.393" height="47.5661" width="12.5" style="fill: #c7de3f"/>
    <rect x="237.5"  y="369.571" height="52.6131" width="12.5" style="fill: #5072bd"/>
    <rect x="362.5"  y="370.051" height="56.9422" width="12.5" style="fill: #4d18c3"/>
    <rect x="225"  y="372.696" height="45.4663" width="12.5" style="fill: #aeb64c"/>
    <rect x="187.5"  y="372.945" height="48.1976" width="12.5" style="fill: #b9e8cb"/>
    <rect x="425"  y="373.328" height="46.2544" width="12.5" style="fill: #a83866"/>
    <rect x="125"  y="375.012" height="46.0763" width="12.5" style="fill: #7b6ed2"/>
    <rect x="37.5"  y="375.611" height="52.6779" width="12.5" style="fill: #b2fcab"/>
    <rect x="375"  y="375.946" height="54.1839" width="12.5" style="fill: #04abae"/>
    <rect x="250"  y="376.011" height="50.4324" width="12.5" style="fill: #8676e3"/>
    <rect x="162.5"  y="376.464" height="49.1963" width="12.5" style="fill: #18b402"/>
    <rect x="300"  y="377.139" height="47.1721" width="12.5" style="fill: #a7d15b"/>
    <rect x="387.5"  y="377.312" height="43.847" width="12.5" style="fill: #30d2d7"/>
    <rect x="175"  y="378.181" height="49.8386" width="12.5" style="fill: #ddb786"/>
    <rect x="112.5"  y="378.807" height="44.6135" width="12.5" style="fill: #50cc6a"/>
    <rect x="450"  y="382.294" height="48.419" width="12.5" style="fill: #f82bc3"/>
    <rect x="75"  y="382.904" height="50.1733" width="12.5" style="fill: #d7aa80"/>
    <rect x="100"  y="384.302" height="48.2462" width="12.5" style="fill: #5b02dd"/>
    <rect x="400"  y="384.388" height="41.9847" width="12.5" style="fill: #9aa523"/>
    <rect x="25"  y="386.661" height="29.0892" width="12.5" style="fill: #b7374a"/>
    <rect x="12.5"  y="395.341" height="28.1337" width="12.5" style="fill: #1323ee"/>
    <rect x="312.5"  y="397.473" height="27.378" width="12.5" style="fill: #6b516d"/>
    <rect x="0"  y="397.775" height="28.4954" width="12.5" style="fill: #1b81e5"/>
    <rect x="437.5"  y="399.67" height="27.0542" width="12.5" style="fill: #f709c2"/>
    <rect x="262.5"  y="403.729" height="27.9232" width="12.5" style="fill: #c790ed"/>
    <rect x="350"  y="404.517" height="27.2161" width="12.5" style="fill: #af1c3f"/>
    <rect x="412.5"  y="404.911" height="28.7599" width="12.5" style="fill: #a9b0a1"/>
    <rect x="200"  y="406.73" height="27.405" width="12.5" style="fill: #dbc6da"/>
    <rect x="287.5"  y="408.117" height="29.5156" width="12.5" style="fill: #bc2b5e"/>
    <rect x="50"  y="412.398" height="24.42" width="12.5" style="fill: #d26724"/>
    <rect x="337.5"  y="413.969" height="23.7021" width="12.5" style="fill: #4c4587"/>
    <rect x="475"  y="414.055" height="24.1123" width="12.5" style="fill: #52002b"/>
    <rect x="137.5"  y="415.334" height="22.968" width="12.5" style="fill: #106d63"/>
    <rect x="25"  y="415.755" height="25.4996" width="12.5" style="fill: #81fad5"/>
    <rect x="325"  y="416.695" height="24.9112" width="12.5" style="fill: #8a7e19"/>
    <rect x="62.5"  y="416.964" height="24.6035" width="12.5" style="fill: #3657bd"/>
    <rect x="212.5"  y="416.997" height="24.8734" width="12.5" style="fill: #e0fe02"/>
    <rect x="150"  y="417.056" height="25.397" width="12.5" style="fill: #9120f8"/>
    <rect x="87.5"  y="418.168" height="23.3566" width="12.5" style="fill: #379316"/>
    <rect x="225"  y="418.168" height="24.3876" width="12.5" style="fill: #891f82"/>
    <rect x="462.5"  y="418.168" height="22.7359" width="12.5" style="fill: #8b8d24"/>
    <rect x="425"  y="419.593" height="22.1529" width="12.5" style="fill: #a049e5"/>
    <rect x="275"  y="419.971" height="25.5536" width="12.5" style="fill: #b86d85"/>
    <rect x="125"  y="421.094" height="25.0731" width="12.5" style="fill: #5bcfed"/>
    <rect x="187.5"  y="421.142" height="22.7682" width="12.5" style="fill: #56765f"/>
    <rect x="387.5"  y="421.159" height="23.389" width="12.5" style="fill: #9da1ac"/>
    <rect x="237.5"  y="422.19" height="25.1325" width="12.5" style="fill: #54caea"/>
    <rect x="112.5"  y="423.426" height="25.8828" width="12.5" style="fill: #f9257a"/>
    <rect x="12.5"  y="423.48" height="23.9234" width="12.5" style="fill: #bc67b4"/>
    <rect x="300"  y="424.316" height="23.6265" width="12.5" style="fill: #51bc70"/>
    <rect x="312.5"  y="424.856" height="21.4458" width="12.5" style="fill: #b0e528"/>
    <rect x="162.5"  y="425.666" height="25.0893" width="12.5" style="fill: #17dd1b"/>
    <rect x="0"  y="426.27" height="23.1353" width="12.5" style="fill: #704a6b"/>
    <rect x="400"  y="426.378" height="22.8006" width="12.5" style="fill: #418a83"/>
    <rect x="250"  y="426.443" height="21.856" width="12.5" style="fill: #fd4a9c"/>
    <rect x="437.5"  y="426.729" height="22.2393" width="12.5" style="fill: #a4c89e"/>
    <rect x="362.5"  y="426.999" height="22.2878" width="12.5" style="fill: #1a6e77"/>
    <rect x="175"  y="428.025" height="23.7399" width="12.5" style="fill: #9f8d9e"/>
    <rect x="37.5"  y="428.295" height="20.6577" width="12.5" style="fill: #9df187"/>
    <rect x="375"  y="430.135" height="18.3528" width="12.5" style="fill: #47591e"/>
    <rect x="450"  y="430.713" height="17.4783" width="12.5" style="fill: #5b314c"/>
    <rect x="262.5"  y="431.652" height="16.6471" width="12.5" style="fill: #05763e"/>
    <rect x="350"  y="431.733" height="17.867" width="12.5" style="fill: #dcd596"/>
    <rect x="100"  y="432.554" height="15.6377" width="12.5" style="fill: #32423c"/>
    <rect x="75"  y="433.083" height="17.0195" width="12.5" style="fill: #a83f14"/>
    <rect x="412.5"  y="433.676" height="16.8576" width="12.5" style="fill: #d6f073"/>
    <rect x="200"  y="434.135" height="15.751" width="12.5" style="fill: #d784db"/>
    <rect x="50"  y="436.818" height="16.9547" width="12.5" style="fill: #2b7001"/>
    <rect x="287.5"  y="437.633" height="16.8954" width="12.5" style="fill: #643a67"/>
    <rect x="337.5"  y="437.671" height="16.5931" width="12.5" style="fill: #60f9f0"/>
    <rect x="475"  y="438.167" height="18.234" width="12.5" style="fill: #dd6ddd"/>
    <rect x="137.5"  y="438.302" height="18.6821" width="12.5" style="fill: #0a59e2"/>
    <rect x="462.5"  y="440.909" height="16.5499" width="12.5" style="fill: #41dc1e"/>
    <rect x="25"  y="441.26" height="18.3042" width="12.5" style="fill: #d72028"/>
    <rect x="87.5"  y="441.53" height="18.2556" width="12.5" style="fill: #789628"/>
    <rect x="62.5"  y="441.568" height="16.9223" width="12.5" style="fill: #6f5cc3"/>
    <rect x="325"  y="441.606" height="18.8818" width="12.5" style="fill: #addf6c"/>
    <rect x="425"  y="441.746" height="17.4729" width="12.5" style="fill: #1adf6e"/>
    <rect x="212.5"  y="441.876" height="17.338" width="12.5" style="fill: #d35f47"/>
    <rect x="150"  y="442.459" height="18.9196" width="12.5" style="fill: #7b0022"/>
    <rect x="225"  y="442.561" height="17.3596" width="12.5" style="fill: #981e5e"/>
    <rect x="187.5"  y="443.916" height="16.9871" width="12.5" style="fill: #1fbfe1"/>
    <rect x="387.5"  y="444.553" height="16.8306" width="12.5" style="fill: #bfb8e2"/>
    <rect x="275"  y="445.53" height="20.0261" width="12.5" style="fill: #6b5ba9"/>
    <rect x="125"  y="446.167" height="17.176" width="12.5" style="fill: #325327"/>
    <rect x="312.5"  y="446.302" height="16.9223" width="12.5" style="fill: #5bf6a4"/>
    <rect x="237.5"  y="447.328" height="16.4635" width="12.5" style="fill: #4b3fa1"/>
    <rect x="12.5"  y="447.403" height="16.5229" width="12.5" style="fill: #051cdf"/>
    <rect x="300"  y="447.943" height="16.1289" width="12.5" style="fill: #e3b3f5"/>
    <rect x="100"  y="448.191" height="16.728" width="12.5" style="fill: #d2725a"/>
    <rect x="450"  y="448.197" height="16.1828" width="12.5" style="fill: #9a580f"/>
    <rect x="262.5"  y="448.299" height="16.1343" width="12.5" style="fill: #d5b045"/>
    <rect x="250"  y="448.305" height="15.8806" width="12.5" style="fill: #25b318"/>
    <rect x="375"  y="448.488" height="16.172" width="12.5" style="fill: #2fcd2b"/>
    <rect x="37.5"  y="448.958" height="16.1828" width="12.5" style="fill: #3fda12"/>
    <rect x="437.5"  y="448.968" height="14.6822" width="12.5" style="fill: #4aca3c"/>
    <rect x="400"  y="449.184" height="16.3664" width="12.5" style="fill: #901406"/>
    <rect x="362.5"  y="449.292" height="15.3786" width="12.5" style="fill: #a2b55c"/>
    <rect x="112.5"  y="449.314" height="15.4325" width="12.5" style="fill: #d8b95d"/>
    <rect x="0"  y="449.406" height="5.99164" width="12.5" style="fill: #48d13e"/>
    <rect x="350"  y="449.6" height="6.29393" width="12.5" style="fill: #379f1c"/>
    <rect x="200"  y="449.886" height="7.08741" width="12.5" style="fill: #cbcdfc"/>
    <rect x="75"  y="450.107" height="6.89849" width="12.5" style="fill: #39fee4"/>
    <rect x="412.5"  y="450.534" height="6.22375" width="12.5" style="fill: #acc552"/>
    <rect x="162.5"  y="450.761" height="6.42887" width="12.5" style="fill: #3aa0bd"/>
    <rect x="175"  y="451.765" height="6.29932" width="12.5" style="fill: #ef57e6"/>
    <rect x="50"  y="453.773" height="6.88229" width="12.5" style="fill: #3a1f81"/>
    <rect x="337.5"  y="454.264" height="6.65558" width="12.5" style="fill: #cbaba9"/>
    <rect x="287.5"  y="454.528" height="6.88229" width="12.5" style="fill: #f45caa"/>
    <rect x="0"  y="455.403" height="44.6027" width="12.5" style="fill: #ed48d0"/>
    <rect x="350"  y="455.894" height="7.26015" width="12.5" style="fill: #6bfb3d"/>
    <rect x="475"  y="456.407" height="6.90928" width="12.5" style="fill: #168360"/>
    <rect x="412.5"  y="456.763" height="6.6232" width="12.5" style="fill: #42bed5"/>
    <rect x="200"  y="456.974" height="6.90389" width="12.5" style="fill: #7cac84"/>
    <rect x="137.5"  y="456.99" height="7.06042" width="12.5" style="fill: #761bfe"/>
    <rect x="75"  y="457.006" height="7.01724" width="12.5" style="fill: #b59a0c"/>
    <rect x="162.5"  y="457.189" height="6.69337" width="12.5" style="fill: #813049"/>
    <rect x="462.5"  y="457.465" height="6.57461" width="12.5" style="fill: #08bb78"/>
    <rect x="175"  y="458.069" height="7.51385" width="12.5" style="fill: #1e4bbd"/>
    <rect x="62.5"  y="458.496" height="6.84991" width="12.5" style="fill: #f230d2"/>
    <rect x="212.5"  y="459.214" height="5.45186" width="12.5" style="fill: #e97737"/>
    <rect x="425"  y="459.224" height="5.83511" width="12.5" style="fill: #4b97bd"/>
    <rect x="25"  y="459.57" height="5.5976" width="12.5" style="fill: #0b6b7d"/>
    <rect x="87.5"  y="459.786" height="5.3385" width="12.5" style="fill: #38b736"/>
    <rect x="225"  y="459.921" height="5.36549" width="12.5" style="fill: #428826"/>
    <rect x="325"  y="460.488" height="5.81351" width="12.5" style="fill: #a0f272"/>
    <rect x="50"  y="460.66" height="5.73255" width="12.5" style="fill: #9be229"/>
    <rect x="187.5"  y="460.909" height="5.75414" width="12.5" style="fill: #0256dc"/>
    <rect x="337.5"  y="460.925" height="5.23054" width="12.5" style="fill: #304e87"/>
    <rect x="150"  y="461.378" height="6.07801" width="12.5" style="fill: #5c9d4b"/>
    <rect x="387.5"  y="461.384" height="31.2105" width="12.5" style="fill: #3fb212"/>
    <rect x="287.5"  y="461.416" height="24.1717" width="12.5" style="fill: #5ae3d0"/>
    <rect x="350"  y="463.159" height="21.5591" width="12.5" style="fill: #cd3130"/>
    <rect x="312.5"  y="463.224" height="4.78252" width="12.5" style="fill: #d61149"/>
    <rect x="475"  y="463.316" height="4.15637" width="12.5" style="fill: #89517a"/>
    <rect x="125"  y="463.343" height="4.22114" width="12.5" style="fill: #ca97da"/>
    <rect x="412.5"  y="463.392" height="4.78792" width="12.5" style="fill: #a24851"/>
    <rect x="437.5"  y="463.656" height="4.12398" width="12.5" style="fill: #81eb31"/>
    <rect x="237.5"  y="463.791" height="3.90267" width="12.5" style="fill: #c07d2c"/>
    <rect x="200"  y="463.883" height="4.78252" width="12.5" style="fill: #6a5bcc"/>
    <rect x="162.5"  y="463.883" height="4.17256" width="12.5" style="fill: #587e04"/>
    <rect x="12.5"  y="463.926" height="3.99983" width="12.5" style="fill: #8a6d2b"/>
    <rect x="75"  y="464.029" height="3.76232" width="12.5" style="fill: #eacd6f"/>
    <rect x="462.5"  y="464.039" height="21.856" width="12.5" style="fill: #e206f2"/>
    <rect x="137.5"  y="464.05" height="3.58959" width="12.5" style="fill: #25c708"/>
    <rect x="300"  y="464.072" height="3.38447" width="12.5" style="fill: #461b41"/>
    <rect x="250"  y="464.185" height="3.37907" width="12.5" style="fill: #fdb5ad"/>
    <rect x="450"  y="464.379" height="3.49782" width="12.5" style="fill: #087c5d"/>
    <rect x="262.5"  y="464.439" height="3.76232" width="12.5" style="fill: #c4fcae"/>
    <rect x="375"  y="464.66" height="3.86488" width="12.5" style="fill: #ec3a34"/>
    <rect x="212.5"  y="464.665" height="3.97284" width="12.5" style="fill: #37a42e"/>
    <rect x="362.5"  y="464.671" height="3.21174" width="12.5" style="fill: #51b065"/>
    <rect x="112.5"  y="464.746" height="3.35208" width="12.5" style="fill: #d6e433"/>
    <rect x="100"  y="464.919" height="3.38447" width="12.5" style="fill: #2f71b1"/>
    <rect x="425"  y="465.065" height="3.50862" width="12.5" style="fill: #09d331"/>
    <rect x="87.5"  y="465.124" height="3.71914" width="12.5" style="fill: #7681ab"/>
    <rect x="37.5"  y="465.146" height="3.26572" width="12.5" style="fill: #0fcbf3"/>
    <rect x="25"  y="465.167" height="3.33589" width="12.5" style="fill: #1c9f1c"/>
    <rect x="225"  y="465.292" height="3.07679" width="12.5" style="fill: #23ba46"/>
    <rect x="62.5"  y="465.346" height="3.58419" width="12.5" style="fill: #b4f983"/>
    <rect x="400"  y="465.551" height="3.57339" width="12.5" style="fill: #af9214"/>
    <rect x="275"  y="465.556" height="3.13617" width="12.5" style="fill: #d13ac3"/>
    <rect x="175"  y="465.583" height="3.3035" width="12.5" style="fill: #ddf6c0"/>
    <rect x="337.5"  y="466.161" height="3.3143" width="12.5" style="fill: #3f3e98"/>
    <rect x="325"  y="466.306" height="11.1142" width="12.5" style="fill: #54c4d4"/>
    <rect x="50"  y="466.393" height="3.33049" width="12.5" style="fill: #7741a5"/>
    <rect x="187.5"  y="466.663" height="3.50322" width="12.5" style="fill: #576812"/>
    <rect x="150"  y="467.456" height="3.06599" width="12.5" style="fill: #be0b5c"/>
    <rect x="300"  y="467.462" height="3.33589" width="12.5" style="fill: #b8bf64"/>
    <rect x="475"  y="467.478" height="3.64357" width="12.5" style="fill: #7b9306"/>
    <rect x="125"  y="467.57" height="3.22253" width="12.5" style="fill: #87ec88"/>
    <rect x="250"  y="467.57" height="3.28731" width="12.5" style="fill: #1df761"/>
    <rect x="137.5"  y="467.645" height="3.16316" width="12.5" style="fill: #91f9c4"/>
    <rect x="237.5"  y="467.694" height="3.2981" width="12.5" style="fill: #68c173"/>
    <rect x="437.5"  y="467.785" height="3.08219" width="12.5" style="fill: #6eef1e"/>
    <rect x="75"  y="467.796" height="12.5393" width="12.5" style="fill: #59635e"/>
    <rect x="450"  y="467.877" height="2.59638" width="12.5" style="fill: #b6cbd2"/>
    <rect x="362.5"  y="467.883" height="2.49382" width="12.5" style="fill: #c73b00"/>
    <rect x="12.5"  y="467.931" height="2.61257" width="12.5" style="fill: #068c8f"/>
    <rect x="312.5"  y="468.012" height="2.46143" width="12.5" style="fill: #fedede"/>
    <rect x="162.5"  y="468.055" height="2.51541" width="12.5" style="fill: #c2826d"/>
    <rect x="112.5"  y="468.104" height="2.37507" width="12.5" style="fill: #114dc1"/>
    <rect x="412.5"  y="468.18" height="2.2833" width="12.5" style="fill: #f88249"/>
    <rect x="262.5"  y="468.207" height="2.45064" width="12.5" style="fill: #24fa07"/>
    <rect x="100"  y="468.309" height="2.38046" width="12.5" style="fill: #9056e2"/>
    <rect x="225"  y="468.368" height="2.61797" width="12.5" style="fill: #5a5ddb"/>
    <rect x="37.5"  y="468.412" height="10.9469" width="12.5" style="fill: #aeceb9"/>
    <rect x="25"  y="468.503" height="8.95508" width="12.5" style="fill: #0a18c5"/>
    <rect x="375"  y="468.525" height="2.2887" width="12.5" style="fill: #1f919a"/>
    <rect x="425"  y="468.579" height="2.33728" width="12.5" style="fill: #83ae98"/>
    <rect x="212.5"  y="468.644" height="2.43444" width="12.5" style="fill: #0e25bf"/>
    <rect x="200"  y="468.665" height="2.39666" width="12.5" style="fill: #06dd48"/>
    <rect x="275"  y="468.698" height="2.58558" width="12.5" style="fill: #6427df"/>
    <rect x="87.5"  y="468.849" height="2.47763" width="12.5" style="fill: #dee6f7"/>
    <rect x="175"  y="468.892" height="2.34268" width="12.5" style="fill: #08aa64"/>
    <rect x="62.5"  y="468.935" height="2.41825" width="12.5" style="fill: #2625ce"/>
    <rect x="400"  y="469.13" height="2.52621" width="12.5" style="fill: #4c4298"/>
    <rect x="337.5"  y="469.475" height="2.21853" width="12.5" style="fill: #afdd7a"/>
    <rect x="50"  y="469.729" height="2.35347" width="12.5" style="fill: #c48aa8"/>
    <rect x="187.5"  y="470.171" height="2.44524" width="12.5" style="fill: #1b0c56"/>
    <rect x="362.5"  y="470.382" height="2.22932" width="12.5" style="fill: #08c2d8"/>
    <rect x="412.5"  y="470.468" height="2.51001" width="12.5" style="fill: #01543e"/>
    <rect x="312.5"  y="470.479" height="2.16995" width="12.5" style="fill: #deeab5"/>
    <rect x="112.5"  y="470.479" height="2.56399" width="12.5" style="fill: #479c13"/>
    <rect x="450"  y="470.479" height="2.39666" width="12.5" style="fill: #42e4e4"/>
    <rect x="150"  y="470.528" height="2.39666" width="12.5" style="fill: #aec719"/>
    <rect x="12.5"  y="470.544" height="2.24012" width="12.5" style="fill: #f1a46e"/>
    <rect x="162.5"  y="470.571" height="2.31569" width="12.5" style="fill: #33c1d7"/>
    <rect x="262.5"  y="470.657" height="2.76911" width="12.5" style="fill: #61efdf"/>
    <rect x="100"  y="470.695" height="2.37507" width="12.5" style="fill: #221160"/>
    <rect x="125"  y="470.797" height="2.2995" width="12.5" style="fill: #51e18f"/>
    <rect x="300"  y="470.797" height="2.24552" width="12.5" style="fill: #a714c7"/>
    <rect x="137.5"  y="470.814" height="2.537" width="12.5" style="fill: #2fae07"/>
    <rect x="375"  y="470.814" height="2.22932" width="12.5" style="fill: #568355"/>
    <rect x="250"  y="470.862" height="2.61257" width="12.5" style="fill: #27748e"/>
    <rect x="437.5"  y="470.868" height="2.51541" width="12.5" style="fill: #4df2e7"/>
    <rect x="425"  y="470.916" height="2.26171" width="12.5" style="fill: #28e3da"/>
    <rect x="225"  y="470.992" height="2.46143" width="12.5" style="fill: #af94e9"/>
    <rect x="237.5"  y="470.997" height="2.12676" width="12.5" style="fill: #b3f374"/>
    <rect x="200"  y="471.067" height="2.11597" width="12.5" style="fill: #89c0d4"/>
    <rect x="212.5"  y="471.078" height="2.2941" width="12.5" style="fill: #e12d40"/>
    <rect x="475"  y="471.127" height="1.98102" width="12.5" style="fill: #469296"/>
    <rect x="175"  y="471.235" height="2.01881" width="12.5" style="fill: #d35673"/>
    <rect x="275"  y="471.283" height="2.11057" width="12.5" style="fill: #027f5e"/>
    <rect x="87.5"  y="471.326" height="2.13756" width="12.5" style="fill: #4d70d5"/>
    <rect x="62.5"  y="471.353" height="2.2779" width="12.5" style="fill: #4b668a"/>
    <rect x="400"  y="471.656" height="2.01341" width="12.5" style="fill: #7c00f9"/>
    <rect x="337.5"  y="471.699" height="2.06199" width="12.5" style="fill: #6ccb23"/>
    <rect x="50"  y="472.082" height="2.09438" width="12.5" style="fill: #f2562a"/>
    <rect x="362.5"  y="472.611" height="2.05119" width="12.5" style="fill: #468b65"/>
    <rect x="187.5"  y="472.617" height="2.16455" width="12.5" style="fill: #0a1719"/>
    <rect x="312.5"  y="472.649" height="2.16455" width="12.5" style="fill: #186285"/>
    <rect x="12.5"  y="472.784" height="2.19694" width="12.5" style="fill: #be1893"/>
    <rect x="450"  y="472.876" height="2.30489" width="12.5" style="fill: #b861e8"/>
    <rect x="162.5"  y="472.886" height="2.10517" width="12.5" style="fill: #b2e3e4"/>
    <rect x="150"  y="472.93" height="2.09438" width="12.5" style="fill: #9eea5f"/>
    <rect x="412.5"  y="472.978" height="2.00261" width="12.5" style="fill: #37799f"/>
    <rect x="112.5"  y="473.048" height="2.08898" width="12.5" style="fill: #e4dfc7"/>
    <rect x="300"  y="473.048" height="9.58663" width="12.5" style="fill: #38f99e"/>
    <rect x="375"  y="473.048" height="6.30472" width="12.5" style="fill: #140f8e"/>
    <rect x="100"  y="473.075" height="5.65698" width="12.5" style="fill: #31d1b2"/>
    <rect x="125"  y="473.097" height="7.00105" width="12.5" style="fill: #1e9882"/>
    <rect x="475"  y="473.108" height="5.58141" width="12.5" style="fill: #867563"/>
    <rect x="237.5"  y="473.129" height="1.43044" width="12.5" style="fill: #c9bc24"/>
    <rect x="425"  y="473.178" height="1.41964" width="12.5" style="fill: #a39a21"/>
    <rect x="200"  y="473.189" height="1.57618" width="12.5" style="fill: #95266d"/>
    <rect x="175"  y="473.259" height="1.54379" width="12.5" style="fill: #87b203"/>
    <rect x="137.5"  y="473.351" height="1.45203" width="12.5" style="fill: #48abd0"/>
    <rect x="212.5"  y="473.378" height="1.45203" width="12.5" style="fill: #fa9a6b"/>
    <rect x="437.5"  y="473.383" height="1.43044" width="12.5" style="fill: #f0e8a0"/>
    <rect x="275"  y="473.399" height="1.54379" width="12.5" style="fill: #935b9b"/>
    <rect x="262.5"  y="473.432" height="1.47362" width="12.5" style="fill: #823343"/>
    <rect x="225"  y="473.453" height="1.41424" width="12.5" style="fill: #78b148"/>
    <rect x="87.5"  y="473.469" height="3.97284" width="12.5" style="fill: #132ad8"/>
    <rect x="250"  y="473.48" height="1.48442" width="12.5" style="fill: #5c8343"/>
    <rect x="62.5"  y="473.637" height="1.54919" width="12.5" style="fill: #3d6880"/>
    <rect x="400"  y="473.675" height="1.50061" width="12.5" style="fill: #302646"/>
    <rect x="337.5"  y="473.761" height="1.43044" width="12.5" style="fill: #9be4c2"/>
    <rect x="50"  y="474.182" height="1.5276" width="12.5" style="fill: #dd5f73"/>
    <rect x="237.5"  y="474.56" height="1.61936" width="12.5" style="fill: #8cf0f4"/>
    <rect x="425"  y="474.603" height="1.35487" width="12.5" style="fill: #321aaa"/>
    <rect x="362.5"  y="474.662" height="1.35487" width="12.5" style="fill: #adac4e"/>
    <rect x="200"  y="474.765" height="1.42504" width="12.5" style="fill: #2d9025"/>
    <rect x="187.5"  y="474.787" height="1.44123" width="12.5" style="fill: #3f28e9"/>
    <rect x="175"  y="474.803" height="1.38725" width="12.5" style="fill: #b65b74"/>
    <rect x="137.5"  y="474.808" height="1.55459" width="12.5" style="fill: #fa6040"/>
    <rect x="312.5"  y="474.819" height="1.44663" width="12.5" style="fill: #aee5a2"/>
    <rect x="437.5"  y="474.814" height="1.43584" width="12.5" style="fill: #3cfdd1"/>
    <rect x="212.5"  y="474.83" height="1.44123" width="12.5" style="fill: #20058f"/>
    <rect x="225"  y="474.873" height="1.533" width="12.5" style="fill: #e454fc"/>
    <rect x="262.5"  y="474.905" height="1.38725" width="12.5" style="fill: #8e7feb"/>
    <rect x="275"  y="474.948" height="1.47902" width="12.5" style="fill: #f9ade4"/>
    <rect x="250"  y="474.97" height="1.46282" width="12.5" style="fill: #f11fee"/>
    <rect x="412.5"  y="474.981" height="1.48981" width="12.5" style="fill: #01e166"/>
    <rect x="12.5"  y="474.986" height="3.41686" width="12.5" style="fill: #04a589"/>
    <rect x="162.5"  y="474.997" height="3.27111" width="12.5" style="fill: #217906"/>
    <rect x="150"  y="475.024" height="0.896048" width="12.5" style="fill: #4ffedd"/>
    <rect x="112.5"  y="475.137" height="0.820477" width="12.5" style="fill: #3ce4bd"/>
    <rect x="400"  y="475.175" height="0.885252" width="12.5" style="fill: #2ce0d4"/>
    <rect x="450"  y="475.186" height="0.885252" width="12.5" style="fill: #6d8121"/>
    <rect x="62.5"  y="475.191" height="0.906843" width="12.5" style="fill: #a422d2"/>
    <rect x="337.5"  y="475.197" height="0.885252" width="12.5" style="fill: #82170e"/>
    <rect x="50"  y="475.71" height="0.825875" width="12.5" style="fill: #43b276"/>
    <rect x="150"  y="475.925" height="0.879854" width="12.5" style="fill: #f92d9f"/>
    <rect x="112.5"  y="475.958" height="0.874456" width="12.5" style="fill: #10ca1f"/>
    <rect x="425"  y="475.963" height="0.847467" width="12.5" style="fill: #bb3dd1"/>
    <rect x="362.5"  y="476.023" height="3.16316" width="12.5" style="fill: #f530c3"/>
    <rect x="400"  y="476.066" height="2.35347" width="12.5" style="fill: #f07a3e"/>
    <rect x="450"  y="476.071" height="3.39526" width="12.5" style="fill: #028301"/>
    <rect x="337.5"  y="476.082" height="2.41285" width="12.5" style="fill: #211fb2"/>
    <rect x="62.5"  y="476.104" height="1.04179" width="12.5" style="fill: #e6e13b"/>
    <rect x="237.5"  y="476.185" height="1.0256" width="12.5" style="fill: #22153d"/>
    <rect x="175"  y="476.195" height="1.0256" width="12.5" style="fill: #92e0c1"/>
    <rect x="200"  y="476.195" height="0.933833" width="12.5" style="fill: #ec36f3"/>
    <rect x="187.5"  y="476.233" height="0.977016" width="12.5" style="fill: #825910"/>
    <rect x="437.5"  y="476.249" height="0.950026" width="12.5" style="fill: #cf7a0a"/>
    <rect x="312.5"  y="476.266" height="1.03099" width="12.5" style="fill: #53d680"/>
    <rect x="212.5"  y="476.276" height="1.07958" width="12.5" style="fill: #41221e"/>
    <rect x="262.5"  y="476.293" height="1.03639" width="12.5" style="fill: #30a66a"/>
    <rect x="137.5"  y="476.363" height="1.03639" width="12.5" style="fill: #aecf8d"/>
    <rect x="225"  y="476.411" height="2.05119" width="12.5" style="fill: #f4c6ec"/>
    <rect x="275"  y="476.427" height="0.658541" width="12.5" style="fill: #13fea8"/>
    <rect x="250"  y="476.433" height="0.615358" width="12.5" style="fill: #ee900b"/>
    <rect x="412.5"  y="476.476" height="0.620756" width="12.5" style="fill: #e3b891"/>
    <rect x="50"  y="476.541" height="0.631552" width="12.5" style="fill: #230e28"/>
    <rect x="150"  y="476.805" height="0.631552" width="12.5" style="fill: #b2c78a"/>
    <rect x="425"  y="476.811" height="0.647745" width="12.5" style="fill: #49d377"/>
    <rect x="112.5"  y="476.838" height="0.63695" width="12.5" style="fill: #b55555"/>
    <rect x="250"  y="477.054" height="0.615358" width="12.5" style="fill: #038bc2"/>
    <rect x="275"  y="477.086" height="0.604562" width="12.5" style="fill: #ce5cd8"/>
    <rect x="412.5"  y="477.102" height="0.658541" width="12.5" style="fill: #48a002"/>
    <rect x="200"  y="477.129" height="0.680133" width="12.5" style="fill: #a4c873"/>
    <rect x="62.5"  y="477.145" height="0.615358" width="12.5" style="fill: #f3958e"/>
    <rect x="50"  y="477.178" height="0.653143" width="12.5" style="fill: #a8233e"/>
    <rect x="437.5"  y="477.205" height="0.620756" width="12.5" style="fill: #5fcac9"/>
    <rect x="187.5"  y="477.21" height="0.658541" width="12.5" style="fill: #202c12"/>
    <rect x="237.5"  y="477.216" height="0.663939" width="12.5" style="fill: #fb6b3d"/>
    <rect x="175"  y="477.221" height="0.593767" width="12.5" style="fill: #e30788"/>
    <rect x="312.5"  y="477.297" height="0.615358" width="12.5" style="fill: #620853"/>
    <rect x="262.5"  y="477.334" height="0.734111" width="12.5" style="fill: #6a325f"/>
    <rect x="212.5"  y="477.356" height="0.674735" width="12.5" style="fill: #c7fe40"/>
    <rect x="137.5"  y="477.399" height="1.0094" width="12.5" style="fill: #03c6ef"/>
    <rect x="325"  y="477.421" height="0.86366" width="12.5" style="fill: #3c244a"/>
    <rect x="150"  y="477.442" height="0.680133" width="12.5" style="fill: #cadd22"/>
    <rect x="87.5"  y="477.442" height="0.415637" width="12.5" style="fill: #08d3a2"/>
    <rect x="425"  y="477.458" height="0.415637" width="12.5" style="fill: #26924d"/>
    <rect x="25"  y="477.464" height="0.421034" width="12.5" style="fill: #240eae"/>
    <rect x="112.5"  y="477.48" height="0.437228" width="12.5" style="fill: #eeb02f"/>
    <rect x="250"  y="477.674" height="0.448024" width="12.5" style="fill: #be98bb"/>
    <rect x="275"  y="477.696" height="0.437228" width="12.5" style="fill: #ac37fd"/>
    <rect x="412.5"  y="477.766" height="0.404841" width="12.5" style="fill: #924348"/>
    <rect x="62.5"  y="477.766" height="0.426432" width="12.5" style="fill: #06d157"/>
    <rect x="200"  y="477.815" height="0.437228" width="12.5" style="fill: #f35a37"/>
    <rect x="175"  y="477.82" height="0.404841" width="12.5" style="fill: #9e6261"/>
    <rect x="50"  y="477.831" height="0.728713" width="12.5" style="fill: #d1d08d"/>
    <rect x="437.5"  y="477.831" height="0.453422" width="12.5" style="fill: #e2f253"/>
    <rect x="87.5"  y="477.863" height="0.512798" width="12.5" style="fill: #a5976e"/>
    <rect x="187.5"  y="477.869" height="0.496605" width="12.5" style="fill: #f61405"/>
    <rect x="425"  y="477.879" height="0.307679" width="12.5" style="fill: #ca32ca"/>
    <rect x="237.5"  y="477.885" height="0.302281" width="12.5" style="fill: #3ab1a3"/>
    <rect x="25"  y="477.89" height="0.291485" width="12.5" style="fill: #e85daa"/>
    <rect x="112.5"  y="477.917" height="0.340066" width="12.5" style="fill: #0509c6"/>
    <rect x="312.5"  y="477.917" height="0.296883" width="12.5" style="fill: #8bc90d"/>
    <rect x="212.5"  y="478.036" height="0.334668" width="12.5" style="fill: #ec72e3"/>
    <rect x="262.5"  y="478.074" height="0.372454" width="12.5" style="fill: #c1d728"/>
    <rect x="250"  y="478.122" height="0.286088" width="12.5" style="fill: #a000db"/>
    <rect x="150"  y="478.128" height="0.302281" width="12.5" style="fill: #ad0a7c"/>
    <rect x="275"  y="478.139" height="0.302281" width="12.5" style="fill: #1f8d88"/>
    <rect x="412.5"  y="478.171" height="0.291485" width="12.5" style="fill: #a74192"/>
    <rect x="25"  y="478.182" height="0.361658" width="12.5" style="fill: #5532c6"/>
    <rect x="237.5"  y="478.193" height="0.372454" width="12.5" style="fill: #a66b64"/>
    <rect x="425"  y="478.193" height="0.318475" width="12.5" style="fill: #6116b8"/>
    <rect x="62.5"  y="478.198" height="0.269894" width="12.5" style="fill: #2c7aa0"/>
    <rect x="312.5"  y="478.214" height="0.302281" width="12.5" style="fill: #247660"/>
    <rect x="175"  y="478.225" height="0.302281" width="12.5" style="fill: #8b5cd1"/>
    <rect x="200"  y="478.257" height="0.275292" width="12.5" style="fill: #28783e"/>
    <rect x="112.5"  y="478.263" height="0.286088" width="12.5" style="fill: #c9fefa"/>
    <rect x="162.5"  y="478.274" height="0.302281" width="12.5" style="fill: #617ec1"/>
    <rect x="325"  y="478.29" height="0.28069" width="12.5" style="fill: #ee555b"/>
    <rect x="437.5"  y="478.29" height="0.302281" width="12.5" style="fill: #5d6a94"/>
    <rect x="187.5"  y="478.365" height="0.275292" width="12.5" style="fill: #bbc24f"/>
    <rect x="212.5"  y="478.371" height="0.269894" width="12.5" style="fill: #008fe7"/>
    <rect x="87.5"  y="478.376" height="0.215915" width="12.5" style="fill: #a58134"/>
    <rect x="12.5"  y="478.408" height="0.210517" width="12.5" style="fill: #213768"/>
    <rect x="137.5"  y="478.414" height="0.167334" width="12.5" style="fill: #3b595f"/>
    <rect x="250"  y="478.414" height="0.17813" width="12.5" style="fill: #d0a92e"/>
    <rect x="400"  y="478.419" height="0.167334" width="12.5" style="fill: #83f02d"/>
    <rect x="150"  y="478.43" height="0.10256" width="12.5" style="fill: #7c20d5"/>
    <rect x="275"  y="478.446" height="0.134947" width="12.5" style="fill: #4f677c"/>
    <rect x="262.5"  y="478.446" height="0.0755703" width="12.5" style="fill: #fa753c"/>
    <rect x="412.5"  y="478.468" height="0.0755703" width="12.5" style="fill: #41ceaf"/>
    <rect x="225"  y="478.468" height="0.0485809" width="12.5" style="fill: #d32c34"/>
    <rect x="62.5"  y="478.473" height="0.0377851" width="12.5" style="fill: #9b1cbe"/>
    <rect x="337.5"  y="478.5" height="0.0323873" width="12.5" style="fill: #1fe875"/>
</svg>
</svg>
