<svg  xmlns="http://www.w3.org/2000/svg" xmlns:xlink="http://www.w3.org/1999/xlink" x="0" y="0" width="600" height="600">
<rect x="0%" y="0%" height="100%" width="100%" style="fill: #ffffff"/>
<svg x="0" y="0">
  <text fill="dark" font-size="35" transform="translate(250, 30)">cores</text>
</svg>
<svg x="0" y="0"> 
  <text fill="dark" font-size="35" transform="translate(30, 300) rotate(270)">time</text>
</svg>
<svg x = "50" y="550">
  <text fill="blue" font-size="30" transform="translate(0, 35)">t = 8s, lb = 0.668458</text>
</svg>
<svg x="50" y="50" width="500" height="500" >
  <rect x="0%" y="0%" height="100%" width="100%" style="fill: #eeeeee"/>
    <rect x="0"  y="1.27986" height="120.734" width="12.5" style="fill: #ab2b36"/>
    <rect x="12.5"  y="1.27986" height="211.543" width="12.5" style="fill: #c248b8"/>
    <rect x="25"  y="1.27986" height="141.394" width="12.5" style="fill: #7d6ae3"/>
    <rect x="37.5"  y="1.27986" height="178.023" width="12.5" style="fill: #3f9a62"/>
    <rect x="50"  y="1.27986" height="192.223" width="12.5" style="fill: #d7183a"/>
    <rect x="62.5"  y="1.27986" height="61.1287" width="12.5" style="fill: #5d5789"/>
    <rect x="75"  y="1.27986" height="13.3471" width="12.5" style="fill: #e4b2d6"/>
    <rect x="87.5"  y="1.27986" height="4.99756" width="12.5" style="fill: #b441e2"/>
    <rect x="100"  y="1.27986" height="183.325" width="12.5" style="fill: #411dc7"/>
    <rect x="112.5"  y="1.27986" height="289.493" width="12.5" style="fill: #09e111"/>
    <rect x="125"  y="1.27986" height="235.982" width="12.5" style="fill: #c7e1e7"/>
    <rect x="137.5"  y="1.27986" height="295.344" width="12.5" style="fill: #acb6f8"/>
    <rect x="150"  y="1.27986" height="43.3325" width="12.5" style="fill: #cac0bb"/>
    <rect x="162.5"  y="1.27986" height="120.795" width="12.5" style="fill: #2fc4c8"/>
    <rect x="175"  y="1.27986" height="14.9927" width="12.5" style="fill: #bc2ae3"/>
    <rect x="187.5"  y="1.27986" height="23.2813" width="12.5" style="fill: #baaab9"/>
    <rect x="200"  y="1.27986" height="14.9927" width="12.5" style="fill: #165cc4"/>
    <rect x="212.5"  y="1.27986" height="281.265" width="12.5" style="fill: #58e199"/>
    <rect x="225"  y="1.27986" height="235.068" width="12.5" style="fill: #cb89f5"/>
    <rect x="237.5"  y="1.27986" height="24.805" width="12.5" style="fill: #1b135f"/>
    <rect x="250"  y="1.27986" height="84.2272" width="12.5" style="fill: #7091a5"/>
    <rect x="262.5"  y="1.27986" height="143.101" width="12.5" style="fill: #abb087"/>
    <rect x="275"  y="1.27986" height="448.745" width="12.5" style="fill: #4df3e8"/>
    <rect x="287.5"  y="1.27986" height="219.222" width="12.5" style="fill: #cb4543"/>
    <rect x="300"  y="1.27986" height="259.447" width="12.5" style="fill: #a5eb93"/>
    <rect x="312.5"  y="1.27986" height="350.256" width="12.5" style="fill: #b0441e"/>
    <rect x="325"  y="1.27986" height="122.014" width="12.5" style="fill: #9ca4c2"/>
    <rect x="337.5"  y="1.27986" height="106.107" width="12.5" style="fill: #b0fb3d"/>
    <rect x="350"  y="1.27986" height="4.63189" width="12.5" style="fill: #30875c"/>
    <rect x="362.5"  y="1.27986" height="174.976" width="12.5" style="fill: #bf29ab"/>
    <rect x="375"  y="1.27986" height="317.894" width="12.5" style="fill: #d5b1ac"/>
    <rect x="387.5"  y="1.27986" height="32.3623" width="12.5" style="fill: #f38984"/>
    <rect x="400"  y="1.27986" height="130.363" width="12.5" style="fill: #b35ae8"/>
    <rect x="412.5"  y="1.27986" height="156.021" width="12.5" style="fill: #82809d"/>
    <rect x="425"  y="1.27986" height="128.535" width="12.5" style="fill: #d4cfe7"/>
    <rect x="437.5"  y="1.27986" height="98.2448" width="12.5" style="fill: #abc5c6"/>
    <rect x="450"  y="1.27986" height="132.984" width="12.5" style="fill: #1baa52"/>
    <rect x="462.5"  y="1.27986" height="314.725" width="12.5" style="fill: #e053b4"/>
    <rect x="475"  y="1.27986" height="92.5768" width="12.5" style="fill: #c3643f"/>
    <rect x="350"  y="7.19161" height="234.824" width="12.5" style="fill: #204ef2"/>
    <rect x="87.5"  y="7.49634" height="217.76" width="12.5" style="fill: #59d2e9"/>
    <rect x="75"  y="15.9069" height="58.8128" width="12.5" style="fill: #8042a9"/>
    <rect x="200"  y="17.4915" height="97.4525" width="12.5" style="fill: #48aac5"/>
    <rect x="175"  y="16.943" height="160.775" width="12.5" style="fill: #e884cb"/>
    <rect x="187.5"  y="25.7801" height="174.671" width="12.5" style="fill: #3ec7db"/>
    <rect x="237.5"  y="27.3647" height="23.4642" width="12.5" style="fill: #925643"/>
    <rect x="387.5"  y="34.861" height="116.65" width="12.5" style="fill: #fd34fd"/>
    <rect x="150"  y="45.8922" height="217.638" width="12.5" style="fill: #d467e2"/>
    <rect x="237.5"  y="52.0478" height="216.297" width="12.5" style="fill: #cca406"/>
    <rect x="62.5"  y="63.6884" height="13.7738" width="12.5" style="fill: #035cb2"/>
    <rect x="75"  y="75.9995" height="119.941" width="12.5" style="fill: #744cb9"/>
    <rect x="62.5"  y="78.6811" height="60.4583" width="12.5" style="fill: #0a63e5"/>
    <rect x="250"  y="86.7869" height="173.818" width="12.5" style="fill: #1c9737"/>
    <rect x="475"  y="95.1365" height="253.901" width="12.5" style="fill: #903343"/>
    <rect x="437.5"  y="100.744" height="48.391" width="12.5" style="fill: #947e02"/>
    <rect x="337.5"  y="108.667" height="184.605" width="12.5" style="fill: #086541"/>
    <rect x="200"  y="116.224" height="258.411" width="12.5" style="fill: #e4c48a"/>
    <rect x="0"  y="123.294" height="181.192" width="12.5" style="fill: #99630a"/>
    <rect x="162.5"  y="122.745" height="66.6138" width="12.5" style="fill: #a9aece"/>
    <rect x="325"  y="124.512" height="375.427" width="12.5" style="fill: #153843"/>
    <rect x="425"  y="131.095" height="134.203" width="12.5" style="fill: #a4b190"/>
    <rect x="400"  y="132.923" height="39.1882" width="12.5" style="fill: #274ebc"/>
    <rect x="450"  y="135.483" height="23.0985" width="12.5" style="fill: #955f85"/>
    <rect x="62.5"  y="140.358" height="67.7718" width="12.5" style="fill: #92e30a"/>
    <rect x="25"  y="143.954" height="87.2136" width="12.5" style="fill: #2205a4"/>
    <rect x="262.5"  y="145.661" height="119.332" width="12.5" style="fill: #858462"/>
    <rect x="437.5"  y="150.353" height="152.73" width="12.5" style="fill: #489875"/>
    <rect x="387.5"  y="152.791" height="47.5378" width="12.5" style="fill: #50aaf2"/>
    <rect x="412.5"  y="158.52" height="308.508" width="12.5" style="fill: #094ec5"/>
    <rect x="450"  y="159.861" height="4.20527" width="12.5" style="fill: #9e7931"/>
    <rect x="450"  y="165.346" height="12.6158" width="12.5" style="fill: #dc650c"/>
    <rect x="400"  y="173.391" height="123.415" width="12.5" style="fill: #7451cc"/>
    <rect x="362.5"  y="177.535" height="290.895" width="12.5" style="fill: #61c0cb"/>
    <rect x="175"  y="178.998" height="72.099" width="12.5" style="fill: #2c46a1"/>
    <rect x="450"  y="179.181" height="21.0873" width="12.5" style="fill: #b3f2c3"/>
    <rect x="37.5"  y="180.583" height="53.5714" width="12.5" style="fill: #49faff"/>
    <rect x="100"  y="185.885" height="54.3028" width="12.5" style="fill: #763c7f"/>
    <rect x="162.5"  y="190.578" height="17.0648" width="12.5" style="fill: #8d14dd"/>
    <rect x="50"  y="194.783" height="128.352" width="12.5" style="fill: #ff9463"/>
    <rect x="75"  y="197.16" height="122.014" width="12.5" style="fill: #517443"/>
    <rect x="450"  y="201.548" height="68.9298" width="12.5" style="fill: #78d62c"/>
    <rect x="387.5"  y="201.548" height="53.2667" width="12.5" style="fill: #59285a"/>
    <rect x="187.5"  y="201.731" height="149.927" width="12.5" style="fill: #8d7915"/>
    <rect x="162.5"  y="208.922" height="203.011" width="12.5" style="fill: #614f5a"/>
    <rect x="62.5"  y="209.41" height="275.841" width="12.5" style="fill: #2ac9e0"/>
    <rect x="12.5"  y="214.103" height="16.0897" width="12.5" style="fill: #d68aca"/>
    <rect x="287.5"  y="221.782" height="74.4759" width="12.5" style="fill: #6248a9"/>
    <rect x="87.5"  y="226.536" height="137.128" width="12.5" style="fill: #227ab8"/>
    <rect x="12.5"  y="231.412" height="171.928" width="12.5" style="fill: #f1930e"/>
    <rect x="25"  y="232.448" height="49.0005" width="12.5" style="fill: #e38ac7"/>
    <rect x="37.5"  y="235.434" height="200.024" width="12.5" style="fill: #a9d239"/>
    <rect x="225"  y="237.628" height="231.046" width="12.5" style="fill: #c9b026"/>
    <rect x="125"  y="238.603" height="92.0283" width="12.5" style="fill: #a481e4"/>
    <rect x="100"  y="241.468" height="144.929" width="12.5" style="fill: #9d5316"/>
    <rect x="350"  y="243.296" height="30.7167" width="12.5" style="fill: #1f9a95"/>
</svg>
</svg>
