<svg  xmlns="http://www.w3.org/2000/svg" xmlns:xlink="http://www.w3.org/1999/xlink" x="0" y="0" width="600" height="600">
<rect x="0%" y="0%" height="100%" width="100%" style="fill: #ffffff"/>
<svg x="0" y="0">
  <text fill="dark" font-size="35" transform="translate(250, 30)">cores</text>
</svg>
<svg x="0" y="0"> 
  <text fill="dark" font-size="35" transform="translate(30, 300) rotate(270)">time</text>
</svg>
<svg x = "50" y="550">
  <text fill="blue" font-size="30" transform="translate(0, 35)">t = 1091s, lb = 0.662237</text>
</svg>
<svg x="50" y="50" width="500" height="500" >
  <rect x="0%" y="0%" height="100%" width="100%" style="fill: #eeeeee"/>
    <rect x="0"  y="0.00412354" height="399.7" width="12.5" style="fill: #dab2b3"/>
    <rect x="237.5"  y="0.00366537" height="326.066" width="12.5" style="fill: #6c248b"/>
    <rect x="112.5"  y="0.00412354" height="363.419" width="12.5" style="fill: #87d6ae"/>
    <rect x="50"  y="0.00412354" height="339.389" width="12.5" style="fill: #33f9a6"/>
    <rect x="25"  y="0.00412354" height="499.996" width="12.5" style="fill: #2d7183"/>
    <rect x="12.5"  y="0.00412354" height="355.136" width="12.5" style="fill: #a5d578"/>
    <rect x="362.5"  y="0.00366537" height="360.683" width="12.5" style="fill: #9e4b2d"/>
    <rect x="300"  y="0.00366537" height="356.773" width="12.5" style="fill: #6b441e"/>
    <rect x="262.5"  y="0.00366537" height="453.871" width="12.5" style="fill: #2411dc"/>
    <rect x="250"  y="0.00366537" height="399.491" width="12.5" style="fill: #709e11"/>
    <rect x="175"  y="0.00412354" height="218.29" width="12.5" style="fill: #1c7e1e"/>
    <rect x="137.5"  y="0.00412354" height="199.299" width="12.5" style="fill: #7acb6f"/>
    <rect x="125"  y="0.00412354" height="194.77" width="12.5" style="fill: #8cac0b"/>
    <rect x="75"  y="0.00412354" height="214.451" width="12.5" style="fill: #b2fc4c"/>
    <rect x="62.5"  y="0.00412354" height="226.414" width="12.5" style="fill: #8bc2ae"/>
    <rect x="37.5"  y="0.00412354" height="231.306" width="12.5" style="fill: #3baaab"/>
    <rect x="425"  y="0.00366537" height="214.123" width="12.5" style="fill: #9165cc"/>
    <rect x="387.5"  y="0.00366537" height="205.996" width="12.5" style="fill: #458e19"/>
    <rect x="375"  y="0.00366537" height="207.079" width="12.5" style="fill: #9cb89f"/>
    <rect x="325"  y="0.00366537" height="229.728" width="12.5" style="fill: #51b135"/>
    <rect x="312.5"  y="0.00366537" height="115.027" width="12.5" style="fill: #f7091a"/>
    <rect x="275"  y="0.00366537" height="121.048" width="12.5" style="fill: #5abb08"/>
    <rect x="200"  y="0.00366537" height="113.999" width="12.5" style="fill: #74df3e"/>
    <rect x="187.5"  y="0.00366537" height="136.875" width="12.5" style="fill: #8cb454"/>
    <rect x="150"  y="0.00412354" height="127.18" width="12.5" style="fill: #3a5eb9"/>
    <rect x="87.5"  y="0.00412354" height="115.86" width="12.5" style="fill: #3b0441"/>
    <rect x="450"  y="0.00366537" height="117.339" width="12.5" style="fill: #e9ca4c"/>
    <rect x="437.5"  y="0.00366537" height="133.179" width="12.5" style="fill: #2b0fb3"/>
    <rect x="400"  y="0.00366537" height="128.79" width="12.5" style="fill: #d30875"/>
    <rect x="337.5"  y="0.00366537" height="128.207" width="12.5" style="fill: #cbf29a"/>
    <rect x="287.5"  y="0.00366537" height="128.602" width="12.5" style="fill: #bd5b1a"/>
    <rect x="212.5"  y="0.00366537" height="115.246" width="12.5" style="fill: #cf3898"/>
    <rect x="162.5"  y="0.00366537" height="138.375" width="12.5" style="fill: #4b35ae"/>
    <rect x="100"  y="0.00412354" height="115.671" width="12.5" style="fill: #882809"/>
    <rect x="462.5"  y="0.00366537" height="121.129" width="12.5" style="fill: #dd4cfe"/>
    <rect x="412.5"  y="0.00412354" height="114.177" width="12.5" style="fill: #7abc5c"/>
    <rect x="350"  y="0.00366537" height="108.537" width="12.5" style="fill: #61baa5"/>
    <rect x="225"  y="0.00366537" height="135.176" width="12.5" style="fill: #2e053b"/>
    <rect x="475"  y="0.00366537" height="110.96" width="12.5" style="fill: #4c3643"/>
    <rect x="350"  y="108.541" height="134.14" width="12.5" style="fill: #f204ef"/>
    <rect x="475"  y="110.964" height="74.5627" width="12.5" style="fill: #259d2e"/>
    <rect x="200"  y="114.003" height="74.4111" width="12.5" style="fill: #98042a"/>
    <rect x="412.5"  y="114.181" height="69.6447" width="12.5" style="fill: #948aac"/>
    <rect x="312.5"  y="115.03" height="62.3543" width="12.5" style="fill: #5e884c"/>
    <rect x="212.5"  y="115.25" height="74.6585" width="12.5" style="fill: #b3ec7d"/>
    <rect x="100"  y="115.675" height="78.3834" width="12.5" style="fill: #b92564"/>
    <rect x="87.5"  y="115.865" height="65.3265" width="12.5" style="fill: #3fd34f"/>
    <rect x="450"  y="117.344" height="89.0625" width="12.5" style="fill: #dd467e"/>
    <rect x="275"  y="121.052" height="78.3559" width="12.5" style="fill: #2cca40"/>
    <rect x="462.5"  y="121.133" height="68.3916" width="12.5" style="fill: #6035cb"/>
    <rect x="150"  y="127.185" height="54.2021" width="12.5" style="fill: #2744cb"/>
    <rect x="337.5"  y="128.211" height="61.8292" width="12.5" style="fill: #90a63e"/>
    <rect x="287.5"  y="128.606" height="57.801" width="12.5" style="fill: #51c973"/>
    <rect x="400"  y="128.793" height="66.3445" width="12.5" style="fill: #790334"/>
    <rect x="437.5"  y="133.183" height="59.3409" width="12.5" style="fill: #3947e0"/>
    <rect x="225"  y="135.18" height="54.5164" width="12.5" style="fill: #208654"/>
    <rect x="187.5"  y="136.879" height="51.3573" width="12.5" style="fill: #1e4c48"/>
    <rect x="162.5"  y="138.38" height="57.4853" width="12.5" style="fill: #a99630"/>
    <rect x="312.5"  y="177.385" height="58.1982" width="12.5" style="fill: #aa9aec"/>
    <rect x="87.5"  y="181.191" height="59.7258" width="12.5" style="fill: #e15384"/>
    <rect x="150"  y="181.388" height="44.4691" width="12.5" style="fill: #3a4b19"/>
    <rect x="412.5"  y="183.826" height="50.6063" width="12.5" style="fill: #0274eb"/>
    <rect x="475"  y="185.527" height="53.2285" width="12.5" style="fill: #c955f8"/>
    <rect x="287.5"  y="186.407" height="52.1733" width="12.5" style="fill: #592e30"/>
    <rect x="187.5"  y="188.237" height="42.8907" width="12.5" style="fill: #a2205a"/>
    <rect x="200"  y="188.415" height="52.8761" width="12.5" style="fill: #485846"/>
    <rect x="462.5"  y="189.525" height="52.2232" width="12.5" style="fill: #248987"/>
    <rect x="225"  y="189.697" height="48.5006" width="12.5" style="fill: #550aaf"/>
    <rect x="212.5"  y="189.909" height="56.5461" width="12.5" style="fill: #2094ec"/>
    <rect x="337.5"  y="190.041" height="51.2285" width="12.5" style="fill: #59e793"/>
    <rect x="437.5"  y="192.524" height="38.7397" width="12.5" style="fill: #1dc650"/>
    <rect x="100"  y="194.059" height="30.2374" width="12.5" style="fill: #c7451c"/>
    <rect x="125"  y="194.774" height="31.3765" width="12.5" style="fill: #c61c0c"/>
    <rect x="400"  y="195.138" height="38.162" width="12.5" style="fill: #b2c46a"/>
    <rect x="162.5"  y="195.865" height="33.737" width="12.5" style="fill: #1b3f2c"/>
    <rect x="137.5"  y="199.303" height="30.4386" width="12.5" style="fill: #349faf"/>
    <rect x="275"  y="199.408" height="35.221" width="12.5" style="fill: #f763c7"/>
    <rect x="387.5"  y="206" height="31.6234" width="12.5" style="fill: #f8d14d"/>
    <rect x="450"  y="206.406" height="35.5096" width="12.5" style="fill: #dff946"/>
    <rect x="375"  y="207.082" height="36.8814" width="12.5" style="fill: #351744"/>
    <rect x="425"  y="214.128" height="26.6477" width="12.5" style="fill: #378d62"/>
    <rect x="75"  y="214.456" height="30.3382" width="12.5" style="fill: #c59285"/>
    <rect x="175"  y="218.295" height="27.6951" width="12.5" style="fill: #a8d791"/>
    <rect x="100"  y="224.297" height="27.4073" width="12.5" style="fill: #5614f5"/>
    <rect x="150"  y="225.858" height="27.1013" width="12.5" style="fill: #a2ac9e"/>
    <rect x="125"  y="226.151" height="24.76" width="12.5" style="fill: #0d68ac"/>
    <rect x="62.5"  y="226.418" height="31.8273" width="12.5" style="fill: #a6248a"/>
    <rect x="162.5"  y="229.602" height="25.2173" width="12.5" style="fill: #9227ab"/>
    <rect x="325"  y="229.732" height="23.1051" width="12.5" style="fill: #8f1930"/>
    <rect x="137.5"  y="229.742" height="31.6307" width="12.5" style="fill: #ee38ac"/>
    <rect x="187.5"  y="231.128" height="24.7687" width="12.5" style="fill: #7a9d23"/>
    <rect x="437.5"  y="231.264" height="28.1633" width="12.5" style="fill: #9c9b02"/>
    <rect x="37.5"  y="231.31" height="30.9861" width="12.5" style="fill: #6a481e"/>
    <rect x="400"  y="233.301" height="29.3064" width="12.5" style="fill: #49d531"/>
    <rect x="412.5"  y="234.432" height="28.9729" width="12.5" style="fill: #61f9a9"/>
    <rect x="275"  y="234.629" height="26.7512" width="12.5" style="fill: #513fe5"/>
    <rect x="312.5"  y="235.584" height="23.7255" width="12.5" style="fill: #271c32"/>
    <rect x="387.5"  y="237.624" height="26.5483" width="12.5" style="fill: #e9c21d"/>
    <rect x="225"  y="238.198" height="27.4903" width="12.5" style="fill: #156eb9"/>
    <rect x="287.5"  y="238.581" height="22.0325" width="12.5" style="fill: #f1bea5"/>
    <rect x="475"  y="238.756" height="25.2805" width="12.5" style="fill: #7f6ae4"/>
    <rect x="425"  y="240.776" height="24.9167" width="12.5" style="fill: #f1b1de"/>
    <rect x="87.5"  y="240.918" height="23.7007" width="12.5" style="fill: #3b7fd9"/>
    <rect x="337.5"  y="241.269" height="24.399" width="12.5" style="fill: #cee2d9"/>
    <rect x="200"  y="241.292" height="26.7425" width="12.5" style="fill: #cca7b4"/>
    <rect x="462.5"  y="241.748" height="24.7582" width="12.5" style="fill: #c242d2"/>
    <rect x="450"  y="241.916" height="24.8608" width="12.5" style="fill: #6c31d0"/>
    <rect x="350"  y="242.682" height="25.6333" width="12.5" style="fill: #00b7f9"/>
    <rect x="375"  y="243.964" height="23.8061" width="12.5" style="fill: #0b7fe4"/>
    <rect x="75"  y="244.794" height="23.4904" width="12.5" style="fill: #8a131c"/>
    <rect x="175"  y="245.991" height="21.9395" width="12.5" style="fill: #7debfb"/>
    <rect x="212.5"  y="246.455" height="23.3264" width="12.5" style="fill: #e58165"/>
    <rect x="125"  y="250.912" height="23.3346" width="12.5" style="fill: #266de5"/>
    <rect x="100"  y="251.704" height="22.5635" width="12.5" style="fill: #6e1edf"/>
    <rect x="325"  y="252.838" height="23.9935" width="12.5" style="fill: #26939a"/>
    <rect x="150"  y="252.959" height="21.5368" width="12.5" style="fill: #f07ec6"/>
    <rect x="162.5"  y="254.82" height="20.5279" width="12.5" style="fill: #9ab1b1"/>
    <rect x="187.5"  y="255.897" height="22.7825" width="12.5" style="fill: #7d8db6"/>
    <rect x="62.5"  y="258.246" height="23.5614" width="12.5" style="fill: #2143f2"/>
    <rect x="312.5"  y="259.309" height="24.5598" width="12.5" style="fill: #228b51"/>
    <rect x="437.5"  y="259.428" height="27.6543" width="12.5" style="fill: #551c3d"/>
    <rect x="287.5"  y="260.614" height="23.0519" width="12.5" style="fill: #2c7de3"/>
    <rect x="137.5"  y="261.373" height="24.9625" width="12.5" style="fill: #f5072b"/>
    <rect x="275"  y="261.381" height="23.0927" width="12.5" style="fill: #d4d18c"/>
    <rect x="37.5"  y="262.296" height="26.5171" width="12.5" style="fill: #3aeb64"/>
    <rect x="400"  y="262.607" height="23.681" width="12.5" style="fill: #cb9e8c"/>
    <rect x="412.5"  y="263.406" height="27.789" width="12.5" style="fill: #ba8386"/>
    <rect x="475"  y="264.037" height="25.0601" width="12.5" style="fill: #67b6ed"/>
    <rect x="387.5"  y="264.173" height="24.4741" width="12.5" style="fill: #2b2fca"/>
    <rect x="87.5"  y="264.618" height="21.8323" width="12.5" style="fill: #b04aba"/>
    <rect x="337.5"  y="265.669" height="9.66053" width="12.5" style="fill: #e8676e"/>
    <rect x="225"  y="265.688" height="10.8596" width="12.5" style="fill: #318b40"/>
    <rect x="425"  y="265.693" height="9.45436" width="12.5" style="fill: #2a7d15"/>
    <rect x="462.5"  y="266.507" height="9.44611" width="12.5" style="fill: #b30d2d"/>
    <rect x="450"  y="266.777" height="10.3643" width="12.5" style="fill: #7ddb78"/>
    <rect x="375"  y="267.77" height="9.8241" width="12.5" style="fill: #650cc6"/>
    <rect x="175"  y="267.931" height="9.29674" width="12.5" style="fill: #af82bc"/>
    <rect x="200"  y="268.035" height="9.89786" width="12.5" style="fill: #3d7aa8"/>
    <rect x="75"  y="268.285" height="9.05529" width="12.5" style="fill: #05b02d"/>
    <rect x="350"  y="268.315" height="9.86442" width="12.5" style="fill: #d9aa52"/>
    <rect x="212.5"  y="269.782" height="7.74034" width="12.5" style="fill: #3b7374"/>
    <rect x="125"  y="274.247" height="7.91032" width="12.5" style="fill: #a1323e"/>
    <rect x="100"  y="274.268" height="7.39304" width="12.5" style="fill: #e6b516"/>
    <rect x="150"  y="274.496" height="7.52958" width="12.5" style="fill: #d1b81e"/>
    <rect x="425"  y="275.148" height="8.29702" width="12.5" style="fill: #5f709c"/>
    <rect x="337.5"  y="275.329" height="7.90757" width="12.5" style="fill: #2c790e"/>
    <rect x="162.5"  y="275.348" height="8.33642" width="12.5" style="fill: #daf1c3"/>
    <rect x="462.5"  y="275.953" height="8.24982" width="12.5" style="fill: #fa9b0a"/>
    <rect x="225"  y="276.548" height="7.89749" width="12.5" style="fill: #1dbc6d"/>
    <rect x="325"  y="276.832" height="7.91719" width="12.5" style="fill: #abc2b5"/>
    <rect x="450"  y="277.142" height="8.62278" width="12.5" style="fill: #ed2672"/>
    <rect x="175"  y="277.228" height="8.47112" width="12.5" style="fill: #44c458"/>
    <rect x="75"  y="277.34" height="9.09057" width="12.5" style="fill: #752002"/>
    <rect x="212.5"  y="277.522" height="9.40167" width="12.5" style="fill: #b106d6"/>
    <rect x="375"  y="277.594" height="8.48532" width="12.5" style="fill: #381fad"/>
    <rect x="200"  y="277.933" height="8.6576" width="12.5" style="fill: #58a7e1"/>
    <rect x="350"  y="278.18" height="8.927" width="12.5" style="fill: #93657b"/>
    <rect x="187.5"  y="278.68" height="8.23287" width="12.5" style="fill: #de0fe0"/>
    <rect x="100"  y="281.662" height="9.03879" width="12.5" style="fill: #29120f"/>
    <rect x="62.5"  y="281.808" height="8.89493" width="12.5" style="fill: #837931"/>
    <rect x="150"  y="282.026" height="5.91178" width="12.5" style="fill: #6891f8"/>
    <rect x="125"  y="282.158" height="5.95072" width="12.5" style="fill: #28b8d2"/>
    <rect x="337.5"  y="283.237" height="6.10192" width="12.5" style="fill: #4a049e"/>
    <rect x="425"  y="283.445" height="5.69644" width="12.5" style="fill: #5b86d8"/>
    <rect x="287.5"  y="283.666" height="6.23387" width="12.5" style="fill: #55bcfe"/>
    <rect x="162.5"  y="283.685" height="5.82427" width="12.5" style="fill: #d56765"/>
    <rect x="312.5"  y="283.869" height="6.46891" width="12.5" style="fill: #f9da1a"/>
    <rect x="462.5"  y="284.202" height="6.20592" width="12.5" style="fill: #c54cae"/>
    <rect x="225"  y="284.446" height="5.73126" width="12.5" style="fill: #af9257"/>
    <rect x="275"  y="284.474" height="6.07993" width="12.5" style="fill: #abc67b"/>
    <rect x="325"  y="284.749" height="6.85561" width="12.5" style="fill: #451bc7"/>
    <rect x="175"  y="285.699" height="6.40202" width="12.5" style="fill: #0b0e52"/>
    <rect x="450"  y="285.765" height="6.38461" width="12.5" style="fill: #817dd1"/>
    <rect x="375"  y="286.08" height="6.17385" width="12.5" style="fill: #b704a6"/>
    <rect x="400"  y="286.289" height="6.70304" width="12.5" style="fill: #b418a8"/>
    <rect x="137.5"  y="286.336" height="6.07626" width="12.5" style="fill: #3fd4a9"/>
    <rect x="75"  y="286.431" height="6.57567" width="12.5" style="fill: #ca4c89"/>
    <rect x="87.5"  y="286.451" height="6.26411" width="12.5" style="fill: #e1a6e7"/>
    <rect x="200"  y="286.59" height="6.17843" width="12.5" style="fill: #79f8d9"/>
    <rect x="187.5"  y="286.913" height="6.43501" width="12.5" style="fill: #e9df18"/>
    <rect x="212.5"  y="286.924" height="6.23112" width="12.5" style="fill: #747591"/>
    <rect x="437.5"  y="287.083" height="6.36445" width="12.5" style="fill: #e5b314"/>
    <rect x="350"  y="287.107" height="6.20776" width="12.5" style="fill: #c05763"/>
    <rect x="150"  y="287.938" height="6.2128" width="12.5" style="fill: #edcd59"/>
    <rect x="125"  y="288.109" height="6.9193" width="12.5" style="fill: #632423"/>
    <rect x="387.5"  y="288.647" height="6.65447" width="12.5" style="fill: #ca83f1"/>
    <rect x="37.5"  y="288.813" height="6.33834" width="12.5" style="fill: #4d6f07"/>
    <rect x="475"  y="289.098" height="6.22059" width="12.5" style="fill: #3d784d"/>
    <rect x="425"  y="289.142" height="6.10742" width="12.5" style="fill: #b2b700"/>
    <rect x="337.5"  y="289.339" height="5.84947" width="12.5" style="fill: #1643a6"/>
    <rect x="162.5"  y="289.509" height="47.7945" width="12.5" style="fill: #760f9f"/>
    <rect x="287.5"  y="289.9" height="4.1469" width="12.5" style="fill: #0dd6dd"/>
    <rect x="225"  y="290.177" height="4.6738" width="12.5" style="fill: #d0a59e"/>
    <rect x="312.5"  y="290.338" height="4.19639" width="12.5" style="fill: #241dc1"/>
    <rect x="462.5"  y="290.409" height="4.26924" width="12.5" style="fill: #ed7202"/>
    <rect x="275"  y="290.554" height="4.10429" width="12.5" style="fill: #878962"/>
    <rect x="100"  y="290.701" height="4.28848" width="12.5" style="fill: #86f5cc"/>
    <rect x="62.5"  y="290.703" height="4.59316" width="12.5" style="fill: #3addf6"/>
    <rect x="412.5"  y="291.195" height="4.56155" width="12.5" style="fill: #c1adf6"/>
    <rect x="325"  y="291.605" height="4.58217" width="12.5" style="fill: #ed35f4"/>
    <rect x="175"  y="292.102" height="4.8589" width="12.5" style="fill: #77b002"/>
    <rect x="450"  y="292.149" height="5.07012" width="12.5" style="fill: #2981e5"/>
    <rect x="375"  y="292.254" height="4.87585" width="12.5" style="fill: #e1fbfe"/>
    <rect x="137.5"  y="292.412" height="4.17485" width="12.5" style="fill: #1bfb8e"/>
    <rect x="87.5"  y="292.716" height="5.17641" width="12.5" style="fill: #26b5ba"/>
    <rect x="200"  y="292.769" height="4.78055" width="12.5" style="fill: #932532"/>
    <rect x="400"  y="292.992" height="4.42776" width="12.5" style="fill: #75bf6a"/>
    <rect x="75"  y="293.008" height="4.66876" width="12.5" style="fill: #44b3fa"/>
    <rect x="212.5"  y="293.155" height="4.92854" width="12.5" style="fill: #1051cd"/>
    <rect x="350"  y="293.315" height="4.60508" width="12.5" style="fill: #fe3b3f"/>
    <rect x="187.5"  y="293.348" height="4.61515" width="12.5" style="fill: #5d2725"/>
    <rect x="437.5"  y="293.447" height="4.63577" width="12.5" style="fill: #a9a580"/>
    <rect x="287.5"  y="294.047" height="4.90518" width="12.5" style="fill: #fd5b04"/>
    <rect x="150"  y="294.151" height="5.05317" width="12.5" style="fill: #525b31"/>
    <rect x="312.5"  y="294.535" height="4.39569" width="12.5" style="fill: #82fcd2"/>
    <rect x="275"  y="294.659" height="4.15469" width="12.5" style="fill: #b3fda1"/>
    <rect x="462.5"  y="294.679" height="4.74573" width="12.5" style="fill: #24aca3"/>
    <rect x="225"  y="294.851" height="4.30543" width="12.5" style="fill: #c90140"/>
    <rect x="100"  y="294.99" height="4.99589" width="12.5" style="fill: #6a2b55"/>
    <rect x="125"  y="295.029" height="4.77918" width="12.5" style="fill: #cd8b95"/>
    <rect x="37.5"  y="295.152" height="4.2138" width="12.5" style="fill: #d48d13"/>
    <rect x="337.5"  y="295.189" height="3.93615" width="12.5" style="fill: #e379f1"/>
    <rect x="425"  y="295.249" height="4.40577" width="12.5" style="fill: #ccbcdf"/>
    <rect x="62.5"  y="295.296" height="4.09421" width="12.5" style="fill: #c39fee"/>
    <rect x="387.5"  y="295.302" height="4.04336" width="12.5" style="fill: #4acc55"/>
    <rect x="475"  y="295.319" height="4.02778" width="12.5" style="fill: #23aa0b"/>
    <rect x="412.5"  y="295.757" height="3.79457" width="12.5" style="fill: #def57e"/>
    <rect x="325"  y="296.187" height="4.52169" width="12.5" style="fill: #63a1f8"/>
    <rect x="137.5"  y="296.588" height="4.28023" width="12.5" style="fill: #1cbaba"/>
    <rect x="175"  y="296.961" height="3.96822" width="12.5" style="fill: #9f45ca"/>
    <rect x="375"  y="297.13" height="3.70523" width="12.5" style="fill: #aed48d"/>
    <rect x="450"  y="297.22" height="25.4005" width="12.5" style="fill: #06bfb3"/>
    <rect x="400"  y="297.42" height="3.37351" width="12.5" style="fill: #d16836"/>
    <rect x="200"  y="297.55" height="3.56549" width="12.5" style="fill: #042bed"/>
    <rect x="75"  y="297.676" height="3.49493" width="12.5" style="fill: #57cac8"/>
    <rect x="87.5"  y="297.892" height="3.37855" width="12.5" style="fill: #4761bf"/>
    <rect x="350"  y="297.921" height="3.4372" width="12.5" style="fill: #eb59a0"/>
    <rect x="187.5"  y="297.963" height="3.11785" width="12.5" style="fill: #c81304"/>
    <rect x="437.5"  y="298.083" height="3.06929" width="12.5" style="fill: #908bb7"/>
    <rect x="212.5"  y="298.084" height="3.67545" width="12.5" style="fill: #81e4bb"/>
    <rect x="275"  y="298.814" height="3.87154" width="12.5" style="fill: #df230d"/>
    <rect x="312.5"  y="298.931" height="3.40283" width="12.5" style="fill: #2e9773"/>
    <rect x="287.5"  y="298.953" height="2.79713" width="12.5" style="fill: #74b97b"/>
    <rect x="337.5"  y="299.126" height="3.20124" width="12.5" style="fill: #d0b6b7"/>
    <rect x="225"  y="299.157" height="2.83928" width="12.5" style="fill: #d38b73"/>
    <rect x="150"  y="299.204" height="2.81317" width="12.5" style="fill: #642882"/>
    <rect x="387.5"  y="299.345" height="3.20216" width="12.5" style="fill: #6a0f27"/>
    <rect x="475"  y="299.346" height="2.93962" width="12.5" style="fill: #29be22"/>
    <rect x="37.5"  y="299.366" height="3.21957" width="12.5" style="fill: #90256d"/>
    <rect x="62.5"  y="299.391" height="2.75681" width="12.5" style="fill: #c304e8"/>
    <rect x="462.5"  y="299.424" height="2.87869" width="12.5" style="fill: #75c9d4"/>
    <rect x="412.5"  y="299.552" height="2.79805" width="12.5" style="fill: #b3fb21"/>
    <rect x="425"  y="299.656" height="17.558" width="12.5" style="fill: #25ae3d"/>
    <rect x="125"  y="299.808" height="2.1589" width="12.5" style="fill: #0cd313"/>
    <rect x="100"  y="299.986" height="2.35454" width="12.5" style="fill: #0d6114"/>
    <rect x="325"  y="300.709" height="2.47825" width="12.5" style="fill: #989517"/>
    <rect x="400"  y="300.793" height="2.42235" width="12.5" style="fill: #aca97d"/>
    <rect x="375"  y="300.836" height="2.22488" width="12.5" style="fill: #aa2485"/>
    <rect x="137.5"  y="300.868" height="2.59645" width="12.5" style="fill: #181eb3"/>
    <rect x="175"  y="300.929" height="2.31697" width="12.5" style="fill: #1c07d2"/>
    <rect x="187.5"  y="301.081" height="2.22717" width="12.5" style="fill: #c6a5bc"/>
    <rect x="200"  y="301.116" height="2.32247" width="12.5" style="fill: #c587e0"/>
    <rect x="437.5"  y="301.152" height="2.344" width="12.5" style="fill: #48a6d2"/>
    <rect x="75"  y="301.172" height="18.6059" width="12.5" style="fill: #beacd6"/>
    <rect x="87.5"  y="301.271" height="2.02191" width="12.5" style="fill: #fe206f"/>
    <rect x="350"  y="301.358" height="1.96143" width="12.5" style="fill: #225c70"/>
    <rect x="287.5"  y="301.75" height="2.19097" width="12.5" style="fill: #8461b4"/>
    <rect x="212.5"  y="301.76" height="1.97517" width="12.5" style="fill: #1fdb5a"/>
    <rect x="125"  y="301.967" height="2.16119" width="12.5" style="fill: #d087c5"/>
    <rect x="225"  y="301.997" height="2.12637" width="12.5" style="fill: #dc4fca"/>
    <rect x="150"  y="302.018" height="1.94494" width="12.5" style="fill: #eec3a3"/>
    <rect x="62.5"  y="302.148" height="1.93073" width="12.5" style="fill: #437a42"/>
    <rect x="475"  y="302.286" height="1.99625" width="12.5" style="fill: #e51b06"/>
    <rect x="462.5"  y="302.303" height="2.07276" width="12.5" style="fill: #5d6e43"/>
    <rect x="337.5"  y="302.327" height="1.66453" width="12.5" style="fill: #32f71b"/>
    <rect x="312.5"  y="302.334" height="1.77037" width="12.5" style="fill: #109d33"/>
    <rect x="100"  y="302.341" height="1.74197" width="12.5" style="fill: #17681a"/>
    <rect x="412.5"  y="302.351" height="1.70714" width="12.5" style="fill: #b0fcbf"/>
    <rect x="387.5"  y="302.548" height="1.7493" width="12.5" style="fill: #31c9f1"/>
    <rect x="37.5"  y="302.586" height="1.80153" width="12.5" style="fill: #c23ba4"/>
    <rect x="275"  y="302.686" height="1.74655" width="12.5" style="fill: #6b4f98"/>
    <rect x="375"  y="303.061" height="1.65491" width="12.5" style="fill: #3af921"/>
    <rect x="325"  y="303.188" height="1.8084" width="12.5" style="fill: #4d13ac"/>
    <rect x="400"  y="303.216" height="1.67828" width="12.5" style="fill: #3ddf6c"/>
    <rect x="175"  y="303.246" height="1.54495" width="12.5" style="fill: #03f3e9"/>
    <rect x="87.5"  y="303.293" height="1.56694" width="12.5" style="fill: #854c4d"/>
    <rect x="187.5"  y="303.309" height="1.56007" width="12.5" style="fill: #47741a"/>
    <rect x="350"  y="303.32" height="1.55778" width="12.5" style="fill: #557681"/>
    <rect x="200"  y="303.439" height="1.51792" width="12.5" style="fill: #2be0b5"/>
    <rect x="137.5"  y="303.465" height="1.66728" width="12.5" style="fill: #cb8bf6"/>
    <rect x="437.5"  y="303.497" height="1.64392" width="12.5" style="fill: #47b930"/>
    <rect x="212.5"  y="303.735" height="1.52021" width="12.5" style="fill: #687ec8"/>
    <rect x="287.5"  y="303.941" height="1.71081" width="12.5" style="fill: #81df76"/>
    <rect x="150"  y="303.963" height="1.4689" width="12.5" style="fill: #191f9c"/>
    <rect x="337.5"  y="303.992" height="1.78274" width="12.5" style="fill: #468c17"/>
    <rect x="412.5"  y="304.058" height="1.90187" width="12.5" style="fill: #36eef1"/>
    <rect x="62.5"  y="304.079" height="1.70531" width="12.5" style="fill: #e59635"/>
    <rect x="100"  y="304.083" height="1.69065" width="12.5" style="fill: #eb6cbd"/>
    <rect x="312.5"  y="304.104" height="1.7328" width="12.5" style="fill: #2c73b0"/>
    <rect x="225"  y="304.123" height="1.81848" width="12.5" style="fill: #0068c8"/>
    <rect x="125"  y="304.128" height="1.93302" width="12.5" style="fill: #ffeded"/>
    <rect x="475"  y="304.283" height="1.73784" width="12.5" style="fill: #ec2826"/>
    <rect x="387.5"  y="304.297" height="1.82123" width="12.5" style="fill: #d114dc"/>
    <rect x="462.5"  y="304.376" height="1.72959" width="12.5" style="fill: #1f8824"/>
    <rect x="37.5"  y="304.388" height="1.62742" width="12.5" style="fill: #924fa0"/>
    <rect x="275"  y="304.432" height="1.64025" width="12.5" style="fill: #79056e"/>
    <rect x="375"  y="304.717" height="1.6123" width="12.5" style="fill: #25a5dd"/>
    <rect x="175"  y="304.792" height="1.57977" width="12.5" style="fill: #baeceb"/>
    <rect x="87.5"  y="304.86" height="1.57519" width="12.5" style="fill: #90a18c"/>
    <rect x="187.5"  y="304.869" height="1.4918" width="12.5" style="fill: #51f919"/>
    <rect x="350"  y="304.878" height="1.57107" width="12.5" style="fill: #a83ae9"/>
    <rect x="400"  y="304.894" height="1.59169" width="12.5" style="fill: #80e25b"/>
    <rect x="200"  y="304.957" height="1.59856" width="12.5" style="fill: #f06dd4"/>
    <rect x="325"  y="304.997" height="1.66224" width="12.5" style="fill: #86427d"/>
    <rect x="137.5"  y="305.132" height="7.83151" width="12.5" style="fill: #fdee6f"/>
    <rect x="437.5"  y="305.141" height="1.48402" width="12.5" style="fill: #708aa6"/>
    <rect x="212.5"  y="305.256" height="1.40704" width="12.5" style="fill: #42625c"/>
    <rect x="150"  y="305.432" height="1.61093" width="12.5" style="fill: #e4c429"/>
    <rect x="287.5"  y="305.653" height="1.51242" width="12.5" style="fill: #8afdd7"/>
    <rect x="100"  y="305.774" height="1.46386" width="12.5" style="fill: #ac48aa"/>
    <rect x="337.5"  y="305.775" height="1.49318" width="12.5" style="fill: #81b0c5"/>
    <rect x="62.5"  y="305.785" height="1.55182" width="12.5" style="fill: #608c2d"/>
    <rect x="312.5"  y="305.838" height="1.47348" width="12.5" style="fill: #801543"/>
    <rect x="225"  y="305.942" height="1.40017" width="12.5" style="fill: #edeeab"/>
    <rect x="412.5"  y="305.96" height="1.50601" width="12.5" style="fill: #5479c1"/>
    <rect x="37.5"  y="306.016" height="8.78039" width="12.5" style="fill: #342e4e"/>
    <rect x="475"  y="306.021" height="6.50465" width="12.5" style="fill: #4aec71"/>
    <rect x="125"  y="306.061" height="0.930545" width="12.5" style="fill: #9f1a46"/>
    <rect x="275"  y="306.073" height="1.02264" width="12.5" style="fill: #e33c1d"/>
    <rect x="462.5"  y="306.106" height="0.999271" width="12.5" style="fill: #761efd"/>
    <rect x="387.5"  y="306.119" height="1.06296" width="12.5" style="fill: #f22116"/>
    <rect x="375"  y="306.329" height="1.10923" width="12.5" style="fill: #051e18"/>
    <rect x="187.5"  y="306.361" height="1.08678" width="12.5" style="fill: #fa714c"/>
    <rect x="175"  y="306.372" height="1.0932" width="12.5" style="fill: #72fae0"/>
    <rect x="87.5"  y="306.435" height="1.18208" width="12.5" style="fill: #756835"/>
    <rect x="350"  y="306.449" height="1.04921" width="12.5" style="fill: #527748"/>
    <rect x="400"  y="306.486" height="1.0932" width="12.5" style="fill: #e4df2e"/>
    <rect x="200"  y="306.556" height="3.79961" width="12.5" style="fill: #728e3d"/>
    <rect x="437.5"  y="306.625" height="4.43143" width="12.5" style="fill: #aaf94e"/>
    <rect x="325"  y="306.659" height="3.72539" width="12.5" style="fill: #9b3f37"/>
    <rect x="212.5"  y="306.663" height="3.43399" width="12.5" style="fill: #489c0d"/>
    <rect x="125"  y="306.992" height="2.87548" width="12.5" style="fill: #4e12d4"/>
    <rect x="150"  y="307.043" height="2.68442" width="12.5" style="fill: #046929"/>
    <rect x="275"  y="307.096" height="0.527813" width="12.5" style="fill: #6d3567"/>
    <rect x="462.5"  y="307.105" height="0.539725" width="12.5" style="fill: #3027f5"/>
    <rect x="287.5"  y="307.166" height="0.516359" width="12.5" style="fill: #e4d70d"/>
    <rect x="387.5"  y="307.182" height="0.573172" width="12.5" style="fill: #54b668"/>
    <rect x="100"  y="307.238" height="0.543849" width="12.5" style="fill: #a7c00f"/>
    <rect x="337.5"  y="307.268" height="0.509028" width="12.5" style="fill: #96ccb2"/>
    <rect x="312.5"  y="307.311" height="0.54614" width="12.5" style="fill: #3f2562"/>
    <rect x="62.5"  y="307.336" height="0.54843" width="12.5" style="fill: #a468b6"/>
    <rect x="225"  y="307.342" height="0.548889" width="12.5" style="fill: #50a171"/>
    <rect x="375"  y="307.439" height="0.591499" width="12.5" style="fill: #918628"/>
    <rect x="187.5"  y="307.448" height="0.349584" width="12.5" style="fill: #5be189"/>
    <rect x="175"  y="307.466" height="0.398609" width="12.5" style="fill: #3b861e"/>
    <rect x="412.5"  y="307.467" height="0.361955" width="12.5" style="fill: #8b2e3e"/>
    <rect x="350"  y="307.499" height="0.345003" width="12.5" style="fill: #49eea5"/>
    <rect x="400"  y="307.58" height="0.405939" width="12.5" style="fill: #f37799"/>
    <rect x="87.5"  y="307.618" height="0.336297" width="12.5" style="fill: #fe4dfc"/>
    <rect x="275"  y="307.624" height="0.366537" width="12.5" style="fill: #738f99"/>
    <rect x="462.5"  y="307.646" height="0.377533" width="12.5" style="fill: #e140f8"/>
    <rect x="287.5"  y="307.682" height="0.339963" width="12.5" style="fill: #e31d1b"/>
    <rect x="387.5"  y="307.755" height="0.32301" width="12.5" style="fill: #21e988"/>
    <rect x="337.5"  y="307.778" height="1.66774" width="12.5" style="fill: #286756"/>
    <rect x="100"  y="307.782" height="1.14314" width="12.5" style="fill: #3c9bc2"/>
    <rect x="187.5"  y="307.798" height="1.23844" width="12.5" style="fill: #4a39a2"/>
    <rect x="412.5"  y="307.828" height="0.272153" width="12.5" style="fill: #195266"/>
    <rect x="350"  y="307.844" height="0.24558" width="12.5" style="fill: #d87b20"/>
    <rect x="312.5"  y="307.858" height="0.263906" width="12.5" style="fill: #348abd"/>
    <rect x="175"  y="307.864" height="0.254743" width="12.5" style="fill: #0fa9a6"/>
    <rect x="62.5"  y="307.885" height="0.279942" width="12.5" style="fill: #bf0e8a"/>
    <rect x="225"  y="307.892" height="0.303309" width="12.5" style="fill: #0935b9"/>
    <rect x="87.5"  y="307.954" height="0.289106" width="12.5" style="fill: #b82334"/>
    <rect x="400"  y="307.986" height="0.270779" width="12.5" style="fill: #378b14"/>
    <rect x="275"  y="307.991" height="0.284066" width="12.5" style="fill: #8132ad"/>
    <rect x="287.5"  y="308.022" height="0.268488" width="12.5" style="fill: #85c834"/>
    <rect x="462.5"  y="308.024" height="0.315222" width="12.5" style="fill: #33d688"/>
    <rect x="375"  y="308.03" height="0.293229" width="12.5" style="fill: #030264"/>
    <rect x="387.5"  y="308.079" height="0.317971" width="12.5" style="fill: #69be4c"/>
    <rect x="350"  y="308.09" height="0.312931" width="12.5" style="fill: #2dd5f7"/>
    <rect x="412.5"  y="308.101" height="0.30056" width="12.5" style="fill: #38cf0f"/>
    <rect x="175"  y="308.119" height="0.325301" width="12.5" style="fill: #4321aa"/>
    <rect x="312.5"  y="308.122" height="0.349584" width="12.5" style="fill: #aadac4"/>
    <rect x="62.5"  y="308.165" height="0.294604" width="12.5" style="fill: #e2d902"/>
    <rect x="225"  y="308.195" height="0.321178" width="12.5" style="fill: #53f28e"/>
    <rect x="87.5"  y="308.244" height="0.28544" width="12.5" style="fill: #9b65b7"/>
    <rect x="400"  y="308.257" height="0.308349" width="12.5" style="fill: #4fa604"/>
    <rect x="275"  y="308.275" height="0.306974" width="12.5" style="fill: #0aee5a"/>
    <rect x="287.5"  y="308.291" height="0.32301" width="12.5" style="fill: #23cfdd"/>
    <rect x="375"  y="308.324" height="0.290022" width="12.5" style="fill: #120058"/>
    <rect x="462.5"  y="308.339" height="0.301018" width="12.5" style="fill: #fe454f"/>
    <rect x="387.5"  y="308.397" height="0.299644" width="12.5" style="fill: #c8e7fe"/>
    <rect x="412.5"  y="308.402" height="0.308807" width="12.5" style="fill: #bf9ade"/>
    <rect x="350"  y="308.403" height="0.279484" width="12.5" style="fill: #4f11fe"/>
    <rect x="175"  y="308.445" height="0.294604" width="12.5" style="fill: #e01e16"/>
    <rect x="62.5"  y="308.46" height="0.316596" width="12.5" style="fill: #604a58"/>
    <rect x="312.5"  y="308.471" height="0.281775" width="12.5" style="fill: #921790"/>
    <rect x="225"  y="308.516" height="0.280859" width="12.5" style="fill: #64ffed"/>
    <rect x="87.5"  y="308.529" height="0.297811" width="12.5" style="fill: #d3ce4b"/>
    <rect x="400"  y="308.566" height="0.318429" width="12.5" style="fill: #d2ce0d"/>
    <rect x="275"  y="308.582" height="0.301935" width="12.5" style="fill: #46d812"/>
    <rect x="287.5"  y="308.614" height="0.293229" width="12.5" style="fill: #1a422d"/>
    <rect x="375"  y="308.614" height="0.335839" width="12.5" style="fill: #282170"/>
    <rect x="462.5"  y="308.64" height="0.302851" width="12.5" style="fill: #e43b27"/>
    <rect x="350"  y="308.683" height="0.294146" width="12.5" style="fill: #6f92d9"/>
    <rect x="387.5"  y="308.697" height="0.281317" width="12.5" style="fill: #f10ca1"/>
    <rect x="412.5"  y="308.71" height="0.927796" width="12.5" style="fill: #fbb3dd"/>
    <rect x="175"  y="308.74" height="1.2366" width="12.5" style="fill: #1f530c"/>
    <rect x="312.5"  y="308.754" height="0.849907" width="12.5" style="fill: #3f07a3"/>
    <rect x="62.5"  y="308.777" height="0.59608" width="12.5" style="fill: #e02830"/>
    <rect x="225"  y="308.798" height="0.635025" width="12.5" style="fill: #1211fb"/>
    <rect x="87.5"  y="308.827" height="0.22038" width="12.5" style="fill: #2e6e13"/>
    <rect x="275"  y="308.884" height="0.228627" width="12.5" style="fill: #b22153"/>
    <rect x="400"  y="308.885" height="0.201595" width="12.5" style="fill: #d92e0c"/>
    <rect x="287.5"  y="308.907" height="0.219922" width="12.5" style="fill: #1ec36f"/>
    <rect x="100"  y="308.925" height="0.219464" width="12.5" style="fill: #382591"/>
    <rect x="462.5"  y="308.943" height="0.20801" width="12.5" style="fill: #0cf7a0"/>
    <rect x="375"  y="308.951" height="0.216257" width="12.5" style="fill: #a53d68"/>
    <rect x="350"  y="308.977" height="0.208926" width="12.5" style="fill: #041221"/>
    <rect x="387.5"  y="308.978" height="0.217631" width="12.5" style="fill: #e30a66"/>
    <rect x="187.5"  y="309.037" height="0.221297" width="12.5" style="fill: #aaecf8"/>
    <rect x="87.5"  y="309.048" height="0.657475" width="12.5" style="fill: #df4c6e"/>
    <rect x="400"  y="309.086" height="0.169523" width="12.5" style="fill: #c13fea"/>
    <rect x="275"  y="309.113" height="0.181894" width="12.5" style="fill: #8ee900"/>
    <rect x="287.5"  y="309.127" height="0.179603" width="12.5" style="fill: #be3b89"/>
    <rect x="100"  y="309.145" height="0.188308" width="12.5" style="fill: #1230e2"/>
    <rect x="462.5"  y="309.151" height="0.167232" width="12.5" style="fill: #8b2c78"/>
    <rect x="375"  y="309.167" height="0.17273" width="12.5" style="fill: #a49d37"/>
    <rect x="350"  y="309.186" height="0.187392" width="12.5" style="fill: #7b5555"/>
    <rect x="387.5"  y="309.197" height="0.192432" width="12.5" style="fill: #5038bc"/>
    <rect x="400"  y="309.256" height="0.180061" width="12.5" style="fill: #2ce5cd"/>
    <rect x="187.5"  y="309.258" height="0.174563" width="12.5" style="fill: #848a00"/>
    <rect x="275"  y="309.295" height="0.174563" width="12.5" style="fill: #2a4c87"/>
    <rect x="287.5"  y="309.307" height="0.191057" width="12.5" style="fill: #3f3958"/>
    <rect x="462.5"  y="309.319" height="0.180977" width="12.5" style="fill: #ea8233"/>
    <rect x="100"  y="309.334" height="0.185101" width="12.5" style="fill: #e5fcac"/>
    <rect x="375"  y="309.34" height="0.190599" width="12.5" style="fill: #9202c1"/>
    <rect x="62.5"  y="309.373" height="0.191974" width="12.5" style="fill: #2fb6b3"/>
    <rect x="350"  y="309.373" height="0.191057" width="12.5" style="fill: #de3078"/>
    <rect x="387.5"  y="309.389" height="0.18281" width="12.5" style="fill: #862085"/>
    <rect x="187.5"  y="309.433" height="0.191515" width="12.5" style="fill: #36a325"/>
    <rect x="225"  y="309.433" height="0.186017" width="12.5" style="fill: #fc7fe4"/>
    <rect x="400"  y="309.436" height="0.562176" width="12.5" style="fill: #003c6e"/>
    <rect x="337.5"  y="309.445" height="0.495283" width="12.5" style="fill: #f3c244"/>
    <rect x="275"  y="309.47" height="0.131953" width="12.5" style="fill: #acadd2"/>
    <rect x="287.5"  y="309.499" height="0.141117" width="12.5" style="fill: #208d3a"/>
    <rect x="462.5"  y="309.5" height="0.123248" width="12.5" style="fill: #226924"/>
    <rect x="100"  y="309.519" height="0.136077" width="12.5" style="fill: #d240ea"/>
    <rect x="375"  y="309.531" height="0.136535" width="12.5" style="fill: #eeeb02"/>
    <rect x="350"  y="309.565" height="0.137909" width="12.5" style="fill: #fbe98b"/>
    <rect x="62.5"  y="309.565" height="0.128288" width="12.5" style="fill: #bac37f"/>
    <rect x="387.5"  y="309.572" height="0.136535" width="12.5" style="fill: #d92434"/>
    <rect x="275"  y="309.602" height="0.130579" width="12.5" style="fill: #806d15"/>
    <rect x="312.5"  y="309.603" height="0.142033" width="12.5" style="fill: #7f35a3"/>
    <rect x="225"  y="309.619" height="0.329883" width="12.5" style="fill: #79e626"/>
    <rect x="462.5"  y="309.624" height="0.325759" width="12.5" style="fill: #1d1d08"/>
    <rect x="187.5"  y="309.625" height="0.108128" width="12.5" style="fill: #de2f25"/>
    <rect x="412.5"  y="309.638" height="0.10767" width="12.5" style="fill: #3a5976"/>
    <rect x="287.5"  y="309.64" height="0.116834" width="12.5" style="fill: #ef6140"/>
    <rect x="100"  y="309.655" height="0.111794" width="12.5" style="fill: #5ca32c"/>
    <rect x="375"  y="309.668" height="0.113168" width="12.5" style="fill: #a3ab1a"/>
    <rect x="62.5"  y="309.694" height="0.115459" width="12.5" style="fill: #3e85da"/>
    <rect x="350"  y="309.703" height="0.11775" width="12.5" style="fill: #a0509c"/>
    <rect x="87.5"  y="309.706" height="0.116375" width="12.5" style="fill: #68bc90"/>
    <rect x="387.5"  y="309.709" height="0.113626" width="12.5" style="fill: #dec72e"/>
    <rect x="150"  y="309.728" height="0.113168" width="12.5" style="fill: #3c1d72"/>
    <rect x="275"  y="309.733" height="0.281317" width="12.5" style="fill: #8a000d"/>
    <rect x="187.5"  y="309.733" height="0.232293" width="12.5" style="fill: #bad0a7"/>
    <rect x="312.5"  y="309.745" height="0.192432" width="12.5" style="fill: #c1f8d8"/>
    <rect x="412.5"  y="309.746" height="0.231834" width="12.5" style="fill: #8a7419"/>
    <rect x="287.5"  y="309.757" height="0.198846" width="12.5" style="fill: #25532c"/>
    <rect x="100"  y="309.767" height="0.178687" width="12.5" style="fill: #6a66b6"/>
    <rect x="375"  y="309.781" height="0.131953" width="12.5" style="fill: #46116b"/>
    <rect x="62.5"  y="309.809" height="0.0449007" width="12.5" style="fill: #82c7aa"/>
    <rect x="350"  y="309.821" height="0.0471916" width="12.5" style="fill: #024766"/>
    <rect x="87.5"  y="309.822" height="0.0471916" width="12.5" style="fill: #08b5cd"/>
    <rect x="387.5"  y="309.823" height="0.0485661" width="12.5" style="fill: #128783"/>
    <rect x="150"  y="309.841" height="0.0444426" width="12.5" style="fill: #ec9fef"/>
    <rect x="62.5"  y="309.855" height="0.0476498" width="12.5" style="fill: #a617ec"/>
    <rect x="125"  y="309.868" height="0.0490243" width="12.5" style="fill: #1ee555"/>
    <rect x="350"  y="309.868" height="0.0453589" width="12.5" style="fill: #b5d6a9"/>
    <rect x="87.5"  y="309.87" height="0.0471916" width="12.5" style="fill: #4bbc24"/>
    <rect x="387.5"  y="309.872" height="0.0449007" width="12.5" style="fill: #f008fe"/>
    <rect x="150"  y="309.886" height="0.0449007" width="12.5" style="fill: #7a5813"/>
    <rect x="62.5"  y="309.903" height="0.0453589" width="12.5" style="fill: #421376"/>
    <rect x="375"  y="309.913" height="0.0444426" width="12.5" style="fill: #83b595"/>
    <rect x="350"  y="309.914" height="0.0421517" width="12.5" style="fill: #fd0a92"/>
    <rect x="87.5"  y="309.917" height="0.0439844" width="12.5" style="fill: #e83f02"/>
    <rect x="387.5"  y="309.917" height="0.0458171" width="12.5" style="fill: #d7c20d"/>
    <rect x="125"  y="309.917" height="0.0453589" width="12.5" style="fill: #54f677"/>
    <rect x="150"  y="309.931" height="0.0476498" width="12.5" style="fill: #cfa753"/>
    <rect x="312.5"  y="309.938" height="0.0453589" width="12.5" style="fill: #c41cea"/>
    <rect x="337.5"  y="309.941" height="0.0490243" width="12.5" style="fill: #fd32c3"/>
    <rect x="100"  y="309.946" height="0.0398609" width="12.5" style="fill: #49b1cb"/>
    <rect x="62.5"  y="309.948" height="0.0421517" width="12.5" style="fill: #e1fe87"/>
    <rect x="225"  y="309.949" height="0.0384864" width="12.5" style="fill: #546fcb"/>
    <rect x="462.5"  y="309.949" height="0.0407772" width="12.5" style="fill: #28f35e"/>
    <rect x="287.5"  y="309.956" height="0.0361955" width="12.5" style="fill: #e4b167"/>
    <rect x="350"  y="309.956" height="0.0394027" width="12.5" style="fill: #4a0fbc"/>
    <rect x="375"  y="309.958" height="0.0421517" width="12.5" style="fill: #aaea86"/>
    <rect x="87.5"  y="309.961" height="0.0398609" width="12.5" style="fill: #1da7c6"/>
    <rect x="125"  y="309.963" height="0.0416935" width="12.5" style="fill: #3ef224"/>
    <rect x="387.5"  y="309.963" height="0.0430681" width="12.5" style="fill: #008b1e"/>
    <rect x="187.5"  y="309.965" height="0.0714747" width="12.5" style="fill: #258354"/>
    <rect x="175"  y="309.976" height="0.0481079" width="12.5" style="fill: #ffed96"/>
    <rect x="412.5"  y="309.978" height="0.0329883" width="12.5" style="fill: #3a3e2f"/>
    <rect x="150"  y="309.979" height="0.0384864" width="12.5" style="fill: #45d37f"/>
    <rect x="312.5"  y="309.984" height="0.0449007" width="12.5" style="fill: #78ff30"/>
    <rect x="100"  y="309.986" height="0.0371118" width="12.5" style="fill: #d6669b"/>
    <rect x="225"  y="309.988" height="0.0316138" width="12.5" style="fill: #a8a864"/>
    <rect x="62.5"  y="309.991" height="0.0210759" width="12.5" style="fill: #e9e170"/>
    <rect x="337.5"  y="309.991" height="0.0366537" width="12.5" style="fill: #0c5dfd"/>
    <rect x="462.5"  y="309.991" height="0.0174105" width="12.5" style="fill: #d75c68"/>
    <rect x="287.5"  y="309.992" height="0.0142033" width="12.5" style="fill: #d4e3a7"/>
    <rect x="350"  y="309.996" height="0.00595622" width="12.5" style="fill: #e408c6"/>
    <rect x="400"  y="309.999" height="0.00458171" width="12.5" style="fill: #cafbb7"/>
    <rect x="375"  y="310.001" height="0.00458171" width="12.5" style="fill: #bb3182"/>
</svg>
</svg>
