<svg  xmlns="http://www.w3.org/2000/svg" xmlns:xlink="http://www.w3.org/1999/xlink" x="0" y="0" width="600" height="600">
<rect x="0%" y="0%" height="100%" width="100%" style="fill: #ffffff"/>
<svg x="0" y="0">
  <text fill="dark" font-size="35" transform="translate(250, 30)">cores</text>
</svg>
<svg x="0" y="0"> 
  <text fill="dark" font-size="35" transform="translate(30, 300) rotate(270)">time</text>
</svg>
<svg x = "50" y="550">
  <text fill="blue" font-size="30" transform="translate(0, 35)">t = 0s, lb = 0.410256</text>
</svg>
<svg x="50" y="50" width="500" height="500" >
  <rect x="0%" y="0%" height="100%" width="100%" style="fill: #eeeeee"/>
    <rect x="0"  y="50" height="125" width="12.5" style="fill: #dab2b3"/>
    <rect x="237.5"  y="25" height="250" width="12.5" style="fill: #6c248b"/>
    <rect x="112.5"  y="50" height="325" width="12.5" style="fill: #87d6ae"/>
    <rect x="50"  y="50" height="150" width="12.5" style="fill: #33f9a6"/>
    <rect x="25"  y="50" height="75" width="12.5" style="fill: #2d7183"/>
    <rect x="12.5"  y="50" height="200" width="12.5" style="fill: #a5d578"/>
    <rect x="362.5"  y="25" height="125" width="12.5" style="fill: #9e4b2d"/>
    <rect x="300"  y="25" height="100" width="12.5" style="fill: #6b441e"/>
    <rect x="262.5"  y="25" height="150" width="12.5" style="fill: #2411dc"/>
    <rect x="250"  y="25" height="100" width="12.5" style="fill: #709e11"/>
    <rect x="175"  y="50" height="150" width="12.5" style="fill: #1c7e1e"/>
    <rect x="137.5"  y="50" height="475" width="12.5" style="fill: #7acb6f"/>
    <rect x="125"  y="50" height="300" width="12.5" style="fill: #8cac0b"/>
    <rect x="75"  y="50" height="125" width="12.5" style="fill: #b2fc4c"/>
    <rect x="62.5"  y="50" height="75" width="12.5" style="fill: #8bc2ae"/>
    <rect x="37.5"  y="50" height="125" width="12.5" style="fill: #3baaab"/>
    <rect x="425"  y="25" height="125" width="12.5" style="fill: #9165cc"/>
    <rect x="387.5"  y="25" height="125" width="12.5" style="fill: #458e19"/>
    <rect x="375"  y="25" height="275" width="12.5" style="fill: #9cb89f"/>
    <rect x="325"  y="25" height="250" width="12.5" style="fill: #51b135"/>
    <rect x="312.5"  y="25" height="75" width="12.5" style="fill: #f7091a"/>
    <rect x="275"  y="25" height="250" width="12.5" style="fill: #5abb08"/>
    <rect x="200"  y="50" height="250" width="12.5" style="fill: #74df3e"/>
    <rect x="187.5"  y="50" height="75" width="12.5" style="fill: #8cb454"/>
    <rect x="150"  y="50" height="125" width="12.5" style="fill: #3a5eb9"/>
    <rect x="87.5"  y="50" height="100" width="12.5" style="fill: #3b0441"/>
    <rect x="450"  y="25" height="100" width="12.5" style="fill: #e9ca4c"/>
    <rect x="437.5"  y="25" height="150" width="12.5" style="fill: #2b0fb3"/>
    <rect x="400"  y="25" height="175" width="12.5" style="fill: #d30875"/>
    <rect x="337.5"  y="25" height="150" width="12.5" style="fill: #cbf29a"/>
    <rect x="287.5"  y="25" height="100" width="12.5" style="fill: #bd5b1a"/>
    <rect x="212.5"  y="50" height="300" width="12.5" style="fill: #cf3898"/>
    <rect x="162.5"  y="50" height="125" width="12.5" style="fill: #4b35ae"/>
    <rect x="100"  y="50" height="125" width="12.5" style="fill: #882809"/>
    <rect x="462.5"  y="25" height="125" width="12.5" style="fill: #dd4cfe"/>
    <rect x="412.5"  y="50" height="350" width="12.5" style="fill: #7abc5c"/>
    <rect x="350"  y="25" height="450" width="12.5" style="fill: #61baa5"/>
    <rect x="225"  y="50" height="375" width="12.5" style="fill: #2e053b"/>
    <rect x="475"  y="25" height="125" width="12.5" style="fill: #4c3643"/>
    <rect x="62.5"  y="150" height="50" width="12.5" style="fill: #f204ef"/>
    <rect x="187.5"  y="125" height="350" width="12.5" style="fill: #259d2e"/>
    <rect x="312.5"  y="125" height="150" width="12.5" style="fill: #98042a"/>
    <rect x="25"  y="150" height="150" width="12.5" style="fill: #948aac"/>
    <rect x="450"  y="125" height="100" width="12.5" style="fill: #5e884c"/>
    <rect x="287.5"  y="150" height="50" width="12.5" style="fill: #b3ec7d"/>
</svg>
</svg>
