<svg  xmlns="http://www.w3.org/2000/svg" xmlns:xlink="http://www.w3.org/1999/xlink" x="0" y="0" width="600" height="600">
<rect x="0%" y="0%" height="100%" width="100%" style="fill: #ffffff"/>
<svg x="0" y="0">
  <text fill="dark" font-size="35" transform="translate(250, 30)">cores</text>
</svg>
<svg x="0" y="0"> 
  <text fill="dark" font-size="35" transform="translate(30, 300) rotate(270)">time</text>
</svg>
<svg x = "50" y="550">
  <text fill="blue" font-size="30" transform="translate(0, 35)">t = 45s, lb = 0.957071</text>
</svg>
<svg x="50" y="50" width="500" height="500" >
  <rect x="0%" y="0%" height="100%" width="100%" style="fill: #eeeeee"/>
    <rect x="0"  y="0.220488" height="0.694536" width="250" style="fill: #dab2b3"/>
    <rect x="0"  y="1.15756" height="1.14654" width="250" style="fill: #6c248b"/>
    <rect x="0"  y="2.52458" height="20.3179" width="250" style="fill: #87d6ae"/>
    <rect x="0"  y="23.063" height="0.738634" width="250" style="fill: #33f9a6"/>
    <rect x="0"  y="24.0332" height="2.03951" width="250" style="fill: #2d7183"/>
    <rect x="0"  y="26.2932" height="3.90263" width="250" style="fill: #a5d578"/>
    <rect x="0"  y="30.4163" height="6.12956" width="250" style="fill: #9e4b2d"/>
    <rect x="0"  y="36.7884" height="4.16722" width="250" style="fill: #6b441e"/>
    <rect x="0"  y="41.1761" height="15.7097" width="250" style="fill: #2411dc"/>
    <rect x="0"  y="57.1173" height="3.9798" width="250" style="fill: #709e11"/>
    <rect x="0"  y="61.3287" height="3.03171" width="250" style="fill: #1c7e1e"/>
    <rect x="0"  y="64.5919" height="4.74049" width="250" style="fill: #7acb6f"/>
    <rect x="0"  y="69.5639" height="27.7925" width="250" style="fill: #8cac0b"/>
    <rect x="0"  y="97.5879" height="0.606341" width="250" style="fill: #b2fc4c"/>
    <rect x="0"  y="98.4257" height="0.341756" width="250" style="fill: #8bc2ae"/>
    <rect x="0"  y="98.988" height="10.1976" width="250" style="fill: #3baaab"/>
    <rect x="0"  y="109.417" height="0.573268" width="250" style="fill: #9165cc"/>
    <rect x="0"  y="110.222" height="4.10107" width="250" style="fill: #458e19"/>
    <rect x="0"  y="114.543" height="5.19249" width="250" style="fill: #9cb89f"/>
    <rect x="0"  y="119.967" height="0.363805" width="250" style="fill: #51b135"/>
    <rect x="0"  y="120.552" height="5.54527" width="250" style="fill: #f7091a"/>
    <rect x="0"  y="126.328" height="4.48693" width="250" style="fill: #5abb08"/>
    <rect x="0"  y="131.047" height="4.79561" width="250" style="fill: #74df3e"/>
    <rect x="0"  y="136.063" height="3.14195" width="250" style="fill: #8cb454"/>
    <rect x="0"  y="139.436" height="5.99727" width="250" style="fill: #3a5eb9"/>
    <rect x="0"  y="145.665" height="13.9679" width="250" style="fill: #3b0441"/>
    <rect x="0"  y="159.865" height="0.253561" width="250" style="fill: #e9ca4c"/>
    <rect x="0"  y="160.35" height="1.60956" width="250" style="fill: #2b0fb3"/>
    <rect x="0"  y="162.18" height="0.363805" width="250" style="fill: #d30875"/>
    <rect x="0"  y="162.775" height="4.0239" width="250" style="fill: #cbf29a"/>
    <rect x="0"  y="167.03" height="0.672488" width="250" style="fill: #bd5b1a"/>
    <rect x="0"  y="167.923" height="1.14654" width="250" style="fill: #cf3898"/>
    <rect x="0"  y="169.301" height="5.12634" width="250" style="fill: #4b35ae"/>
    <rect x="0"  y="174.648" height="0.27561" width="250" style="fill: #882809"/>
    <rect x="0"  y="175.155" height="0.418927" width="250" style="fill: #dd4cfe"/>
    <rect x="0"  y="175.806" height="0.904" width="250" style="fill: #7abc5c"/>
    <rect x="0"  y="176.93" height="0.341756" width="250" style="fill: #61baa5"/>
    <rect x="0"  y="177.504" height="0.650439" width="250" style="fill: #2e053b"/>
    <rect x="0"  y="178.386" height="1.96234" width="250" style="fill: #4c3643"/>
    <rect x="0"  y="180.579" height="5.03814" width="250" style="fill: #f204ef"/>
    <rect x="0"  y="185.849" height="0.253561" width="250" style="fill: #259d2e"/>
    <rect x="0"  y="186.323" height="13.3175" width="250" style="fill: #98042a"/>
    <rect x="0"  y="199.872" height="0.485073" width="250" style="fill: #948aac"/>
    <rect x="0"  y="200.589" height="2.45844" width="250" style="fill: #5e884c"/>
    <rect x="0"  y="203.268" height="0.418927" width="250" style="fill: #b3ec7d"/>
    <rect x="0"  y="203.918" height="1.21268" width="250" style="fill: #b92564"/>
    <rect x="0"  y="205.362" height="2.89941" width="250" style="fill: #3fd34f"/>
    <rect x="0"  y="208.482" height="6.93434" width="250" style="fill: #dd467e"/>
    <rect x="0"  y="215.637" height="4.21132" width="250" style="fill: #2cca40"/>
    <rect x="0"  y="220.08" height="32.3235" width="250" style="fill: #6035cb"/>
    <rect x="0"  y="252.624" height="8.68722" width="250" style="fill: #2744cb"/>
    <rect x="0"  y="261.543" height="0.937073" width="250" style="fill: #90a63e"/>
    <rect x="0"  y="262.711" height="6.41619" width="250" style="fill: #51c973"/>
    <rect x="0"  y="269.359" height="2.00644" width="250" style="fill: #790334"/>
    <rect x="0"  y="271.597" height="0.562244" width="250" style="fill: #3947e0"/>
    <rect x="0"  y="272.391" height="0.319707" width="250" style="fill: #208654"/>
    <rect x="0"  y="272.942" height="1.02527" width="250" style="fill: #1e4c48"/>
    <rect x="0"  y="274.188" height="7.29814" width="250" style="fill: #a99630"/>
    <rect x="0"  y="281.717" height="6.42722" width="250" style="fill: #aa9aec"/>
    <rect x="0"  y="288.376" height="8.81951" width="250" style="fill: #e15384"/>
    <rect x="0"  y="297.427" height="0.374829" width="250" style="fill: #3a4b19"/>
    <rect x="0"  y="298.033" height="18.6533" width="250" style="fill: #0274eb"/>
    <rect x="0"  y="316.907" height="1.81902" width="250" style="fill: #c955f8"/>
    <rect x="0"  y="318.958" height="2.33717" width="250" style="fill: #592e30"/>
    <rect x="0"  y="321.526" height="26.1829" width="250" style="fill: #a2205a"/>
    <rect x="0"  y="347.93" height="1.14654" width="250" style="fill: #485846"/>
    <rect x="0"  y="349.297" height="0.463024" width="250" style="fill: #248987"/>
    <rect x="0"  y="349.991" height="48.3089" width="250" style="fill: #550aaf"/>
    <rect x="0"  y="398.543" height="0.363805" width="250" style="fill: #2094ec"/>
    <rect x="0"  y="399.127" height="0.209463" width="250" style="fill: #59e793"/>
    <rect x="0"  y="399.568" height="1.4001" width="250" style="fill: #1dc650"/>
    <rect x="0"  y="401.199" height="0.584292" width="250" style="fill: #c7451c"/>
    <rect x="0"  y="402.015" height="6.68078" width="250" style="fill: #c61c0c"/>
    <rect x="0"  y="408.917" height="7.32019" width="250" style="fill: #b2c46a"/>
    <rect x="0"  y="416.468" height="0.540195" width="250" style="fill: #1b3f2c"/>
    <rect x="0"  y="417.229" height="26.2711" width="250" style="fill: #349faf"/>
    <rect x="0"  y="443.743" height="0.341756" width="250" style="fill: #f763c7"/>
    <rect x="0"  y="444.316" height="1.94029" width="250" style="fill: #f8d14d"/>
    <rect x="0"  y="446.488" height="2.95454" width="250" style="fill: #dff946"/>
    <rect x="0"  y="449.663" height="8.21317" width="250" style="fill: #351744"/>
    <rect x="0"  y="458.107" height="6.66975" width="250" style="fill: #378d62"/>
    <rect x="0"  y="464.998" height="0.463024" width="250" style="fill: #c59285"/>
    <rect x="0"  y="465.681" height="0.231512" width="250" style="fill: #a8d791"/>
    <rect x="0"  y="466.144" height="0.573268" width="250" style="fill: #5614f5"/>
    <rect x="0"  y="466.938" height="6.70283" width="250" style="fill: #a2ac9e"/>
    <rect x="0"  y="473.872" height="1.03629" width="250" style="fill: #0d68ac"/>
    <rect x="0"  y="475.14" height="2.74507" width="250" style="fill: #a6248a"/>
    <rect x="0"  y="478.117" height="0.661463" width="250" style="fill: #9227ab"/>
    <rect x="0"  y="479.01" height="0.440975" width="250" style="fill: #8f1930"/>
    <rect x="0"  y="479.682" height="0.892975" width="250" style="fill: #ee38ac"/>
    <rect x="0"  y="480.796" height="7.97063" width="250" style="fill: #7a9d23"/>
    <rect x="0"  y="488.998" height="9.08409" width="250" style="fill: #9c9b02"/>
    <rect x="0"  y="498.313" height="0.418927" width="250" style="fill: #6a481e"/>
    <rect x="0"  y="498.964" height="1.03629" width="250" style="fill: #49d531"/>
</svg>
</svg>
