<svg  xmlns="http://www.w3.org/2000/svg" xmlns:xlink="http://www.w3.org/1999/xlink" x="0" y="0" width="600" height="600">
<rect x="0%" y="0%" height="100%" width="100%" style="fill: #ffffff"/>
<svg x="0" y="0">
  <text fill="dark" font-size="35" transform="translate(250, 30)">cores</text>
</svg>
<svg x="0" y="0"> 
  <text fill="dark" font-size="35" transform="translate(30, 300) rotate(270)">time</text>
</svg>
<svg x = "50" y="550">
  <text fill="blue" font-size="30" transform="translate(0, 35)">t = 4823s, lb = 0.466123</text>
</svg>
<svg x="50" y="50" width="500" height="500" >
  <rect x="0%" y="0%" height="100%" width="100%" style="fill: #eeeeee"/>
    <rect x="0"  y="0.000829302" height="485.632" width="12.5" style="fill: #dab2b3"/>
    <rect x="237.5"  y="0.000829302" height="383.391" width="12.5" style="fill: #6c248b"/>
    <rect x="112.5"  y="0.000829302" height="390.04" width="12.5" style="fill: #87d6ae"/>
    <rect x="50"  y="0.000829302" height="394.527" width="12.5" style="fill: #33f9a6"/>
    <rect x="25"  y="0.000829302" height="466.744" width="12.5" style="fill: #2d7183"/>
    <rect x="12.5"  y="0.000829302" height="365.672" width="12.5" style="fill: #a5d578"/>
    <rect x="362.5"  y="0.000725639" height="447.789" width="12.5" style="fill: #9e4b2d"/>
    <rect x="300"  y="0.000725639" height="499.999" width="12.5" style="fill: #6b441e"/>
    <rect x="262.5"  y="0.000829302" height="455.766" width="12.5" style="fill: #2411dc"/>
    <rect x="250"  y="0.000725639" height="291.506" width="12.5" style="fill: #709e11"/>
    <rect x="175"  y="0.000829302" height="159.019" width="12.5" style="fill: #1c7e1e"/>
    <rect x="137.5"  y="0.000829302" height="217.119" width="12.5" style="fill: #7acb6f"/>
    <rect x="125"  y="0.000829302" height="167.675" width="12.5" style="fill: #8cac0b"/>
    <rect x="75"  y="0.000829302" height="233.104" width="12.5" style="fill: #b2fc4c"/>
    <rect x="62.5"  y="0.000829302" height="234.719" width="12.5" style="fill: #8bc2ae"/>
    <rect x="37.5"  y="0.000829302" height="234.56" width="12.5" style="fill: #3baaab"/>
    <rect x="425"  y="0.000725639" height="208.567" width="12.5" style="fill: #9165cc"/>
    <rect x="387.5"  y="0.000725639" height="204.294" width="12.5" style="fill: #458e19"/>
    <rect x="375"  y="0.000725639" height="174.081" width="12.5" style="fill: #9cb89f"/>
    <rect x="325"  y="0.000725639" height="183.306" width="12.5" style="fill: #51b135"/>
    <rect x="312.5"  y="0.000725639" height="54.7832" width="12.5" style="fill: #f7091a"/>
    <rect x="275"  y="0.000725639" height="63.7582" width="12.5" style="fill: #5abb08"/>
    <rect x="200"  y="0.000829302" height="43.8287" width="12.5" style="fill: #74df3e"/>
    <rect x="187.5"  y="0.000829302" height="47.096" width="12.5" style="fill: #8cb454"/>
    <rect x="150"  y="0.000829302" height="43.5929" width="12.5" style="fill: #3a5eb9"/>
    <rect x="87.5"  y="0.000829302" height="41.1115" width="12.5" style="fill: #3b0441"/>
    <rect x="450"  y="0.000725639" height="42.5825" width="12.5" style="fill: #e9ca4c"/>
    <rect x="437.5"  y="0.000725639" height="54.7426" width="12.5" style="fill: #2b0fb3"/>
    <rect x="400"  y="0.000725639" height="48.6614" width="12.5" style="fill: #d30875"/>
    <rect x="337.5"  y="0.000725639" height="49.3216" width="12.5" style="fill: #cbf29a"/>
    <rect x="287.5"  y="0.000829302" height="54.3781" width="12.5" style="fill: #bd5b1a"/>
    <rect x="212.5"  y="0.000829302" height="41.3937" width="12.5" style="fill: #cf3898"/>
    <rect x="162.5"  y="0.000829302" height="38.2237" width="12.5" style="fill: #4b35ae"/>
    <rect x="100"  y="0.000829302" height="40.3694" width="12.5" style="fill: #882809"/>
    <rect x="462.5"  y="0.000725639" height="44.5286" width="12.5" style="fill: #dd4cfe"/>
    <rect x="412.5"  y="0.000829302" height="38.048" width="12.5" style="fill: #7abc5c"/>
    <rect x="350"  y="0.000725639" height="41.2645" width="12.5" style="fill: #61baa5"/>
    <rect x="225"  y="0.000829302" height="39.2377" width="12.5" style="fill: #2e053b"/>
    <rect x="475"  y="0.000725639" height="33.0132" width="12.5" style="fill: #4c3643"/>
    <rect x="475"  y="33.0139" height="39.6153" width="12.5" style="fill: #f204ef"/>
    <rect x="412.5"  y="38.0488" height="44.4423" width="12.5" style="fill: #259d2e"/>
    <rect x="162.5"  y="38.2245" height="35.1547" width="12.5" style="fill: #98042a"/>
    <rect x="225"  y="39.2386" height="34.5033" width="12.5" style="fill: #948aac"/>
    <rect x="100"  y="40.3702" height="31.2069" width="12.5" style="fill: #5e884c"/>
    <rect x="87.5"  y="41.1123" height="37.286" width="12.5" style="fill: #b3ec7d"/>
    <rect x="350"  y="41.2653" height="33.1844" width="12.5" style="fill: #b92564"/>
    <rect x="212.5"  y="41.3945" height="31.5783" width="12.5" style="fill: #3fd34f"/>
    <rect x="450"  y="42.5833" height="33.8888" width="12.5" style="fill: #dd467e"/>
    <rect x="150"  y="43.5939" height="33.1983" width="12.5" style="fill: #2cca40"/>
    <rect x="200"  y="43.8296" height="36.7938" width="12.5" style="fill: #6035cb"/>
    <rect x="462.5"  y="44.5294" height="36.4797" width="12.5" style="fill: #2744cb"/>
    <rect x="187.5"  y="47.0968" height="37.3421" width="12.5" style="fill: #90a63e"/>
    <rect x="400"  y="48.6622" height="36.838" width="12.5" style="fill: #51c973"/>
    <rect x="337.5"  y="49.3224" height="42.7263" width="12.5" style="fill: #790334"/>
    <rect x="287.5"  y="54.3789" height="49.4098" width="12.5" style="fill: #3947e0"/>
    <rect x="437.5"  y="54.7434" height="37.8735" width="12.5" style="fill: #208654"/>
    <rect x="312.5"  y="54.784" height="38.637" width="12.5" style="fill: #1e4c48"/>
    <rect x="275"  y="63.759" height="48.7539" width="12.5" style="fill: #a99630"/>
    <rect x="100"  y="71.5773" height="40.5308" width="12.5" style="fill: #aa9aec"/>
    <rect x="475"  y="72.6294" height="28.9604" width="12.5" style="fill: #e15384"/>
    <rect x="212.5"  y="72.9728" height="22.9792" width="12.5" style="fill: #3a4b19"/>
    <rect x="162.5"  y="73.3792" height="21.2667" width="12.5" style="fill: #0274eb"/>
    <rect x="225"  y="73.742" height="22.1416" width="12.5" style="fill: #c955f8"/>
    <rect x="350"  y="74.4499" height="21.349" width="12.5" style="fill: #592e30"/>
    <rect x="450"  y="76.4722" height="21.5371" width="12.5" style="fill: #a2205a"/>
    <rect x="150"  y="76.7922" height="22.7925" width="12.5" style="fill: #485846"/>
    <rect x="87.5"  y="78.3985" height="21.2553" width="12.5" style="fill: #248987"/>
    <rect x="200"  y="80.6237" height="21.3906" width="12.5" style="fill: #550aaf"/>
    <rect x="462.5"  y="81.0092" height="22.2602" width="12.5" style="fill: #2094ec"/>
    <rect x="412.5"  y="82.4912" height="21.4038" width="12.5" style="fill: #59e793"/>
    <rect x="187.5"  y="84.439" height="16.1547" width="12.5" style="fill: #1dc650"/>
    <rect x="400"  y="85.5003" height="16.5959" width="12.5" style="fill: #c7451c"/>
    <rect x="337.5"  y="92.0488" height="18.8328" width="12.5" style="fill: #c61c0c"/>
    <rect x="437.5"  y="92.6168" height="18.2553" width="12.5" style="fill: #b2c46a"/>
    <rect x="312.5"  y="93.4211" height="15.7166" width="12.5" style="fill: #1b3f2c"/>
    <rect x="162.5"  y="94.646" height="16.0734" width="12.5" style="fill: #349faf"/>
    <rect x="350"  y="95.7991" height="18.2133" width="12.5" style="fill: #f763c7"/>
    <rect x="225"  y="95.8838" height="18.8848" width="12.5" style="fill: #f8d14d"/>
    <rect x="212.5"  y="95.9521" height="16.7205" width="12.5" style="fill: #dff946"/>
    <rect x="450"  y="98.0094" height="15.6758" width="12.5" style="fill: #351744"/>
    <rect x="150"  y="99.5851" height="11.7124" width="12.5" style="fill: #378d62"/>
    <rect x="87.5"  y="99.6539" height="10.7215" width="12.5" style="fill: #c59285"/>
    <rect x="187.5"  y="100.594" height="10.7071" width="12.5" style="fill: #a8d791"/>
    <rect x="475"  y="101.59" height="13.168" width="12.5" style="fill: #5614f5"/>
    <rect x="200"  y="102.014" height="11.2276" width="12.5" style="fill: #a2ac9e"/>
    <rect x="400"  y="102.096" height="13.698" width="12.5" style="fill: #0d68ac"/>
    <rect x="462.5"  y="103.27" height="11.1968" width="12.5" style="fill: #a6248a"/>
    <rect x="287.5"  y="103.789" height="11.485" width="12.5" style="fill: #9227ab"/>
    <rect x="412.5"  y="103.895" height="11.0125" width="12.5" style="fill: #8f1930"/>
    <rect x="312.5"  y="109.138" height="10.7412" width="12.5" style="fill: #ee38ac"/>
    <rect x="87.5"  y="110.375" height="8.918" width="12.5" style="fill: #7a9d23"/>
    <rect x="162.5"  y="110.72" height="10.8566" width="12.5" style="fill: #9c9b02"/>
    <rect x="437.5"  y="110.872" height="10.3256" width="12.5" style="fill: #6a481e"/>
    <rect x="337.5"  y="110.882" height="10.2549" width="12.5" style="fill: #49d531"/>
    <rect x="150"  y="111.298" height="8.80242" width="12.5" style="fill: #61f9a9"/>
    <rect x="187.5"  y="111.301" height="9.80193" width="12.5" style="fill: #513fe5"/>
    <rect x="100"  y="112.108" height="10.6041" width="12.5" style="fill: #271c32"/>
    <rect x="275"  y="112.513" height="8.93314" width="12.5" style="fill: #e9c21d"/>
    <rect x="212.5"  y="112.673" height="9.81126" width="12.5" style="fill: #156eb9"/>
    <rect x="200"  y="113.242" height="11.1941" width="12.5" style="fill: #f1bea5"/>
    <rect x="450"  y="113.685" height="5.84067" width="12.5" style="fill: #7f6ae4"/>
    <rect x="350"  y="114.013" height="5.87861" width="12.5" style="fill: #f1b1de"/>
    <rect x="462.5"  y="114.466" height="6.20494" width="12.5" style="fill: #3b7fd9"/>
    <rect x="475"  y="114.758" height="6.00062" width="12.5" style="fill: #cee2d9"/>
    <rect x="225"  y="114.769" height="5.95885" width="12.5" style="fill: #cca7b4"/>
    <rect x="412.5"  y="114.908" height="6.2661" width="12.5" style="fill: #c242d2"/>
    <rect x="287.5"  y="115.274" height="6.09775" width="12.5" style="fill: #6c31d0"/>
    <rect x="400"  y="115.794" height="5.95491" width="12.5" style="fill: #00b7f9"/>
    <rect x="87.5"  y="119.294" height="5.81341" width="12.5" style="fill: #0b7fe4"/>
    <rect x="450"  y="119.526" height="6.06126" width="12.5" style="fill: #8a131c"/>
    <rect x="312.5"  y="119.879" height="7.54841" width="12.5" style="fill: #7debfb"/>
    <rect x="350"  y="119.891" height="6.45093" width="12.5" style="fill: #e58165"/>
    <rect x="150"  y="120.1" height="7.38442" width="12.5" style="fill: #266de5"/>
    <rect x="462.5"  y="120.671" height="7.36783" width="12.5" style="fill: #6e1edf"/>
    <rect x="225"  y="120.728" height="7.16372" width="12.5" style="fill: #26939a"/>
    <rect x="475"  y="120.759" height="6.44202" width="12.5" style="fill: #f07ec6"/>
    <rect x="187.5"  y="121.103" height="6.56237" width="12.5" style="fill: #9ab1b1"/>
    <rect x="337.5"  y="121.137" height="6.59917" width="12.5" style="fill: #7d8db6"/>
    <rect x="412.5"  y="121.174" height="6.72512" width="12.5" style="fill: #2143f2"/>
    <rect x="437.5"  y="121.198" height="6.93421" width="12.5" style="fill: #228b51"/>
    <rect x="287.5"  y="121.372" height="5.11057" width="12.5" style="fill: #551c3d"/>
    <rect x="275"  y="121.446" height="5.1396" width="12.5" style="fill: #2c7de3"/>
    <rect x="162.5"  y="121.576" height="5.24575" width="12.5" style="fill: #f5072b"/>
    <rect x="400"  y="121.749" height="5.30536" width="12.5" style="fill: #d4d18c"/>
    <rect x="212.5"  y="122.484" height="5.1594" width="12.5" style="fill: #3aeb64"/>
    <rect x="100"  y="122.712" height="5.26513" width="12.5" style="fill: #cb9e8c"/>
    <rect x="200"  y="124.436" height="4.87122" width="12.5" style="fill: #ba8386"/>
    <rect x="87.5"  y="125.107" height="5.00079" width="12.5" style="fill: #67b6ed"/>
    <rect x="450"  y="125.588" height="5.332" width="12.5" style="fill: #2b2fca"/>
    <rect x="350"  y="126.342" height="5.30359" width="12.5" style="fill: #b04aba"/>
    <rect x="287.5"  y="126.482" height="4.09198" width="12.5" style="fill: #e8676e"/>
    <rect x="275"  y="126.586" height="4.02647" width="12.5" style="fill: #318b40"/>
    <rect x="162.5"  y="126.822" height="4.10422" width="12.5" style="fill: #2a7d15"/>
    <rect x="400"  y="127.055" height="4.20746" width="12.5" style="fill: #b30d2d"/>
    <rect x="475"  y="127.201" height="4.58366" width="12.5" style="fill: #7ddb78"/>
    <rect x="312.5"  y="127.427" height="4.0529" width="12.5" style="fill: #650cc6"/>
    <rect x="150"  y="127.485" height="3.81748" width="12.5" style="fill: #af82bc"/>
    <rect x="212.5"  y="127.643" height="3.79333" width="12.5" style="fill: #3d7aa8"/>
    <rect x="187.5"  y="127.665" height="3.80992" width="12.5" style="fill: #05b02d"/>
    <rect x="337.5"  y="127.736" height="3.65992" width="12.5" style="fill: #d9aa52"/>
    <rect x="225"  y="127.891" height="76.5677" width="12.5" style="fill: #3b7374"/>
    <rect x="412.5"  y="127.899" height="3.62384" width="12.5" style="fill: #a1323e"/>
    <rect x="100"  y="127.978" height="4.36057" width="12.5" style="fill: #e6b516"/>
    <rect x="462.5"  y="128.039" height="4.53162" width="12.5" style="fill: #d1b81e"/>
    <rect x="437.5"  y="128.132" height="3.70169" width="12.5" style="fill: #5f709c"/>
    <rect x="200"  y="129.308" height="4.6076" width="12.5" style="fill: #2c790e"/>
    <rect x="87.5"  y="130.108" height="3.90798" width="12.5" style="fill: #daf1c3"/>
    <rect x="287.5"  y="130.574" height="3.65256" width="12.5" style="fill: #fa9b0a"/>
    <rect x="275"  y="130.613" height="3.90425" width="12.5" style="fill: #1dbc6d"/>
    <rect x="450"  y="130.92" height="3.66717" width="12.5" style="fill: #abc2b5"/>
    <rect x="162.5"  y="130.926" height="4.28096" width="12.5" style="fill: #ed2672"/>
    <rect x="400"  y="131.263" height="3.27097" width="12.5" style="fill: #44c458"/>
    <rect x="150"  y="131.302" height="3.07889" width="12.5" style="fill: #752002"/>
    <rect x="337.5"  y="131.396" height="3.02446" width="12.5" style="fill: #b106d6"/>
    <rect x="212.5"  y="131.437" height="3.37122" width="12.5" style="fill: #381fad"/>
    <rect x="187.5"  y="131.475" height="3.15145" width="12.5" style="fill: #58a7e1"/>
    <rect x="312.5"  y="131.48" height="3.25781" width="12.5" style="fill: #93657b"/>
    <rect x="412.5"  y="131.523" height="3.26289" width="12.5" style="fill: #de0fe0"/>
    <rect x="350"  y="131.646" height="3.04945" width="12.5" style="fill: #29120f"/>
    <rect x="475"  y="131.785" height="3.21645" width="12.5" style="fill: #837931"/>
    <rect x="437.5"  y="131.834" height="3.02021" width="12.5" style="fill: #6891f8"/>
    <rect x="100"  y="132.338" height="3.12678" width="12.5" style="fill: #28b8d2"/>
    <rect x="462.5"  y="132.571" height="2.63625" width="12.5" style="fill: #4a049e"/>
    <rect x="200"  y="133.915" height="2.64879" width="12.5" style="fill: #5b86d8"/>
    <rect x="87.5"  y="134.016" height="2.9406" width="12.5" style="fill: #55bcfe"/>
    <rect x="287.5"  y="134.227" height="2.95656" width="12.5" style="fill: #d56765"/>
    <rect x="150"  y="134.381" height="3.27782" width="12.5" style="fill: #f9da1a"/>
    <rect x="337.5"  y="134.42" height="3.3197" width="12.5" style="fill: #c54cae"/>
    <rect x="275"  y="134.517" height="3.0509" width="12.5" style="fill: #af9257"/>
    <rect x="400"  y="134.533" height="2.84171" width="12.5" style="fill: #abc67b"/>
    <rect x="450"  y="134.587" height="2.83652" width="12.5" style="fill: #451bc7"/>
    <rect x="187.5"  y="134.627" height="2.23331" width="12.5" style="fill: #0b0e52"/>
    <rect x="350"  y="134.696" height="2.21258" width="12.5" style="fill: #817dd1"/>
    <rect x="312.5"  y="134.738" height="2.55228" width="12.5" style="fill: #b704a6"/>
    <rect x="412.5"  y="134.786" height="2.37398" width="12.5" style="fill: #b418a8"/>
    <rect x="212.5"  y="134.808" height="2.12363" width="12.5" style="fill: #3fd4a9"/>
    <rect x="437.5"  y="134.854" height="2.43068" width="12.5" style="fill: #ca4c89"/>
    <rect x="475"  y="135.001" height="2.5076" width="12.5" style="fill: #e1a6e7"/>
    <rect x="162.5"  y="135.207" height="2.51621" width="12.5" style="fill: #79f8d9"/>
    <rect x="462.5"  y="135.207" height="2.34153" width="12.5" style="fill: #e9df18"/>
    <rect x="100"  y="135.465" height="2.20294" width="12.5" style="fill: #747591"/>
    <rect x="200"  y="136.564" height="2.72353" width="12.5" style="fill: #e5b314"/>
    <rect x="187.5"  y="136.86" height="2.39596" width="12.5" style="fill: #c05763"/>
    <rect x="350"  y="136.908" height="2.63137" width="12.5" style="fill: #edcd59"/>
    <rect x="212.5"  y="136.932" height="2.46168" width="12.5" style="fill: #632423"/>
    <rect x="87.5"  y="136.957" height="3.01741" width="12.5" style="fill: #ca83f1"/>
    <rect x="412.5"  y="137.16" height="2.75349" width="12.5" style="fill: #4d6f07"/>
    <rect x="287.5"  y="137.183" height="2.31665" width="12.5" style="fill: #3d784d"/>
    <rect x="437.5"  y="137.285" height="2.44343" width="12.5" style="fill: #b2b700"/>
    <rect x="312.5"  y="137.291" height="2.77298" width="12.5" style="fill: #1643a6"/>
    <rect x="400"  y="137.375" height="2.66102" width="12.5" style="fill: #760f9f"/>
    <rect x="450"  y="137.424" height="13.954" width="12.5" style="fill: #0dd6dd"/>
    <rect x="475"  y="137.509" height="1.6274" width="12.5" style="fill: #d0a59e"/>
    <rect x="462.5"  y="137.549" height="1.67322" width="12.5" style="fill: #241dc1"/>
    <rect x="275"  y="137.568" height="1.69955" width="12.5" style="fill: #ed7202"/>
    <rect x="150"  y="137.659" height="1.77388" width="12.5" style="fill: #878962"/>
    <rect x="100"  y="137.668" height="1.76683" width="12.5" style="fill: #86f5cc"/>
    <rect x="162.5"  y="137.724" height="1.72319" width="12.5" style="fill: #3addf6"/>
    <rect x="337.5"  y="137.74" height="1.75574" width="12.5" style="fill: #c1adf6"/>
    <rect x="475"  y="139.136" height="1.82021" width="12.5" style="fill: #ed35f4"/>
    <rect x="462.5"  y="139.222" height="1.69551" width="12.5" style="fill: #77b002"/>
    <rect x="187.5"  y="139.256" height="1.68784" width="12.5" style="fill: #2981e5"/>
    <rect x="275"  y="139.267" height="1.9443" width="12.5" style="fill: #e1fbfe"/>
    <rect x="200"  y="139.288" height="2.04485" width="12.5" style="fill: #1bfb8e"/>
    <rect x="212.5"  y="139.394" height="2.0775" width="12.5" style="fill: #26b5ba"/>
    <rect x="150"  y="139.433" height="2.06061" width="12.5" style="fill: #932532"/>
    <rect x="100"  y="139.435" height="2.20688" width="12.5" style="fill: #75bf6a"/>
    <rect x="162.5"  y="139.447" height="1.93155" width="12.5" style="fill: #44b3fa"/>
    <rect x="337.5"  y="139.496" height="1.86686" width="12.5" style="fill: #1051cd"/>
    <rect x="287.5"  y="139.5" height="2.02495" width="12.5" style="fill: #fe3b3f"/>
    <rect x="350"  y="139.54" height="1.94326" width="12.5" style="fill: #5d2725"/>
    <rect x="437.5"  y="139.728" height="1.86852" width="12.5" style="fill: #a9a580"/>
    <rect x="412.5"  y="139.913" height="1.47097" width="12.5" style="fill: #fd5b04"/>
    <rect x="87.5"  y="139.974" height="1.45605" width="12.5" style="fill: #525b31"/>
    <rect x="400"  y="140.036" height="1.50809" width="12.5" style="fill: #82fcd2"/>
    <rect x="312.5"  y="140.064" height="1.58293" width="12.5" style="fill: #b3fda1"/>
    <rect x="462.5"  y="140.918" height="1.48061" width="12.5" style="fill: #24aca3"/>
    <rect x="187.5"  y="140.944" height="1.62398" width="12.5" style="fill: #c90140"/>
    <rect x="475"  y="140.957" height="1.57567" width="12.5" style="fill: #6a2b55"/>
    <rect x="275"  y="141.212" height="1.52861" width="12.5" style="fill: #cd8b95"/>
    <rect x="200"  y="141.333" height="1.40961" width="12.5" style="fill: #d48d13"/>
    <rect x="337.5"  y="141.363" height="1.49088" width="12.5" style="fill: #e379f1"/>
    <rect x="162.5"  y="141.378" height="1.22851" width="12.5" style="fill: #ccbcdf"/>
    <rect x="412.5"  y="141.384" height="1.29299" width="12.5" style="fill: #c39fee"/>
    <rect x="87.5"  y="141.43" height="1.30107" width="12.5" style="fill: #4acc55"/>
    <rect x="212.5"  y="141.471" height="1.33943" width="12.5" style="fill: #23aa0b"/>
    <rect x="350"  y="141.483" height="1.32056" width="12.5" style="fill: #def57e"/>
    <rect x="150"  y="141.494" height="1.38732" width="12.5" style="fill: #63a1f8"/>
    <rect x="287.5"  y="141.525" height="1.29931" width="12.5" style="fill: #1cbaba"/>
    <rect x="400"  y="141.545" height="1.27464" width="12.5" style="fill: #9f45ca"/>
    <rect x="437.5"  y="141.597" height="1.32844" width="12.5" style="fill: #aed48d"/>
    <rect x="100"  y="141.642" height="1.39831" width="12.5" style="fill: #06bfb3"/>
    <rect x="312.5"  y="141.647" height="0.951831" width="12.5" style="fill: #d16836"/>
    <rect x="462.5"  y="142.398" height="0.928922" width="12.5" style="fill: #042bed"/>
    <rect x="475"  y="142.532" height="1.04046" width="12.5" style="fill: #57cac8"/>
    <rect x="187.5"  y="142.568" height="0.926952" width="12.5" style="fill: #4761bf"/>
    <rect x="312.5"  y="142.598" height="1.00117" width="12.5" style="fill: #eb59a0"/>
    <rect x="162.5"  y="142.607" height="0.934934" width="12.5" style="fill: #c81304"/>
    <rect x="412.5"  y="142.677" height="1.00978" width="12.5" style="fill: #908bb7"/>
    <rect x="87.5"  y="142.731" height="0.961057" width="12.5" style="fill: #81e4bb"/>
    <rect x="275"  y="142.74" height="1.01278" width="12.5" style="fill: #df230d"/>
    <rect x="200"  y="142.743" height="1.03538" width="12.5" style="fill: #2e9773"/>
    <rect x="350"  y="142.804" height="0.850034" width="12.5" style="fill: #74b97b"/>
    <rect x="212.5"  y="142.811" height="0.864755" width="12.5" style="fill: #d0b6b7"/>
    <rect x="400"  y="142.819" height="0.936593" width="12.5" style="fill: #d38b73"/>
    <rect x="287.5"  y="142.824" height="1.00708" width="12.5" style="fill: #642882"/>
    <rect x="337.5"  y="142.854" height="0.9934" width="12.5" style="fill: #6a0f27"/>
    <rect x="150"  y="142.881" height="0.934831" width="12.5" style="fill: #29be22"/>
    <rect x="437.5"  y="142.926" height="0.83065" width="12.5" style="fill: #90256d"/>
    <rect x="100"  y="143.04" height="0.896164" width="12.5" style="fill: #c304e8"/>
    <rect x="462.5"  y="143.327" height="0.913787" width="12.5" style="fill: #75c9d4"/>
    <rect x="187.5"  y="143.495" height="0.943538" width="12.5" style="fill: #b3fb21"/>
    <rect x="162.5"  y="143.542" height="0.999412" width="12.5" style="fill: #25ae3d"/>
    <rect x="475"  y="143.573" height="0.964685" width="12.5" style="fill: #0cd313"/>
    <rect x="312.5"  y="143.6" height="0.95038" width="12.5" style="fill: #0d6114"/>
    <rect x="350"  y="143.654" height="0.946026" width="12.5" style="fill: #989517"/>
    <rect x="212.5"  y="143.675" height="0.985729" width="12.5" style="fill: #aca97d"/>
    <rect x="412.5"  y="143.687" height="0.955978" width="12.5" style="fill: #aa2485"/>
    <rect x="87.5"  y="143.692" height="1.04471" width="12.5" style="fill: #181eb3"/>
    <rect x="275"  y="143.753" height="0.95971" width="12.5" style="fill: #1c07d2"/>
    <rect x="400"  y="143.756" height="0.928714" width="12.5" style="fill: #c6a5bc"/>
    <rect x="437.5"  y="143.756" height="1.00895" width="12.5" style="fill: #c587e0"/>
    <rect x="200"  y="143.778" height="5.15473" width="12.5" style="fill: #48a6d2"/>
    <rect x="150"  y="143.816" height="0.689979" width="12.5" style="fill: #beacd6"/>
    <rect x="287.5"  y="143.832" height="0.711852" width="12.5" style="fill: #fe206f"/>
    <rect x="337.5"  y="143.847" height="0.666655" width="12.5" style="fill: #225c70"/>
    <rect x="100"  y="143.937" height="0.687491" width="12.5" style="fill: #8461b4"/>
    <rect x="462.5"  y="144.241" height="0.683863" width="12.5" style="fill: #1fdb5a"/>
    <rect x="187.5"  y="144.439" height="0.666759" width="12.5" style="fill: #d087c5"/>
    <rect x="150"  y="144.506" height="0.686351" width="12.5" style="fill: #dc4fca"/>
    <rect x="337.5"  y="144.514" height="0.724603" width="12.5" style="fill: #eec3a3"/>
    <rect x="475"  y="144.538" height="0.702315" width="12.5" style="fill: #437a42"/>
    <rect x="162.5"  y="144.541" height="0.694022" width="12.5" style="fill: #e51b06"/>
    <rect x="287.5"  y="144.543" height="5.73442" width="12.5" style="fill: #5d6e43"/>
    <rect x="312.5"  y="144.55" height="4.89298" width="12.5" style="fill: #32f71b"/>
    <rect x="350"  y="144.6" height="11.3417" width="12.5" style="fill: #109d33"/>
    <rect x="100"  y="144.624" height="2.93822" width="12.5" style="fill: #17681a"/>
    <rect x="412.5"  y="144.643" height="0.4217" width="12.5" style="fill: #b0fcbf"/>
    <rect x="212.5"  y="144.661" height="0.440981" width="12.5" style="fill: #31c9f1"/>
    <rect x="400"  y="144.685" height="0.420249" width="12.5" style="fill: #c23ba4"/>
    <rect x="275"  y="144.713" height="0.441603" width="12.5" style="fill: #6b4f98"/>
    <rect x="87.5"  y="144.737" height="0.461507" width="12.5" style="fill: #3af921"/>
    <rect x="437.5"  y="144.765" height="0.434451" width="12.5" style="fill: #4d13ac"/>
    <rect x="462.5"  y="144.925" height="0.465238" width="12.5" style="fill: #3ddf6c"/>
    <rect x="412.5"  y="145.065" height="0.418486" width="12.5" style="fill: #03f3e9"/>
    <rect x="212.5"  y="145.102" height="0.440774" width="12.5" style="fill: #854c4d"/>
    <rect x="400"  y="145.105" height="0.423877" width="12.5" style="fill: #47741a"/>
    <rect x="187.5"  y="145.106" height="2.49381" width="12.5" style="fill: #557681"/>
    <rect x="275"  y="145.155" height="0.428956" width="12.5" style="fill: #2be0b5"/>
    <rect x="150"  y="145.193" height="0.389772" width="12.5" style="fill: #cb8bf6"/>
    <rect x="87.5"  y="145.199" height="0.37443" width="12.5" style="fill: #47b930"/>
    <rect x="437.5"  y="145.2" height="0.41237" width="12.5" style="fill: #687ec8"/>
    <rect x="162.5"  y="145.235" height="0.40812" width="12.5" style="fill: #81df76"/>
    <rect x="337.5"  y="145.239" height="0.426676" width="12.5" style="fill: #191f9c"/>
    <rect x="475"  y="145.24" height="0.435902" width="12.5" style="fill: #468c17"/>
    <rect x="462.5"  y="145.39" height="0.41237" width="12.5" style="fill: #36eef1"/>
    <rect x="412.5"  y="145.484" height="0.443262" width="12.5" style="fill: #e59635"/>
    <rect x="400"  y="145.529" height="0.4585" width="12.5" style="fill: #eb6cbd"/>
    <rect x="212.5"  y="145.543" height="0.379613" width="12.5" style="fill: #2c73b0"/>
    <rect x="87.5"  y="145.573" height="0.381997" width="12.5" style="fill: #0068c8"/>
    <rect x="150"  y="145.582" height="0.387595" width="12.5" style="fill: #ffeded"/>
    <rect x="275"  y="145.584" height="0.402419" width="12.5" style="fill: #ec2826"/>
    <rect x="437.5"  y="145.612" height="0.361161" width="12.5" style="fill: #d114dc"/>
    <rect x="162.5"  y="145.644" height="0.353179" width="12.5" style="fill: #1f8824"/>
    <rect x="337.5"  y="145.665" height="0.381272" width="12.5" style="fill: #924fa0"/>
    <rect x="475"  y="145.676" height="0.340532" width="12.5" style="fill: #79056e"/>
    <rect x="462.5"  y="145.803" height="0.385107" width="12.5" style="fill: #25a5dd"/>
    <rect x="212.5"  y="145.923" height="0.39454" width="12.5" style="fill: #baeceb"/>
    <rect x="412.5"  y="145.927" height="0.38915" width="12.5" style="fill: #90a18c"/>
    <rect x="87.5"  y="145.955" height="0.406876" width="12.5" style="fill: #51f919"/>
    <rect x="150"  y="145.97" height="0.382826" width="12.5" style="fill: #a83ae9"/>
    <rect x="437.5"  y="145.973" height="0.404699" width="12.5" style="fill: #80e25b"/>
    <rect x="275"  y="145.986" height="0.402108" width="12.5" style="fill: #f06dd4"/>
    <rect x="400"  y="145.987" height="0.388217" width="12.5" style="fill: #86427d"/>
    <rect x="162.5"  y="145.997" height="0.368728" width="12.5" style="fill: #fdee6f"/>
    <rect x="475"  y="146.017" height="0.416102" width="12.5" style="fill: #708aa6"/>
    <rect x="337.5"  y="146.047" height="0.375155" width="12.5" style="fill: #42625c"/>
    <rect x="462.5"  y="146.188" height="0.412059" width="12.5" style="fill: #e4c429"/>
    <rect x="412.5"  y="146.316" height="0.35038" width="12.5" style="fill: #8afdd7"/>
    <rect x="212.5"  y="146.317" height="0.349551" width="12.5" style="fill: #ac48aa"/>
    <rect x="150"  y="146.353" height="0.336178" width="12.5" style="fill: #81b0c5"/>
    <rect x="87.5"  y="146.362" height="0.31669" width="12.5" style="fill: #608c2d"/>
    <rect x="162.5"  y="146.366" height="0.338562" width="12.5" style="fill: #801543"/>
    <rect x="400"  y="146.376" height="0.353283" width="12.5" style="fill: #edeeab"/>
    <rect x="437.5"  y="146.378" height="0.343953" width="12.5" style="fill: #5479c1"/>
    <rect x="275"  y="146.388" height="0.350898" width="12.5" style="fill: #342e4e"/>
    <rect x="337.5"  y="146.422" height="0.355874" width="12.5" style="fill: #4aec71"/>
    <rect x="475"  y="146.433" height="0.372875" width="12.5" style="fill: #9f1a46"/>
    <rect x="462.5"  y="146.6" height="2.27923" width="12.5" style="fill: #e33c1d"/>
    <rect x="412.5"  y="146.667" height="0.269938" width="12.5" style="fill: #761efd"/>
    <rect x="212.5"  y="146.667" height="0.289634" width="12.5" style="fill: #f22116"/>
    <rect x="87.5"  y="146.679" height="0.268175" width="12.5" style="fill: #051e18"/>
    <rect x="150"  y="146.689" height="0.280511" width="12.5" style="fill: #fa714c"/>
    <rect x="162.5"  y="146.704" height="0.261956" width="12.5" style="fill: #72fae0"/>
    <rect x="437.5"  y="146.722" height="0.278853" width="12.5" style="fill: #756835"/>
    <rect x="400"  y="146.729" height="0.265584" width="12.5" style="fill: #527748"/>
    <rect x="275"  y="146.739" height="0.286627" width="12.5" style="fill: #e4df2e"/>
    <rect x="337.5"  y="146.778" height="0.289012" width="12.5" style="fill: #728e3d"/>
    <rect x="475"  y="146.806" height="0.27284" width="12.5" style="fill: #aaf94e"/>
    <rect x="412.5"  y="146.937" height="1.34088" width="12.5" style="fill: #9b3f37"/>
    <rect x="87.5"  y="146.947" height="0.21396" width="12.5" style="fill: #489c0d"/>
    <rect x="212.5"  y="146.957" height="0.217692" width="12.5" style="fill: #4e12d4"/>
    <rect x="162.5"  y="146.966" height="0.214064" width="12.5" style="fill: #046929"/>
    <rect x="150"  y="146.97" height="0.22246" width="12.5" style="fill: #6d3567"/>
    <rect x="400"  y="146.995" height="0.213131" width="12.5" style="fill: #3027f5"/>
    <rect x="437.5"  y="147.001" height="0.21935" width="12.5" style="fill: #e4d70d"/>
    <rect x="275"  y="147.026" height="0.207636" width="12.5" style="fill: #54b668"/>
    <rect x="337.5"  y="147.067" height="0.226192" width="12.5" style="fill: #a7c00f"/>
    <rect x="475"  y="147.079" height="0.23604" width="12.5" style="fill: #96ccb2"/>
    <rect x="87.5"  y="147.161" height="0.224015" width="12.5" style="fill: #3f2562"/>
    <rect x="212.5"  y="147.174" height="0.196752" width="12.5" style="fill: #a468b6"/>
    <rect x="162.5"  y="147.18" height="0.18058" width="12.5" style="fill: #50a171"/>
    <rect x="150"  y="147.192" height="0.184105" width="12.5" style="fill: #918628"/>
    <rect x="400"  y="147.208" height="0.185556" width="12.5" style="fill: #5be189"/>
    <rect x="437.5"  y="147.22" height="0.189495" width="12.5" style="fill: #3b861e"/>
    <rect x="275"  y="147.234" height="0.179544" width="12.5" style="fill: #8b2e3e"/>
    <rect x="337.5"  y="147.293" height="0.183587" width="12.5" style="fill: #49eea5"/>
    <rect x="475"  y="147.315" height="0.18877" width="12.5" style="fill: #f37799"/>
    <rect x="162.5"  y="147.361" height="0.198721" width="12.5" style="fill: #fe4dfc"/>
    <rect x="212.5"  y="147.371" height="0.210228" width="12.5" style="fill: #738f99"/>
    <rect x="150"  y="147.376" height="0.799032" width="12.5" style="fill: #e140f8"/>
    <rect x="87.5"  y="147.385" height="0.820076" width="12.5" style="fill: #e31d1b"/>
    <rect x="400"  y="147.393" height="0.83718" width="12.5" style="fill: #21e988"/>
    <rect x="437.5"  y="147.41" height="0.636489" width="12.5" style="fill: #286756"/>
    <rect x="275"  y="147.413" height="0.597097" width="12.5" style="fill: #3c9bc2"/>
    <rect x="337.5"  y="147.477" height="0.459641" width="12.5" style="fill: #4a39a2"/>
    <rect x="475"  y="147.504" height="0.108328" width="12.5" style="fill: #195266"/>
    <rect x="162.5"  y="147.56" height="0.111023" width="12.5" style="fill: #d87b20"/>
    <rect x="100"  y="147.563" height="0.119834" width="12.5" style="fill: #348abd"/>
    <rect x="212.5"  y="147.582" height="0.115169" width="12.5" style="fill: #0fa9a6"/>
    <rect x="187.5"  y="147.599" height="0.104596" width="12.5" style="fill: #bf0e8a"/>
    <rect x="475"  y="147.612" height="0.110193" width="12.5" style="fill: #0935b9"/>
    <rect x="162.5"  y="147.671" height="0.107913" width="12.5" style="fill: #b82334"/>
    <rect x="100"  y="147.682" height="0.0997236" width="12.5" style="fill: #378b14"/>
    <rect x="212.5"  y="147.697" height="0.108431" width="12.5" style="fill: #8132ad"/>
    <rect x="187.5"  y="147.704" height="0.11123" width="12.5" style="fill: #85c834"/>
    <rect x="475"  y="147.722" height="0.466482" width="12.5" style="fill: #33d688"/>
    <rect x="162.5"  y="147.779" height="0.348825" width="12.5" style="fill: #030264"/>
    <rect x="100"  y="147.782" height="0.321354" width="12.5" style="fill: #69be4c"/>
    <rect x="212.5"  y="147.805" height="0.238943" width="12.5" style="fill: #2dd5f7"/>
    <rect x="187.5"  y="147.815" height="0.327782" width="12.5" style="fill: #38cf0f"/>
    <rect x="337.5"  y="147.936" height="0.0680028" width="12.5" style="fill: #4321aa"/>
    <rect x="337.5"  y="148.005" height="0.0660332" width="12.5" style="fill: #aadac4"/>
    <rect x="275"  y="148.01" height="0.0704907" width="12.5" style="fill: #e2d902"/>
    <rect x="212.5"  y="148.044" height="0.0640636" width="12.5" style="fill: #53f28e"/>
    <rect x="437.5"  y="148.047" height="0.0686247" width="12.5" style="fill: #9b65b7"/>
    <rect x="337.5"  y="148.071" height="0.0693504" width="12.5" style="fill: #4fa604"/>
    <rect x="275"  y="148.081" height="0.0702833" width="12.5" style="fill: #0aee5a"/>
    <rect x="100"  y="148.104" height="0.0715273" width="12.5" style="fill: #23cfdd"/>
    <rect x="212.5"  y="148.108" height="0.0688321" width="12.5" style="fill: #120058"/>
    <rect x="437.5"  y="148.115" height="0.069143" width="12.5" style="fill: #fe454f"/>
    <rect x="162.5"  y="148.128" height="0.0660332" width="12.5" style="fill: #c8e7fe"/>
    <rect x="337.5"  y="148.14" height="0.0683137" width="12.5" style="fill: #bf9ade"/>
    <rect x="187.5"  y="148.143" height="0.061783" width="12.5" style="fill: #4f11fe"/>
    <rect x="275"  y="148.151" height="0.0733932" width="12.5" style="fill: #e01e16"/>
    <rect x="100"  y="148.175" height="0.0729786" width="12.5" style="fill: #604a58"/>
    <rect x="150"  y="148.175" height="0.0698687" width="12.5" style="fill: #921790"/>
    <rect x="212.5"  y="148.177" height="0.0651002" width="12.5" style="fill: #64ffed"/>
    <rect x="437.5"  y="148.185" height="0.062094" width="12.5" style="fill: #d3ce4b"/>
    <rect x="475"  y="148.189" height="0.0664478" width="12.5" style="fill: #d2ce0d"/>
    <rect x="162.5"  y="148.194" height="0.0660332" width="12.5" style="fill: #46d812"/>
    <rect x="187.5"  y="148.205" height="0.266517" width="12.5" style="fill: #1a422d"/>
    <rect x="87.5"  y="148.205" height="0.0656185" width="12.5" style="fill: #282170"/>
    <rect x="337.5"  y="148.208" height="0.0597097" width="12.5" style="fill: #e43b27"/>
    <rect x="275"  y="148.225" height="0.0571182" width="12.5" style="fill: #6f92d9"/>
    <rect x="400"  y="148.231" height="0.0641672" width="12.5" style="fill: #f10ca1"/>
    <rect x="212.5"  y="148.242" height="0.0505874" width="12.5" style="fill: #fbb3dd"/>
    <rect x="150"  y="148.245" height="0.0636489" width="12.5" style="fill: #1f530c"/>
    <rect x="437.5"  y="148.247" height="0.0601244" width="12.5" style="fill: #3f07a3"/>
    <rect x="100"  y="148.248" height="0.0600207" width="12.5" style="fill: #e02830"/>
    <rect x="475"  y="148.255" height="0.0588804" width="12.5" style="fill: #1211fb"/>
    <rect x="162.5"  y="148.26" height="0.0598134" width="12.5" style="fill: #2e6e13"/>
    <rect x="337.5"  y="148.268" height="0.154665" width="12.5" style="fill: #b22153"/>
    <rect x="87.5"  y="148.271" height="0.0497581" width="12.5" style="fill: #d92e0c"/>
    <rect x="412.5"  y="148.278" height="0.0493435" width="12.5" style="fill: #1ec36f"/>
    <rect x="275"  y="148.282" height="0.0472702" width="12.5" style="fill: #382591"/>
    <rect x="212.5"  y="148.293" height="0.0465446" width="12.5" style="fill: #0cf7a0"/>
    <rect x="400"  y="148.295" height="0.051624" width="12.5" style="fill: #a53d68"/>
    <rect x="437.5"  y="148.307" height="0.051624" width="12.5" style="fill: #041221"/>
    <rect x="100"  y="148.308" height="0.0498618" width="12.5" style="fill: #e30a66"/>
    <rect x="150"  y="148.309" height="0.0470629" width="12.5" style="fill: #aaecf8"/>
    <rect x="475"  y="148.314" height="0.0486178" width="12.5" style="fill: #df4c6e"/>
    <rect x="162.5"  y="148.32" height="0.0513131" width="12.5" style="fill: #c13fea"/>
    <rect x="87.5"  y="148.321" height="0.152488" width="12.5" style="fill: #8ee900"/>
    <rect x="412.5"  y="148.327" height="0.0428127" width="12.5" style="fill: #be3b89"/>
    <rect x="275"  y="148.329" height="0.0417761" width="12.5" style="fill: #1230e2"/>
    <rect x="212.5"  y="148.34" height="0.0401175" width="12.5" style="fill: #8b2c78"/>
    <rect x="400"  y="148.347" height="0.0413614" width="12.5" style="fill: #a49d37"/>
    <rect x="150"  y="148.356" height="0.0398065" width="12.5" style="fill: #7b5555"/>
    <rect x="100"  y="148.358" height="0.0403248" width="12.5" style="fill: #5038bc"/>
    <rect x="437.5"  y="148.359" height="0.0389772" width="12.5" style="fill: #2ce5cd"/>
    <rect x="475"  y="148.363" height="0.0385625" width="12.5" style="fill: #848a00"/>
    <rect x="412.5"  y="148.37" height="0.0428127" width="12.5" style="fill: #2a4c87"/>
    <rect x="275"  y="148.371" height="0.0379406" width="12.5" style="fill: #3f3958"/>
    <rect x="162.5"  y="148.371" height="0.122011" width="12.5" style="fill: #ea8233"/>
    <rect x="212.5"  y="148.38" height="0.140774" width="12.5" style="fill: #e5fcac"/>
    <rect x="400"  y="148.388" height="0.0382515" width="12.5" style="fill: #9202c1"/>
    <rect x="150"  y="148.396" height="0.0366966" width="12.5" style="fill: #2fb6b3"/>
    <rect x="437.5"  y="148.398" height="0.0419834" width="12.5" style="fill: #de3078"/>
    <rect x="100"  y="148.399" height="0.0390809" width="12.5" style="fill: #862085"/>
    <rect x="475"  y="148.401" height="0.0373186" width="12.5" style="fill: #36a325"/>
    <rect x="275"  y="148.409" height="0.0399102" width="12.5" style="fill: #fc7fe4"/>
    <rect x="412.5"  y="148.413" height="0.0376296" width="12.5" style="fill: #003c6e"/>
    <rect x="337.5"  y="148.423" height="0.0390809" width="12.5" style="fill: #f3c244"/>
    <rect x="400"  y="148.426" height="0.0415688" width="12.5" style="fill: #acadd2"/>
    <rect x="150"  y="148.433" height="0.0411541" width="12.5" style="fill: #208d3a"/>
    <rect x="100"  y="148.438" height="0.0404285" width="12.5" style="fill: #226924"/>
    <rect x="475"  y="148.439" height="0.0401175" width="12.5" style="fill: #d240ea"/>
    <rect x="437.5"  y="148.44" height="0.0412578" width="12.5" style="fill: #eeeb02"/>
    <rect x="275"  y="148.449" height="0.0377332" width="12.5" style="fill: #fbe98b"/>
    <rect x="412.5"  y="148.45" height="0.0407395" width="12.5" style="fill: #bac37f"/>
    <rect x="337.5"  y="148.462" height="0.0380442" width="12.5" style="fill: #d92434"/>
    <rect x="400"  y="148.468" height="0.0399102" width="12.5" style="fill: #806d15"/>
    <rect x="187.5"  y="148.472" height="0.0393918" width="12.5" style="fill: #7f35a3"/>
    <rect x="87.5"  y="148.473" height="0.0406358" width="12.5" style="fill: #79e626"/>
    <rect x="150"  y="148.474" height="0.0408431" width="12.5" style="fill: #1d1d08"/>
    <rect x="100"  y="148.478" height="0.113718" width="12.5" style="fill: #de2f25"/>
    <rect x="475"  y="148.479" height="0.0659295" width="12.5" style="fill: #3a5976"/>
    <rect x="437.5"  y="148.481" height="0.0613683" width="12.5" style="fill: #ef6140"/>
    <rect x="275"  y="148.487" height="0.0460263" width="12.5" style="fill: #5ca32c"/>
    <rect x="412.5"  y="148.491" height="0.0476849" width="12.5" style="fill: #a3ab1a"/>
    <rect x="162.5"  y="148.493" height="0.0500691" width="12.5" style="fill: #3e85da"/>
    <rect x="337.5"  y="148.5" height="0.0474775" width="12.5" style="fill: #a0509c"/>
    <rect x="400"  y="148.508" height="0.035349" width="12.5" style="fill: #68bc90"/>
    <rect x="187.5"  y="148.511" height="0.0302695" width="12.5" style="fill: #dec72e"/>
    <rect x="87.5"  y="148.514" height="0.00787837" width="12.5" style="fill: #3c1d72"/>
    <rect x="150"  y="148.515" height="0.00767104" width="12.5" style="fill: #8a000d"/>
    <rect x="212.5"  y="148.521" height="0.00860401" width="12.5" style="fill: #bad0a7"/>
    <rect x="87.5"  y="148.522" height="0.00808569" width="12.5" style="fill: #c1f8d8"/>
    <rect x="150"  y="148.523" height="0.00798203" width="12.5" style="fill: #8a7419"/>
    <rect x="212.5"  y="148.529" height="0.00756738" width="12.5" style="fill: #25532c"/>
    <rect x="87.5"  y="148.53" height="0.00850034" width="12.5" style="fill: #6a66b6"/>
    <rect x="150"  y="148.531" height="0.00808569" width="12.5" style="fill: #46116b"/>
    <rect x="275"  y="148.533" height="0.00808569" width="12.5" style="fill: #82c7aa"/>
    <rect x="212.5"  y="148.537" height="0.00767104" width="12.5" style="fill: #024766"/>
    <rect x="87.5"  y="148.539" height="0.0126469" width="12.5" style="fill: #08b5cd"/>
    <rect x="150"  y="148.539" height="0.00829302" width="12.5" style="fill: #128783"/>
    <rect x="412.5"  y="148.539" height="0.00881133" width="12.5" style="fill: #ec9fef"/>
    <rect x="275"  y="148.541" height="0.00756738" width="12.5" style="fill: #a617ec"/>
    <rect x="187.5"  y="148.541" height="0.00642709" width="12.5" style="fill: #1ee555"/>
    <rect x="437.5"  y="148.542" height="0.00663442" width="12.5" style="fill: #b5d6a9"/>
    <rect x="400"  y="148.543" height="0.00590878" width="12.5" style="fill: #4bbc24"/>
    <rect x="162.5"  y="148.543" height="0.00497581" width="12.5" style="fill: #f008fe"/>
    <rect x="212.5"  y="148.545" height="0.000932965" width="12.5" style="fill: #7a5813"/>
</svg>
</svg>
