<svg  xmlns="http://www.w3.org/2000/svg" xmlns:xlink="http://www.w3.org/1999/xlink" x="0" y="0" width="600" height="600">
<rect x="0%" y="0%" height="100%" width="100%" style="fill: #ffffff"/>
<svg x="0" y="0">
  <text fill="dark" font-size="35" transform="translate(250, 30)">cores</text>
</svg>
<svg x="0" y="0"> 
  <text fill="dark" font-size="35" transform="translate(30, 300) rotate(270)">time</text>
</svg>
<svg x = "50" y="550">
  <text fill="blue" font-size="30" transform="translate(0, 35)">t = 57s, lb = 0.313811</text>
</svg>
<svg x="50" y="50" width="500" height="500" >
  <rect x="0%" y="0%" height="100%" width="100%" style="fill: #eeeeee"/>
    <rect x="0"  y="0.181919" height="41.6161" width="12.5" style="fill: #dab2b3"/>
    <rect x="12.5"  y="0.173256" height="59.9466" width="12.5" style="fill: #6c248b"/>
    <rect x="25"  y="0.173256" height="21.5357" width="12.5" style="fill: #87d6ae"/>
    <rect x="37.5"  y="0.173256" height="77.8787" width="12.5" style="fill: #33f9a6"/>
    <rect x="50"  y="0.181919" height="104.915" width="12.5" style="fill: #2d7183"/>
    <rect x="62.5"  y="0.181919" height="97.8031" width="12.5" style="fill: #a5d578"/>
    <rect x="75"  y="0.181919" height="33.2738" width="12.5" style="fill: #9e4b2d"/>
    <rect x="87.5"  y="0.173256" height="13.9125" width="12.5" style="fill: #6b441e"/>
    <rect x="100"  y="0.173256" height="12.7257" width="12.5" style="fill: #2411dc"/>
    <rect x="112.5"  y="0.181919" height="26.4389" width="12.5" style="fill: #709e11"/>
    <rect x="125"  y="0.181919" height="32.5202" width="12.5" style="fill: #1c7e1e"/>
    <rect x="137.5"  y="0.181919" height="37.5879" width="12.5" style="fill: #7acb6f"/>
    <rect x="150"  y="0.181919" height="75.8862" width="12.5" style="fill: #8cac0b"/>
    <rect x="162.5"  y="0.173256" height="131.536" width="12.5" style="fill: #b2fc4c"/>
    <rect x="175"  y="0.173256" height="36.5224" width="12.5" style="fill: #8bc2ae"/>
    <rect x="187.5"  y="0.173256" height="125.845" width="12.5" style="fill: #3baaab"/>
    <rect x="200"  y="0.173256" height="42.2139" width="12.5" style="fill: #9165cc"/>
    <rect x="212.5"  y="0.173256" height="88.8458" width="12.5" style="fill: #458e19"/>
    <rect x="225"  y="0.181919" height="57.9715" width="12.5" style="fill: #9cb89f"/>
    <rect x="237.5"  y="0.173256" height="18.0013" width="12.5" style="fill: #51b135"/>
    <rect x="250"  y="0.181919" height="100.757" width="12.5" style="fill: #f7091a"/>
    <rect x="262.5"  y="0.173256" height="124.476" width="12.5" style="fill: #5abb08"/>
    <rect x="275"  y="0.173256" height="251.992" width="12.5" style="fill: #74df3e"/>
    <rect x="287.5"  y="0.173256" height="212.386" width="12.5" style="fill: #8cb454"/>
    <rect x="300"  y="0.181919" height="29.4449" width="12.5" style="fill: #3a5eb9"/>
    <rect x="312.5"  y="0.173256" height="16.6066" width="12.5" style="fill: #3b0441"/>
    <rect x="325"  y="0.173256" height="33.2825" width="12.5" style="fill: #e9ca4c"/>
    <rect x="337.5"  y="0.173256" height="23.1297" width="12.5" style="fill: #2b0fb3"/>
    <rect x="350"  y="0.173256" height="45.2372" width="12.5" style="fill: #d30875"/>
    <rect x="362.5"  y="0.173256" height="29.4882" width="12.5" style="fill: #cbf29a"/>
    <rect x="375"  y="0.173256" height="90.5004" width="12.5" style="fill: #bd5b1a"/>
    <rect x="387.5"  y="0.173256" height="16.5893" width="12.5" style="fill: #cf3898"/>
    <rect x="400"  y="0.181919" height="18.3478" width="12.5" style="fill: #4b35ae"/>
    <rect x="412.5"  y="0.181919" height="112.876" width="12.5" style="fill: #882809"/>
    <rect x="425"  y="0.173256" height="131.086" width="12.5" style="fill: #dd4cfe"/>
    <rect x="437.5"  y="0.181919" height="100.887" width="12.5" style="fill: #7abc5c"/>
    <rect x="450"  y="0.181919" height="103.165" width="12.5" style="fill: #61baa5"/>
    <rect x="462.5"  y="0.173256" height="119.096" width="12.5" style="fill: #2e053b"/>
    <rect x="475"  y="0.173256" height="127.967" width="12.5" style="fill: #4c3643"/>
    <rect x="100"  y="13.0808" height="42.9156" width="12.5" style="fill: #f204ef"/>
    <rect x="87.5"  y="14.2676" height="13.3321" width="12.5" style="fill: #259d2e"/>
    <rect x="387.5"  y="16.9445" height="64.9624" width="12.5" style="fill: #98042a"/>
    <rect x="312.5"  y="16.9618" height="91.4619" width="12.5" style="fill: #948aac"/>
    <rect x="237.5"  y="18.3565" height="43.2621" width="12.5" style="fill: #5e884c"/>
    <rect x="400"  y="18.703" height="49.8285" width="12.5" style="fill: #b3ec7d"/>
    <rect x="25"  y="21.8909" height="107.263" width="12.5" style="fill: #b92564"/>
    <rect x="337.5"  y="23.4849" height="60.7869" width="12.5" style="fill: #3fd34f"/>
    <rect x="112.5"  y="26.8027" height="21.2932" width="12.5" style="fill: #dd467e"/>
    <rect x="87.5"  y="27.7816" height="32.5548" width="12.5" style="fill: #2cca40"/>
    <rect x="300"  y="29.8001" height="90.8815" width="12.5" style="fill: #6035cb"/>
    <rect x="362.5"  y="29.8434" height="48.0266" width="12.5" style="fill: #2744cb"/>
    <rect x="125"  y="32.8754" height="115.588" width="12.5" style="fill: #90a63e"/>
    <rect x="75"  y="33.6377" height="34.4" width="12.5" style="fill: #51c973"/>
    <rect x="325"  y="33.6377" height="201.064" width="12.5" style="fill: #790334"/>
    <rect x="175"  y="36.8776" height="32.6588" width="12.5" style="fill: #3947e0"/>
    <rect x="137.5"  y="37.9518" height="39.2772" width="12.5" style="fill: #208654"/>
    <rect x="0"  y="41.98" height="48.1999" width="12.5" style="fill: #1e4c48"/>
    <rect x="200"  y="42.5777" height="24.1606" width="12.5" style="fill: #a99630"/>
    <rect x="350"  y="45.5924" height="151.963" width="12.5" style="fill: #aa9aec"/>
    <rect x="112.5"  y="48.2692" height="41.0877" width="12.5" style="fill: #e15384"/>
    <rect x="100"  y="56.1783" height="25.46" width="12.5" style="fill: #3a4b19"/>
    <rect x="225"  y="58.3267" height="7.89182" width="12.5" style="fill: #0274eb"/>
    <rect x="12.5"  y="60.3105" height="37.4233" width="12.5" style="fill: #c955f8"/>
    <rect x="87.5"  y="60.5184" height="31.9051" width="12.5" style="fill: #592e30"/>
    <rect x="237.5"  y="61.8005" height="105.019" width="12.5" style="fill: #a2205a"/>
    <rect x="225"  y="66.4004" height="109.758" width="12.5" style="fill: #485846"/>
    <rect x="200"  y="66.9115" height="44.4835" width="12.5" style="fill: #248987"/>
    <rect x="75"  y="68.211" height="431.789" width="12.5" style="fill: #550aaf"/>
    <rect x="400"  y="68.7134" height="30.034" width="12.5" style="fill: #2094ec"/>
    <rect x="175"  y="69.7183" height="340.916" width="12.5" style="fill: #59e793"/>
    <rect x="150"  y="76.25" height="12.5611" width="12.5" style="fill: #1dc650"/>
    <rect x="137.5"  y="77.4022" height="30.4671" width="12.5" style="fill: #c7451c"/>
    <rect x="362.5"  y="78.0519" height="8.69746" width="12.5" style="fill: #c61c0c"/>
    <rect x="37.5"  y="78.2425" height="141.403" width="12.5" style="fill: #b2c46a"/>
    <rect x="100"  y="81.8202" height="41.876" width="12.5" style="fill: #1b3f2c"/>
    <rect x="387.5"  y="82.0801" height="11.8767" width="12.5" style="fill: #349faf"/>
    <rect x="337.5"  y="84.4537" height="16.0089" width="12.5" style="fill: #f763c7"/>
    <rect x="362.5"  y="86.9226" height="4.54797" width="12.5" style="fill: #f8d14d"/>
    <rect x="150"  y="88.9844" height="66.7469" width="12.5" style="fill: #dff946"/>
    <rect x="212.5"  y="89.2009" height="70.2987" width="12.5" style="fill: #351744"/>
    <rect x="112.5"  y="89.5301" height="91.8171" width="12.5" style="fill: #378d62"/>
    <rect x="0"  y="90.3531" height="78.563" width="12.5" style="fill: #c59285"/>
    <rect x="375"  y="90.8555" height="34.3047" width="12.5" style="fill: #a8d791"/>
    <rect x="362.5"  y="91.6439" height="53.2503" width="12.5" style="fill: #5614f5"/>
    <rect x="87.5"  y="92.6054" height="21.7956" width="12.5" style="fill: #a2ac9e"/>
    <rect x="387.5"  y="94.1387" height="25.2521" width="12.5" style="fill: #0d68ac"/>
    <rect x="12.5"  y="97.9071" height="65.9066" width="12.5" style="fill: #a6248a"/>
</svg>
</svg>
