<svg  xmlns="http://www.w3.org/2000/svg" xmlns:xlink="http://www.w3.org/1999/xlink" x="0" y="0" width="600" height="600">
<rect x="0%" y="0%" height="100%" width="100%" style="fill: #ffffff"/>
<svg x="0" y="0">
  <text fill="dark" font-size="35" transform="translate(250, 30)">cores</text>
</svg>
<svg x="0" y="0"> 
  <text fill="dark" font-size="35" transform="translate(30, 300) rotate(270)">time</text>
</svg>
<svg x = "50" y="550">
  <text fill="blue" font-size="30" transform="translate(0, 35)">t = 8s, lb = 0.185125</text>
</svg>
<svg x="50" y="50" width="500" height="500" >
  <rect x="0%" y="0%" height="100%" width="100%" style="fill: #eeeeee"/>
    <rect x="0"  y="8.90764" height="48.699" width="15.625" style="fill: #76931f"/>
    <rect x="15.625"  y="9.49367" height="44.7726" width="15.625" style="fill: #ac9dab"/>
    <rect x="31.25"  y="10.0797" height="44.714" width="15.625" style="fill: #2b36c2"/>
    <rect x="46.875"  y="10.9001" height="43.7178" width="15.625" style="fill: #48b87d"/>
    <rect x="62.5"  y="11.2518" height="71.9644" width="15.625" style="fill: #6ae33f"/>
    <rect x="78.125"  y="12.4238" height="40.8462" width="15.625" style="fill: #9a62d7"/>
    <rect x="93.75"  y="13.5959" height="51.4534" width="15.625" style="fill: #183a5d"/>
    <rect x="109.375"  y="14.7679" height="50.3985" width="15.625" style="fill: #5789e4"/>
    <rect x="125"  y="15.9986" height="39.3226" width="15.625" style="fill: #b2d6b4"/>
    <rect x="140.625"  y="17.1707" height="36.8612" width="15.625" style="fill: #41e241"/>
    <rect x="156.25"  y="18.3427" height="50.5157" width="15.625" style="fill: #1dc709"/>
    <rect x="171.875"  y="19.0459" height="44.8898" width="15.625" style="fill: #e111c7"/>
    <rect x="187.5"  y="19.5148" height="75.9494" width="15.625" style="fill: #e1e7ac"/>
    <rect x="203.125"  y="20.6868" height="47.7614" width="15.625" style="fill: #b6f8ca"/>
    <rect x="218.75"  y="21.8589" height="45.0656" width="15.625" style="fill: #c0bb2f"/>
    <rect x="234.375"  y="23.0309" height="51.805" width="15.625" style="fill: #c4c8bc"/>
    <rect x="250"  y="22.8551" height="47.4684" width="15.625" style="fill: #2ae3ba"/>
    <rect x="265.625"  y="23.0309" height="221.812" width="15.625" style="fill: #aab916"/>
    <rect x="281.25"  y="22.7965" height="58.4271" width="15.625" style="fill: #5cc458"/>
    <rect x="296.875"  y="23.0309" height="51.8636" width="15.625" style="fill: #e199cb"/>
    <rect x="312.5"  y="22.9723" height="75.0117" width="15.625" style="fill: #89f51b"/>
    <rect x="328.125"  y="23.0309" height="115.741" width="15.625" style="fill: #135f70"/>
    <rect x="343.75"  y="22.4449" height="61.1228" width="15.625" style="fill: #91a5ab"/>
    <rect x="359.375"  y="22.4449" height="64.053" width="15.625" style="fill: #b0874d"/>
    <rect x="375"  y="23.0309" height="44.128" width="15.625" style="fill: #f3e8cb"/>
    <rect x="390.625"  y="22.4449" height="477.496" width="15.625" style="fill: #4543a5"/>
    <rect x="406.25"  y="23.0309" height="47.2339" width="15.625" style="fill: #eb93b0"/>
    <rect x="421.875"  y="23.0309" height="122.539" width="15.625" style="fill: #441e9c"/>
    <rect x="437.5"  y="23.0309" height="55.79" width="15.625" style="fill: #a4c2b0"/>
    <rect x="453.125"  y="23.0309" height="57.0792" width="15.625" style="fill: #fb3d30"/>
    <rect x="468.75"  y="23.0309" height="45.9447" width="15.625" style="fill: #875cbf"/>
    <rect x="78.125"  y="54.5007" height="14.3577" width="15.625" style="fill: #29abd5"/>
    <rect x="140.625"  y="55.2625" height="84.4468" width="15.625" style="fill: #b1acf3"/>
    <rect x="15.625"  y="55.497" height="14.9437" width="15.625" style="fill: #8984b3"/>
    <rect x="46.875"  y="55.8486" height="57.1964" width="15.625" style="fill: #5ae882"/>
    <rect x="31.25"  y="55.9658" height="10.5485" width="15.625" style="fill: #809dd4"/>
    <rect x="125"  y="56.4932" height="24.6718" width="15.625" style="fill: #cfe7ab"/>
    <rect x="0"  y="58.7787" height="127.344" width="15.625" style="fill: #c5c61b"/>
    <rect x="171.875"  y="65.1078" height="7.61838" width="15.625" style="fill: #aa52e0"/>
    <rect x="93.75"  y="66.2799" height="9.08345" width="15.625" style="fill: #53b4c3"/>
    <rect x="109.375"  y="66.3971" height="30.8251" width="15.625" style="fill: #643f20"/>
    <rect x="31.25"  y="67.745" height="99.3905" width="15.625" style="fill: #4ef259"/>
    <rect x="218.75"  y="68.0966" height="28.481" width="15.625" style="fill: #d2e980"/>
    <rect x="375"  y="68.3896" height="11.7206" width="15.625" style="fill: #42a948"/>
    <rect x="203.125"  y="69.6789" height="14.3577" width="15.625" style="fill: #aac5e8"/>
</svg>
</svg>
