<svg  xmlns="http://www.w3.org/2000/svg" xmlns:xlink="http://www.w3.org/1999/xlink" x="0" y="0" width="600" height="600">
<rect x="0%" y="0%" height="100%" width="100%" style="fill: #ffffff"/>
<svg x="0" y="0">
  <text fill="dark" font-size="35" transform="translate(250, 30)">cores</text>
</svg>
<svg x="0" y="0"> 
  <text fill="dark" font-size="35" transform="translate(30, 300) rotate(270)">time</text>
</svg>
<svg x = "50" y="550">
  <text fill="blue" font-size="30" transform="translate(0, 35)">t = 7s, lb = 0.500330</text>
</svg>
<svg x="50" y="50" width="500" height="500" >
  <rect x="0%" y="0%" height="100%" width="100%" style="fill: #eeeeee"/>
    <rect x="0"  y="1.49466" height="34.0925" width="12.5" style="fill: #ab2b36"/>
    <rect x="12.5"  y="1.49466" height="45.6228" width="12.5" style="fill: #c248b8"/>
    <rect x="25"  y="1.49466" height="389.964" width="12.5" style="fill: #7d6ae3"/>
    <rect x="37.5"  y="1.49466" height="34.8043" width="12.5" style="fill: #3f9a62"/>
    <rect x="50"  y="1.49466" height="50.9609" width="12.5" style="fill: #d7183a"/>
    <rect x="62.5"  y="1.49466" height="124.057" width="12.5" style="fill: #5d5789"/>
    <rect x="75"  y="1.49466" height="179.431" width="12.5" style="fill: #e4b2d6"/>
    <rect x="87.5"  y="1.49466" height="101.637" width="12.5" style="fill: #b441e2"/>
    <rect x="100"  y="1.49466" height="248.256" width="12.5" style="fill: #411dc7"/>
    <rect x="112.5"  y="1.49466" height="125.694" width="12.5" style="fill: #09e111"/>
    <rect x="125"  y="1.49466" height="91.5302" width="12.5" style="fill: #c7e1e7"/>
    <rect x="137.5"  y="1.49466" height="117.438" width="12.5" style="fill: #acb6f8"/>
    <rect x="150"  y="1.49466" height="270.89" width="12.5" style="fill: #cac0bb"/>
    <rect x="162.5"  y="1.49466" height="30.6762" width="12.5" style="fill: #2fc4c8"/>
    <rect x="175"  y="1.49466" height="16.4413" width="12.5" style="fill: #bc2ae3"/>
    <rect x="187.5"  y="1.49466" height="203.701" width="12.5" style="fill: #baaab9"/>
    <rect x="200"  y="1.49466" height="30.9609" width="12.5" style="fill: #165cc4"/>
    <rect x="212.5"  y="1.49466" height="110.819" width="12.5" style="fill: #58e199"/>
    <rect x="225"  y="1.49466" height="130.534" width="12.5" style="fill: #cb89f5"/>
    <rect x="237.5"  y="1.49466" height="21.4947" width="12.5" style="fill: #1b135f"/>
    <rect x="250"  y="1.49466" height="126.548" width="12.5" style="fill: #7091a5"/>
    <rect x="262.5"  y="1.49466" height="102.989" width="12.5" style="fill: #abb087"/>
    <rect x="275"  y="1.49466" height="142.206" width="12.5" style="fill: #4df3e8"/>
    <rect x="287.5"  y="1.49466" height="119.217" width="12.5" style="fill: #cb4543"/>
    <rect x="300"  y="1.49466" height="167.117" width="12.5" style="fill: #a5eb93"/>
    <rect x="312.5"  y="1.49466" height="285.836" width="12.5" style="fill: #b0441e"/>
    <rect x="325"  y="1.49466" height="12.5267" width="12.5" style="fill: #9ca4c2"/>
    <rect x="337.5"  y="1.49466" height="50.5338" width="12.5" style="fill: #b0fb3d"/>
    <rect x="350"  y="1.49466" height="17.6512" width="12.5" style="fill: #30875c"/>
    <rect x="362.5"  y="1.49466" height="129.68" width="12.5" style="fill: #bf29ab"/>
    <rect x="375"  y="1.49466" height="35.4448" width="12.5" style="fill: #d5b1ac"/>
    <rect x="387.5"  y="1.49466" height="52.1708" width="12.5" style="fill: #f38984"/>
    <rect x="400"  y="1.49466" height="98.2206" width="12.5" style="fill: #b35ae8"/>
    <rect x="412.5"  y="1.49466" height="11.8861" width="12.5" style="fill: #82809d"/>
    <rect x="425"  y="1.49466" height="25.6228" width="12.5" style="fill: #d4cfe7"/>
    <rect x="437.5"  y="1.49466" height="45.5516" width="12.5" style="fill: #abc5c6"/>
    <rect x="450"  y="1.49466" height="21.5658" width="12.5" style="fill: #1baa52"/>
    <rect x="462.5"  y="1.49466" height="35.0178" width="12.5" style="fill: #e053b4"/>
    <rect x="475"  y="1.49466" height="81.1388" width="12.5" style="fill: #c3643f"/>
    <rect x="412.5"  y="14.8754" height="144.911" width="12.5" style="fill: #204ef2"/>
    <rect x="325"  y="15.516" height="4.55516" width="12.5" style="fill: #59d2e9"/>
    <rect x="175"  y="19.4306" height="220.071" width="12.5" style="fill: #8042a9"/>
    <rect x="350"  y="20.5694" height="26.2633" width="12.5" style="fill: #48aac5"/>
    <rect x="325"  y="21.4947" height="93.9502" width="12.5" style="fill: #e884cb"/>
    <rect x="237.5"  y="23.7722" height="23.4164" width="12.5" style="fill: #3ec7db"/>
    <rect x="450"  y="23.7722" height="57.5089" width="12.5" style="fill: #925643"/>
    <rect x="425"  y="28.6121" height="112.883" width="12.5" style="fill: #fd34fd"/>
    <rect x="162.5"  y="33.5943" height="187.972" width="12.5" style="fill: #d467e2"/>
    <rect x="200"  y="33.879" height="143.203" width="12.5" style="fill: #cca406"/>
    <rect x="0"  y="37.0107" height="366.975" width="12.5" style="fill: #035cb2"/>
    <rect x="37.5"  y="37.0107" height="159.288" width="12.5" style="fill: #744cb9"/>
    <rect x="462.5"  y="37.2954" height="46.1922" width="12.5" style="fill: #0a63e5"/>
    <rect x="375"  y="38.363" height="183.203" width="12.5" style="fill: #1c9737"/>
    <rect x="350"  y="48.3274" height="79.2883" width="12.5" style="fill: #903343"/>
    <rect x="437.5"  y="47.758" height="27.9715" width="12.5" style="fill: #947e02"/>
    <rect x="12.5"  y="48.5409" height="14.5196" width="12.5" style="fill: #086541"/>
    <rect x="237.5"  y="47.9004" height="48.6121" width="12.5" style="fill: #e4c48a"/>
    <rect x="337.5"  y="53.452" height="194.164" width="12.5" style="fill: #99630a"/>
    <rect x="50"  y="53.2384" height="162.206" width="12.5" style="fill: #a9aece"/>
    <rect x="387.5"  y="55.089" height="131.53" width="12.5" style="fill: #153843"/>
    <rect x="12.5"  y="64.484" height="18.5765" width="12.5" style="fill: #a4b190"/>
    <rect x="437.5"  y="77.153" height="235.658" width="12.5" style="fill: #274ebc"/>
    <rect x="450"  y="82.7758" height="78.5765" width="12.5" style="fill: #955f85"/>
    <rect x="475"  y="84.0569" height="92.4555" width="12.5" style="fill: #92e30a"/>
    <rect x="12.5"  y="83.8434" height="247.972" width="12.5" style="fill: #2205a4"/>
    <rect x="462.5"  y="84.9822" height="60.1423" width="12.5" style="fill: #858462"/>
    <rect x="125"  y="94.4484" height="26.548" width="12.5" style="fill: #489875"/>
    <rect x="237.5"  y="98.0071" height="401.993" width="12.5" style="fill: #50aaf2"/>
    <rect x="400"  y="101.139" height="17.5089" width="12.5" style="fill: #094ec5"/>
    <rect x="87.5"  y="104.626" height="3.84342" width="12.5" style="fill: #9e7931"/>
    <rect x="262.5"  y="105.979" height="47.9004" width="12.5" style="fill: #dc650c"/>
    <rect x="87.5"  y="109.964" height="39.3594" width="12.5" style="fill: #7451cc"/>
    <rect x="212.5"  y="113.737" height="178.505" width="12.5" style="fill: #61c0cb"/>
    <rect x="325"  y="116.94" height="170.819" width="12.5" style="fill: #2c46a1"/>
    <rect x="400"  y="120.071" height="36.1566" width="12.5" style="fill: #b3f2c3"/>
    <rect x="137.5"  y="120.356" height="315.374" width="12.5" style="fill: #49faff"/>
    <rect x="287.5"  y="122.206" height="16.0142" width="12.5" style="fill: #763c7f"/>
    <rect x="125"  y="122.491" height="65.2669" width="12.5" style="fill: #8d14dd"/>
    <rect x="62.5"  y="126.975" height="105.48" width="12.5" style="fill: #ff9463"/>
    <rect x="112.5"  y="128.612" height="200.854" width="12.5" style="fill: #517443"/>
    <rect x="350"  y="129.039" height="137.224" width="12.5" style="fill: #78d62c"/>
    <rect x="250"  y="129.466" height="24.484" width="12.5" style="fill: #59285a"/>
    <rect x="362.5"  y="132.669" height="4.05694" width="12.5" style="fill: #8d7915"/>
    <rect x="225"  y="133.523" height="28.2562" width="12.5" style="fill: #614f5a"/>
    <rect x="362.5"  y="138.221" height="144.342" width="12.5" style="fill: #2ac9e0"/>
    <rect x="287.5"  y="139.004" height="51.3879" width="12.5" style="fill: #d68aca"/>
    <rect x="425"  y="142.918" height="99.9288" width="12.5" style="fill: #6248a9"/>
    <rect x="275"  y="145.125" height="34.1637" width="12.5" style="fill: #227ab8"/>
    <rect x="462.5"  y="146.548" height="27.1174" width="12.5" style="fill: #f1930e"/>
    <rect x="87.5"  y="150.747" height="43.2028" width="12.5" style="fill: #e38ac7"/>
    <rect x="262.5"  y="155.302" height="185.552" width="12.5" style="fill: #a9d239"/>
    <rect x="250"  y="154.733" height="198.861" width="12.5" style="fill: #c9b026"/>
    <rect x="400"  y="157.722" height="27.9715" width="12.5" style="fill: #a481e4"/>
    <rect x="412.5"  y="161.21" height="42.2776" width="12.5" style="fill: #9d5316"/>
</svg>
</svg>
