<svg  xmlns="http://www.w3.org/2000/svg" xmlns:xlink="http://www.w3.org/1999/xlink" x="0" y="0" width="600" height="600">
<rect x="0%" y="0%" height="100%" width="100%" style="fill: #ffffff"/>
<svg x="0" y="0">
  <text fill="dark" font-size="35" transform="translate(250, 30)">cores</text>
</svg>
<svg x="0" y="0"> 
  <text fill="dark" font-size="35" transform="translate(30, 300) rotate(270)">time</text>
</svg>
<svg x = "50" y="550">
  <text fill="blue" font-size="30" transform="translate(0, 35)">t = 6s, lb = 0.927348</text>
</svg>
<svg x="50" y="50" width="500" height="500" >
  <rect x="0%" y="0%" height="100%" width="100%" style="fill: #eeeeee"/>
    <rect x="0"  y="1.65955" height="12.2491" width="125" style="fill: #dab2b3"/>
    <rect x="125"  y="1.58053" height="12.8023" width="125" style="fill: #6c248b"/>
    <rect x="250"  y="1.65955" height="7.42848" width="125" style="fill: #87d6ae"/>
    <rect x="250"  y="10.6686" height="2.92398" width="125" style="fill: #33f9a6"/>
    <rect x="250"  y="14.4618" height="6.79627" width="125" style="fill: #2d7183"/>
    <rect x="0"  y="14.6989" height="11.5379" width="125" style="fill: #a5d578"/>
    <rect x="125"  y="15.2521" height="20.3098" width="125" style="fill: #9e4b2d"/>
    <rect x="250"  y="22.0484" height="21.4952" width="125" style="fill: #6b441e"/>
    <rect x="0"  y="27.1061" height="9.56219" width="125" style="fill: #2411dc"/>
    <rect x="125"  y="36.4312" height="11.2217" width="125" style="fill: #709e11"/>
    <rect x="0"  y="37.4585" height="13.5925" width="125" style="fill: #1c7e1e"/>
    <rect x="250"  y="44.4128" height="11.0637" width="125" style="fill: #7acb6f"/>
    <rect x="125"  y="48.4432" height="7.74459" width="125" style="fill: #8cac0b"/>
    <rect x="0"  y="51.9203" height="25.3675" width="125" style="fill: #b2fc4c"/>
    <rect x="250"  y="56.2668" height="17.5439" width="125" style="fill: #8bc2ae"/>
    <rect x="125"  y="56.978" height="9.08804" width="125" style="fill: #3baaab"/>
    <rect x="125"  y="66.9354" height="36.5102" width="125" style="fill: #9165cc"/>
    <rect x="250"  y="74.6799" height="14.5409" width="125" style="fill: #458e19"/>
    <rect x="0"  y="78.8683" height="16.9907" width="125" style="fill: #9cb89f"/>
    <rect x="250"  y="90.0901" height="11.1427" width="125" style="fill: #51b135"/>
    <rect x="0"  y="96.6493" height="10.5895" width="125" style="fill: #f7091a"/>
    <rect x="250"  y="102.023" height="14.0667" width="125" style="fill: #5abb08"/>
    <rect x="125"  y="104.236" height="9.79927" width="125" style="fill: #74df3e"/>
    <rect x="0"  y="108.108" height="6.08503" width="125" style="fill: #8cb454"/>
    <rect x="125"  y="114.904" height="6.08503" width="125" style="fill: #3a5eb9"/>
    <rect x="0"  y="115.062" height="7.27043" width="125" style="fill: #3b0441"/>
    <rect x="250"  y="116.959" height="40.1454" width="125" style="fill: #e9ca4c"/>
    <rect x="125"  y="121.78" height="15.094" width="125" style="fill: #2b0fb3"/>
    <rect x="0"  y="123.202" height="7.90264" width="125" style="fill: #d30875"/>
    <rect x="0"  y="131.974" height="18.7293" width="125" style="fill: #cbf29a"/>
    <rect x="125"  y="137.743" height="7.58653" width="125" style="fill: #bd5b1a"/>
    <rect x="125"  y="146.12" height="6.24309" width="125" style="fill: #cf3898"/>
    <rect x="0"  y="151.494" height="6.40114" width="125" style="fill: #4b35ae"/>
    <rect x="125"  y="153.232" height="5.53185" width="125" style="fill: #882809"/>
    <rect x="250"  y="157.895" height="101.391" width="125" style="fill: #dd4cfe"/>
    <rect x="0"  y="158.685" height="9.56219" width="125" style="fill: #7abc5c"/>
    <rect x="125"  y="159.633" height="5.61087" width="125" style="fill: #61baa5"/>
    <rect x="125"  y="166.034" height="6.79627" width="125" style="fill: #2e053b"/>
    <rect x="0"  y="169.116" height="16.9907" width="125" style="fill: #4c3643"/>
    <rect x="125"  y="174.49" height="8.61388" width="125" style="fill: #f204ef"/>
    <rect x="125"  y="183.894" height="6.79627" width="125" style="fill: #259d2e"/>
    <rect x="0"  y="186.976" height="6.63822" width="125" style="fill: #98042a"/>
    <rect x="125"  y="191.56" height="10.2734" width="125" style="fill: #948aac"/>
    <rect x="0"  y="194.405" height="11.0637" width="125" style="fill: #5e884c"/>
    <rect x="125"  y="202.624" height="10.5895" width="125" style="fill: #b3ec7d"/>
    <rect x="0"  y="206.338" height="11.6169" width="125" style="fill: #b92564"/>
    <rect x="125"  y="214.083" height="6.40114" width="125" style="fill: #3fd34f"/>
    <rect x="0"  y="218.745" height="7.1914" width="125" style="fill: #dd467e"/>
    <rect x="125"  y="221.353" height="10.9847" width="125" style="fill: #2cca40"/>
    <rect x="0"  y="227.596" height="11.5379" width="125" style="fill: #6035cb"/>
    <rect x="125"  y="233.128" height="9.40414" width="125" style="fill: #2744cb"/>
    <rect x="0"  y="240.793" height="36.5102" width="125" style="fill: #90a63e"/>
    <rect x="125"  y="243.322" height="12.2491" width="125" style="fill: #51c973"/>
    <rect x="125"  y="256.362" height="7.90264" width="125" style="fill: #790334"/>
    <rect x="250"  y="260.945" height="7.50751" width="125" style="fill: #3947e0"/>
    <rect x="125"  y="265.134" height="14.3828" width="125" style="fill: #208654"/>
    <rect x="250"  y="269.243" height="12.2491" width="125" style="fill: #1e4c48"/>
    <rect x="0"  y="278.094" height="7.11238" width="125" style="fill: #a99630"/>
    <rect x="125"  y="280.386" height="6.55919" width="125" style="fill: #aa9aec"/>
    <rect x="250"  y="282.282" height="30.2671" width="125" style="fill: #e15384"/>
    <rect x="0"  y="286.076" height="6.95432" width="125" style="fill: #3a4b19"/>
    <rect x="125"  y="287.735" height="10.8266" width="125" style="fill: #0274eb"/>
    <rect x="0"  y="293.82" height="10.9056" width="125" style="fill: #c955f8"/>
    <rect x="125"  y="299.431" height="6.40114" width="125" style="fill: #592e30"/>
    <rect x="0"  y="305.595" height="2.6869" width="125" style="fill: #a2205a"/>
    <rect x="125"  y="306.622" height="51.9203" width="125" style="fill: #485846"/>
    <rect x="0"  y="309.151" height="7.90264" width="125" style="fill: #248987"/>
    <rect x="250"  y="313.419" height="11.7749" width="125" style="fill: #550aaf"/>
    <rect x="0"  y="317.844" height="8.85096" width="125" style="fill: #2094ec"/>
    <rect x="250"  y="325.984" height="7.1914" width="125" style="fill: #59e793"/>
    <rect x="0"  y="327.564" height="13.8296" width="125" style="fill: #1dc650"/>
    <rect x="250"  y="334.124" height="11.7749" width="125" style="fill: #c7451c"/>
    <rect x="0"  y="342.263" height="8.85096" width="125" style="fill: #c61c0c"/>
    <rect x="250"  y="346.768" height="31.1364" width="125" style="fill: #b2c46a"/>
    <rect x="0"  y="351.984" height="9.08804" width="125" style="fill: #1b3f2c"/>
    <rect x="125"  y="359.412" height="21.4162" width="125" style="fill: #349faf"/>
    <rect x="0"  y="361.941" height="8.13972" width="125" style="fill: #f763c7"/>
    <rect x="0"  y="370.871" height="31.0574" width="125" style="fill: #f8d14d"/>
    <rect x="250"  y="378.694" height="9.24609" width="125" style="fill: #dff946"/>
    <rect x="125"  y="381.697" height="8.3768" width="125" style="fill: #351744"/>
    <rect x="250"  y="388.81" height="6.08503" width="125" style="fill: #378d62"/>
    <rect x="125"  y="390.865" height="28.9237" width="125" style="fill: #c59285"/>
    <rect x="250"  y="395.685" height="10.5105" width="125" style="fill: #a8d791"/>
    <rect x="0"  y="402.798" height="18.8873" width="125" style="fill: #5614f5"/>
    <rect x="250"  y="407.065" height="10.5105" width="125" style="fill: #a2ac9e"/>
    <rect x="250"  y="418.366" height="12.7232" width="125" style="fill: #0d68ac"/>
    <rect x="125"  y="420.657" height="13.5135" width="125" style="fill: #a6248a"/>
    <rect x="0"  y="422.554" height="19.0454" width="125" style="fill: #9227ab"/>
    <rect x="250"  y="431.958" height="14.936" width="125" style="fill: #8f1930"/>
    <rect x="125"  y="434.961" height="6.24309" width="125" style="fill: #ee38ac"/>
    <rect x="125"  y="442.074" height="57.9263" width="125" style="fill: #7a9d23"/>
    <rect x="0"  y="442.39" height="24.9723" width="125" style="fill: #9c9b02"/>
    <rect x="250"  y="447.685" height="7.98167" width="125" style="fill: #6a481e"/>
    <rect x="250"  y="456.535" height="10.7476" width="125" style="fill: #49d531"/>
    <rect x="250"  y="468.073" height="9.95733" width="125" style="fill: #61f9a9"/>
    <rect x="0"  y="468.152" height="15.9633" width="125" style="fill: #513fe5"/>
    <rect x="250"  y="478.9" height="3.79327" width="125" style="fill: #271c32"/>
    <rect x="250"  y="483.563" height="8.92998" width="125" style="fill: #e9c21d"/>
    <rect x="0"  y="484.985" height="3.39813" width="125" style="fill: #156eb9"/>
</svg>
</svg>
